<svg width="172" height="76" viewBox="0 0 172 76" fill="none" xmlns="http://www.w3.org/2000/svg">
<path d="M159.59 26.2591C157.529 23.5448 155.606 20.7043 153.912 17.8007C153.866 17.7375 153.866 17.6744 153.82 17.6113C152.492 15.3389 151.256 13.0664 150.202 10.8571C150.157 10.794 150.157 10.7309 150.111 10.6678C150.065 10.6047 150.019 10.5415 150.019 10.4153C150.019 10.4153 150.019 10.4153 150.019 10.3522C148.142 6.31229 146.859 2.65116 146.585 0C145.486 0.44186 144.02 0.820598 142.234 1.26246C141.96 1.32558 141.685 1.3887 141.364 1.45183C141.273 1.45183 141.181 1.51495 141.089 1.51495C141.044 1.51495 141.044 1.51495 140.998 1.51495C139.166 1.89369 137.014 2.27243 134.678 2.65116C134.633 2.65116 134.541 2.65116 134.495 2.65116C132.251 2.96678 129.824 3.28239 127.26 3.59801C115.216 4.98671 99.9212 5.87043 86 5.87043C72.0788 5.87043 56.7838 4.92359 44.7401 3.59801C42.1757 3.28239 39.7487 2.96678 37.5048 2.65116C37.459 2.65116 37.3674 2.65116 37.3216 2.65116C34.8488 2.33555 32.6507 1.95681 30.7274 1.51495C30.6816 1.51495 30.6358 1.51495 30.5442 1.45183C30.2694 1.3887 29.9489 1.32558 29.6741 1.26246C27.8882 0.883721 26.4228 0.44186 25.3237 0C25.049 2.71429 23.7668 6.37541 21.8892 10.3522V10.4153C21.8434 10.4784 21.7977 10.5415 21.7977 10.6678C21.7519 10.7309 21.7519 10.794 21.7061 10.8571C20.6528 13.0664 19.4164 15.3389 18.0884 17.6113C18.0426 17.6744 18.0426 17.7375 17.9968 17.8007C16.2567 20.7043 14.3791 23.5449 12.3642 26.196C12.3642 26.196 12.3642 26.196 12.3184 26.2591C8.2886 31.5615 3.89244 35.9801 0 38C10.3951 43.3654 24.3163 66.1528 25.3695 75.9369C32.4217 73.2226 54.6773 70.7608 76.1544 70.1927L85.9542 70.2558H88.5186H89.3429H95.754C97.4484 70.3189 99.0969 70.3821 100.791 70.4452C101.478 70.4452 102.119 70.5083 102.806 70.5083C103.493 70.5083 104.134 70.5714 104.821 70.5714C105.462 70.6345 106.149 70.6345 106.79 70.6977C107.111 70.6977 107.477 70.7608 107.798 70.7608C108.439 70.8239 109.126 70.8239 109.767 70.887C110.087 70.887 110.454 70.9502 110.774 70.9502C114.392 71.2027 117.872 71.4551 121.215 71.7708C121.215 71.7708 121.215 71.7708 121.261 71.7708C132.801 72.8439 142.326 74.3588 146.493 76C146.493 76 146.493 76 146.493 75.9369C146.493 75.9369 146.493 75.8738 146.493 75.8106C147.684 65.9635 161.468 43.3654 171.817 38.0631C167.97 35.9801 163.62 31.5615 159.59 26.2591ZM156.797 38C156.43 38.4419 152.171 43.6179 148.187 49.1728C144.982 53.9701 142.738 58.5781 140.174 64.3854C132.251 63.6279 125.199 63.1229 118.88 62.7442C117.368 62.6811 115.857 62.5548 114.438 62.4917C113.751 62.4917 113.018 62.4286 112.331 62.4286C110.912 62.3654 109.538 62.3023 108.164 62.3023C107.843 62.3023 107.477 62.3023 107.157 62.3023C102.852 62.1761 98.9137 62.113 95.2961 62.113C94.8839 62.113 94.4718 62.113 94.0596 62.113C91.1289 62.113 88.427 62.113 85.8626 62.113H85.8168C82.886 62.113 79.7263 62.113 76.3376 62.113C75.9254 62.113 75.5133 62.113 75.147 62.113C71.8956 62.113 68.3695 62.1761 64.5687 62.3023C64.2481 62.3023 63.9276 62.3023 63.5612 62.3023C62.2332 62.3654 60.8136 62.3654 59.394 62.4286C58.7071 62.4286 58.0202 62.4917 57.2875 62.4917C55.8679 62.5548 54.3568 62.6179 52.8456 62.7442C46.4803 63.0598 39.4281 63.6279 31.5517 64.3854C29.033 58.5781 26.7433 53.9701 23.5378 49.1728C21.4771 46.1429 15.8903 39.01 15.1118 38.0631C15.066 38 15.0202 37.9369 15.0202 37.9369L15.066 37.8738C15.6613 37.1163 20.8818 30.6777 23.6294 26.7641C26.8349 21.9037 29.0788 17.3588 31.6432 11.5515C56.738 14.0133 73.3152 13.887 85.9542 13.887C98.5932 13.887 115.17 14.0133 140.265 11.5515C142.784 17.3588 145.073 21.9668 148.279 26.7641C151.942 32.0033 156.522 37.6213 156.797 38C156.842 38 156.842 37.9369 156.797 38C156.842 38 156.842 38 156.797 38Z" fill="url(#paint0_linear_83_8)"/>
<path d="M10.7157 38.0001H0C10.3951 43.3655 24.3163 66.1529 25.3695 75.9369C25.3695 75.9369 28.3461 71.4552 30.361 68.2991C26.6976 54.8539 12.8679 39.2625 10.7157 38.0001Z" fill="url(#paint1_linear_83_8)"/>
<path d="M141.593 68.299C141.593 68.299 120.941 65.2691 88.0609 65.2691C55.1812 65.2691 30.407 68.299 30.407 68.299C30.407 68.299 27.5678 72.907 25.4155 75.9369C32.4677 73.2226 54.7233 70.7608 76.2004 70.1927H88.702H95.8C117.323 70.7608 139.533 73.2226 146.585 75.9369C144.433 72.8439 141.593 68.299 141.593 68.299Z" fill="url(#paint2_radial_83_8)"/>
<path d="M161.285 38.0001H172C161.605 43.3655 147.684 66.1529 146.631 75.9369C146.631 75.9369 143.654 71.4552 141.639 68.2991C145.348 54.8539 159.132 39.2625 161.285 38.0001Z" fill="url(#paint3_linear_83_8)"/>
<path d="M159.041 35.4751C156.201 32.1296 153.82 29.1628 151.805 26.3854L151.53 26.0066C151.21 25.5017 150.844 25.0598 150.523 24.5548C150.431 24.4917 150.386 24.3655 150.34 24.2392C148.279 21.2093 146.539 18.2425 144.982 15.1495C144.936 15.0864 144.89 15.0233 144.89 14.9601C144.845 14.8339 144.799 14.7708 144.753 14.6445C143.929 12.9402 143.104 11.2359 142.28 9.3422L141.547 7.63788L140.082 7.76412C118.147 9.9103 103.081 10.5415 89.4804 10.5415H82.3824C68.8275 10.5415 53.7615 9.9103 31.7807 7.76412L30.3153 7.63788L29.5826 9.3422C28.7583 11.1728 27.9798 12.9402 27.1098 14.6445C27.064 14.7708 27.0182 14.8339 26.9724 14.9601C25.3696 18.1794 23.6295 21.1462 21.523 24.2392C21.4772 24.3655 21.3856 24.4286 21.3398 24.5548C21.0192 25.0598 20.6987 25.5017 20.3323 26.0066C20.2407 26.1329 20.1492 26.2591 20.0576 26.3854C18.0427 29.2259 15.6614 32.1927 12.8222 35.4751L10.6699 37.9369L12.8222 40.4618C21.3398 50.4352 25.507 57.1263 29.5826 66.5316L30.3153 68.2359H30.4069L31.7807 68.1096C39.7945 67.3522 46.8467 66.7209 53.3036 66.3422C53.5783 66.3422 53.8989 66.2791 54.1737 66.2791C62.0501 65.7741 69.0107 65.5216 75.4218 65.3954H75.8339C80.2759 65.3954 89.7093 65.3954 96.441 65.3954C108.256 65.5847 121.765 66.3422 140.036 68.1096L141.502 68.2359L141.914 67.289L142.234 66.5316C146.356 57.0631 150.477 50.3721 158.995 40.4618L160.918 38.2525L161.147 38L159.041 35.4751ZM140.219 64.4485C132.297 63.691 125.245 63.1861 118.926 62.8073C117.414 62.7442 115.903 62.6179 114.484 62.5548C113.797 62.5548 113.064 62.4917 112.377 62.4917C110.957 62.4286 109.584 62.3655 108.21 62.3655C107.889 62.3655 107.523 62.3655 107.202 62.3655C102.898 62.2392 98.9596 62.1761 95.3419 62.1761C94.9298 62.1761 94.5176 62.1761 94.1055 62.1761C91.1747 62.1761 88.4729 62.1761 85.9085 62.1761H85.8627C82.9319 62.1761 79.7722 62.1761 76.3834 62.1761C75.9713 62.1761 75.5592 62.1761 75.1928 62.1761C71.9415 62.1761 68.4154 62.2392 64.6145 62.3655C64.294 62.3655 63.9734 62.3655 63.6071 62.3655C62.2791 62.4286 60.8595 62.4286 59.4399 62.4917C58.753 62.4917 58.0661 62.5548 57.3334 62.5548C55.9138 62.6179 54.4026 62.6811 52.8914 62.8073C46.5262 63.1229 39.474 63.691 31.5975 64.4485C29.0789 58.6412 26.7892 54.0332 23.5837 49.2359C20.6529 44.691 15.8446 38.9468 15.1119 38.0631C15.0661 38 15.0203 37.9369 15.0203 37.9369L15.0661 37.8738C15.1119 37.8738 15.1119 37.8106 15.1577 37.8106C15.7988 37.0532 18.6838 33.7076 21.294 30.1728C21.4314 29.9834 21.523 29.8571 21.6603 29.6678C22.3472 28.7209 23.0341 27.711 23.6752 26.7641C26.8808 21.9037 29.1247 17.3588 31.6891 11.5515C56.7839 14.0133 73.3611 13.887 86.0001 13.887C98.639 13.887 115.216 14.0133 140.311 11.5515C142.83 17.3588 145.119 21.9668 148.325 26.7641C151.943 32.0664 156.064 36.99 156.797 37.8106C156.842 37.8738 156.842 37.8738 156.888 37.9369H156.934C156.613 38.2525 153.271 41.8505 148.325 49.1096C145.028 54.0332 142.784 58.5781 140.219 64.4485Z" fill="url(#paint4_linear_83_8)"/>
<path d="M156.842 38C156.522 38.3156 153.133 41.9136 148.233 49.2358C145.027 54.0332 142.784 58.6412 140.219 64.4485C132.297 63.691 125.245 63.186 118.925 62.8073C117.414 62.7441 115.903 62.6179 114.483 62.5548C113.796 62.5548 113.064 62.4916 112.377 62.4916C110.957 62.4285 109.583 62.3654 108.21 62.3654C107.889 62.3654 107.523 62.3654 107.202 62.3654C102.898 62.2392 98.9593 62.176 95.3416 62.176C94.9295 62.176 94.5174 62.176 94.1052 62.176C91.1744 62.176 88.4726 62.176 85.9082 62.176H85.8624C82.9316 62.176 79.7719 62.176 76.3832 62.176C75.971 62.176 75.5589 62.176 75.1925 62.176C71.9412 62.176 68.4151 62.2392 64.6143 62.3654C64.2937 62.3654 63.9732 62.3654 63.6068 62.3654C62.2788 62.4285 60.8592 62.4285 59.4396 62.4916C58.7527 62.4916 58.0658 62.5548 57.3331 62.5548C55.9135 62.6179 54.4023 62.681 52.8912 62.8073C46.5259 63.1229 39.4737 63.691 31.5972 64.4485C29.0786 58.6412 26.7889 54.0332 23.5834 49.2358C20.6526 44.691 15.8443 38.9468 15.1116 38.0631C15.0658 38 15.02 37.9368 15.02 37.9368L15.0658 37.8737C15.1116 37.8737 15.1116 37.8106 15.1574 37.8106C17.1265 35.6013 19.2788 32.887 21.2937 30.1727C21.4311 29.9833 21.5227 29.8571 21.6601 29.6677C22.347 28.7209 23.0339 27.7109 23.675 26.7641C26.8805 21.9036 29.1244 17.3588 31.6888 11.5515C56.7836 14.0132 73.3608 13.887 85.9998 13.887C98.6388 13.887 115.216 14.0132 140.311 11.5515C142.829 17.3588 145.119 21.9667 148.325 26.7641C150.843 30.6146 154.003 34.7176 156.796 37.8106C156.751 37.8737 156.751 37.8737 156.842 38C156.796 37.9368 156.796 37.9368 156.842 38Z" fill="url(#paint5_radial_83_8)"/>
<path d="M85.954 10.6046V13.887C73.315 13.887 56.7836 14.0133 31.6431 11.5515L30.3608 7.70099L31.8262 7.82723C53.7613 9.97341 68.8273 10.6046 82.4279 10.6046H85.954Z" fill="url(#paint6_linear_83_8)"/>
<path d="M146.493 0.0630493C143.059 4.10292 136.831 7.70092 127.168 3.66106C135.182 2.58797 139.67 2.27235 146.493 0.0630493Z" fill="white"/>
<path d="M141.501 7.70099L140.219 11.5515C115.124 14.0133 98.5472 13.887 85.9082 13.887V10.6046H89.4801C103.035 10.6046 118.101 9.97341 140.082 7.82723L141.501 7.70099Z" fill="url(#paint7_linear_83_8)"/>
<path d="M118.925 62.8073C118.559 62.8073 91.4493 64.4485 85.9541 64.4485V62.1129C88.5185 62.1129 91.2203 62.1129 94.1511 62.1129C94.5633 62.1129 94.9754 62.1129 95.3875 62.1129C99.0052 62.1129 102.943 62.176 107.248 62.3023C107.569 62.3023 107.889 62.3023 108.255 62.3023C109.583 62.3654 111.003 62.3654 112.423 62.4285C113.11 62.4285 113.796 62.4917 114.529 62.4917C115.949 62.6179 117.414 62.681 118.925 62.8073Z" fill="white"/>
<path d="M85.9541 64.4485C80.7794 64.4485 53.4865 62.8704 52.937 62.8073C54.4482 62.7442 55.9136 62.6179 57.379 62.5548C58.0659 62.5548 58.7986 62.4917 59.4855 62.4917C60.9051 62.4286 62.2789 62.3655 63.6527 62.3655C63.9732 62.3655 64.3396 62.3655 64.6601 62.3655C68.461 62.2392 71.9871 62.1761 75.2384 62.1761C75.6505 62.1761 76.0627 62.1761 76.429 62.1761C79.8177 62.1761 82.9775 62.1761 85.9083 62.1761L85.9541 64.4485Z" fill="white"/>
<path opacity="0.5" d="M144.707 14.7077C150.935 20.6412 154.553 21.525 149.973 10.4785C152.583 16.1595 155.652 20.7675 159.681 26.3854C151.484 20.01 145.76 17.7376 151.805 26.3854C148.828 22.3456 145.348 15.907 144.707 14.7077Z" fill="white"/>
<path d="M161.147 38H156.796C156.796 38 156.796 38 156.751 38C156.705 37.9369 156.705 37.9369 156.659 37.8738C153.866 34.7808 150.706 30.6147 148.187 26.8273C144.982 21.9668 142.738 17.422 140.173 11.6147L141.456 7.76416L142.188 9.46848C143.013 11.299 143.791 13.0665 144.661 14.7708C144.707 14.8971 144.753 14.9602 144.798 15.0864C144.844 15.1495 144.844 15.2127 144.89 15.2758C146.493 18.4319 148.187 21.3356 150.248 24.3655C150.294 24.4917 150.385 24.5549 150.431 24.6811C150.752 25.1861 151.072 25.6279 151.439 26.1329L151.713 26.5117C153.728 29.3522 156.109 32.319 158.949 35.6014L161.147 38Z" fill="url(#paint8_linear_83_8)"/>
<path d="M25.3696 0.0630493C28.8041 4.10292 35.032 7.70092 44.6944 3.66106C36.6806 2.58797 32.2386 2.27235 25.3696 0.0630493Z" fill="white"/>
<path opacity="0.5" d="M27.1552 14.7076C20.9273 20.6412 17.3554 21.5249 21.9348 10.4153C19.3245 16.0963 16.2564 20.7043 12.2266 26.3223C20.3778 20.01 26.102 17.7375 20.103 26.3854C23.0338 22.3455 26.5599 15.907 27.1552 14.7076Z" fill="white"/>
<path d="M31.6434 11.5515C29.1248 17.3588 26.8351 21.9668 23.6296 26.7641C22.9885 27.711 22.3473 28.7209 21.6146 29.6678C21.4773 29.8571 21.3857 29.9834 21.2483 30.1727C19.2792 32.9502 17.1269 35.6013 15.112 37.8106C15.1578 37.8737 15.112 37.8737 15.112 37.9369L15.0662 38H10.7158L12.8681 35.5382C15.7073 32.1927 18.0886 29.2259 20.1035 26.4485C20.1951 26.3223 20.2866 26.196 20.3782 26.0698C20.6988 25.5648 21.0651 25.1229 21.3857 24.6179C21.4315 24.5548 21.5231 24.4286 21.5689 24.3023C23.6754 21.2093 25.4155 18.1794 27.0183 15.0232C27.0641 14.897 27.1099 14.8339 27.1557 14.7076C27.9799 13.0033 28.8042 11.299 29.6285 9.40531L30.3612 7.70099L31.6434 11.5515Z" fill="url(#paint9_linear_83_8)"/>
<path d="M140.906 2.39865C141.685 2.20928 142.326 1.83054 142.28 1.51493C142.28 1.45181 142.234 1.38868 142.143 1.32556C141.227 1.51493 140.357 1.76742 139.487 1.89367C139.441 1.95679 139.395 2.08304 139.395 2.14616C139.441 2.46177 140.128 2.58802 140.906 2.39865Z" fill="white"/>
<path d="M30.9562 2.39865C30.1777 2.20928 29.5366 1.83054 29.5824 1.51493C29.5824 1.45181 29.6282 1.38868 29.7198 1.32556C30.6356 1.51493 31.5057 1.7043 32.3758 1.89367C32.4216 1.95679 32.4674 2.08304 32.4674 2.14616C32.4216 2.46177 31.7347 2.58802 30.9562 2.39865Z" fill="white"/>
<defs>
<linearGradient id="paint0_linear_83_8" x1="85.9399" y1="75.8864" x2="85.9399" y2="0.0631272" gradientUnits="userSpaceOnUse">
<stop offset="0.0139665" stop-color="#737FBA"/>
<stop offset="1" stop-color="#C4E1F5"/>
</linearGradient>
<linearGradient id="paint1_linear_83_8" x1="11.3496" y1="44.8252" x2="28.196" y2="61.6824" gradientUnits="userSpaceOnUse">
<stop stop-color="#404F7E"/>
<stop offset="0.9358" stop-color="#7C97C8"/>
</linearGradient>
<radialGradient id="paint2_radial_83_8" cx="0" cy="0" r="1" gradientUnits="userSpaceOnUse" gradientTransform="translate(85.9697 70.5758) scale(42.9386 59.1878)">
<stop offset="0.0642458" stop-color="#7C97C8"/>
<stop offset="1" stop-color="#2B3554"/>
</radialGradient>
<linearGradient id="paint3_linear_83_8" x1="160.666" y1="44.8252" x2="143.82" y2="61.6824" gradientUnits="userSpaceOnUse">
<stop stop-color="#404F7E"/>
<stop offset="0.9358" stop-color="#7C97C8"/>
</linearGradient>
<linearGradient id="paint4_linear_83_8" x1="85.9377" y1="68.2674" x2="85.9377" y2="7.68206" gradientUnits="userSpaceOnUse">
<stop stop-color="#C4E1F5"/>
<stop offset="0.986" stop-color="#737FBA"/>
</linearGradient>
<radialGradient id="paint5_radial_83_8" cx="0" cy="0" r="1" gradientUnits="userSpaceOnUse" gradientTransform="translate(85.9374 37.9747) scale(60.9265 83.9828)">
<stop stop-color="#D50C10"/>
<stop offset="1" stop-color="#3F0005"/>
</radialGradient>
<linearGradient id="paint6_linear_83_8" x1="30.3626" y1="10.7756" x2="85.9375" y2="10.7756" gradientUnits="userSpaceOnUse">
<stop stop-color="#2B3554"/>
<stop offset="0.9358" stop-color="#7C97C8"/>
</linearGradient>
<linearGradient id="paint7_linear_83_8" x1="85.9374" y1="10.7756" x2="141.512" y2="10.7756" gradientUnits="userSpaceOnUse">
<stop stop-color="#2B3554"/>
<stop offset="0.9358" stop-color="#7C97C8"/>
</linearGradient>
<linearGradient id="paint8_linear_83_8" x1="143.502" y1="14.9822" x2="161.124" y2="29.3912" gradientUnits="userSpaceOnUse">
<stop stop-color="#404F7E"/>
<stop offset="0.9358" stop-color="#7C97C8"/>
</linearGradient>
<linearGradient id="paint9_linear_83_8" x1="20.1637" y1="22.2505" x2="23.957" y2="25.3523" gradientUnits="userSpaceOnUse">
<stop stop-color="#404F7E"/>
<stop offset="0.9358" stop-color="#7C97C8"/>
</linearGradient>
</defs>
</svg>
