<svg width="132" height="346" viewBox="0 0 132 346" fill="none" xmlns="http://www.w3.org/2000/svg">
<path fill-rule="evenodd" clip-rule="evenodd" d="M0.686556 0.5L20.0003 0.500002L92.5003 0.500008L100.5 0.500009V8.50001V55.6866L84.5003 39.6866V16.5L39.314 16.5L60.657 37.843L60.3431 38.1569L112.343 90.1569L112.657 89.843L129.657 106.843L132 109.186V112.5L132 234V237.314L129.657 239.657L116.407 252.907L116.343 252.843L64.3434 304.843L64.4071 304.907L39.3139 330H84.5002V307.314L100.5 291.314V338V346H92.5002H20.0002H0.686523L14.3434 332.343L116 230.686L116 115.814L14.3434 14.1569L0.686556 0.5Z" fill="#2B2323"/>
</svg>
