<svg width="219" height="77" viewBox="0 0 219 77" fill="none" xmlns="http://www.w3.org/2000/svg">
<path d="M203.199 26.3224C200.575 23.6081 198.126 20.7676 195.969 17.8639C195.911 17.8008 195.911 17.7376 195.852 17.6745C194.161 15.4021 192.587 13.1297 191.246 10.9204C191.188 10.8573 191.188 10.7941 191.129 10.731C191.071 10.6679 191.013 10.6048 191.013 10.4785C191.013 10.4785 191.013 10.4785 191.013 10.4154C188.622 6.37552 186.99 2.7144 186.64 0.0632324C185.24 0.505093 183.375 0.88383 181.101 1.32569C180.751 1.38881 180.401 1.45194 179.993 1.51506C179.876 1.51506 179.76 1.57818 179.643 1.57818C179.585 1.57818 179.585 1.57818 179.526 1.57818C177.194 1.95692 174.454 2.33566 171.48 2.7144C171.422 2.7144 171.305 2.7144 171.247 2.7144C168.39 3.03001 165.3 3.34562 162.034 3.66124C146.7 5.04994 127.225 5.93366 109.5 5.93366C91.7748 5.93366 72.3003 4.98682 56.9657 3.66124C53.7005 3.34562 50.6102 3.03001 47.7532 2.7144C47.6949 2.7144 47.5783 2.7144 47.52 2.7144C44.3714 2.39878 41.5727 2.02004 39.1238 1.57818C39.0655 1.57818 39.0072 1.57818 38.8906 1.51506C38.5407 1.45194 38.1326 1.38881 37.7828 1.32569C35.5088 0.946953 33.643 0.505093 32.2436 0.0632324C31.8938 2.77752 30.2612 6.43865 27.8706 10.4154V10.4785C27.8123 10.5416 27.754 10.6048 27.754 10.731C27.6957 10.7941 27.6957 10.8573 27.6374 10.9204C26.2963 13.1297 24.722 15.4021 23.0312 17.6745C22.9728 17.7376 22.9728 17.8008 22.9145 17.8639C20.6989 20.7676 18.3083 23.6081 15.7428 26.2592C15.7428 26.2592 15.7428 26.2592 15.6845 26.3224C10.5535 31.6247 4.95607 36.0433 0 38.0632C13.2356 43.4287 30.9609 66.216 32.3019 76.0001C41.2812 73.2858 69.6182 70.824 96.9641 70.2559L109.442 70.319H112.707H113.756H121.919C124.077 70.3822 126.176 70.4453 128.333 70.5084C129.208 70.5084 130.024 70.5715 130.899 70.5715C131.773 70.5715 132.589 70.6347 133.464 70.6347C134.28 70.6978 135.155 70.6978 135.971 70.7609C136.379 70.7609 136.846 70.824 137.254 70.824C138.07 70.8872 138.945 70.8871 139.761 70.9503C140.169 70.9503 140.636 71.0134 141.044 71.0134C145.65 71.2659 150.081 71.5184 154.338 71.834C154.338 71.834 154.338 71.834 154.396 71.834C169.089 72.9071 181.217 74.422 186.523 76.0632C186.523 76.0632 186.523 76.0632 186.523 76.0001C186.523 76.0001 186.523 75.937 186.523 75.8739C188.039 66.0267 205.589 43.4287 218.767 38.1264C213.869 36.0433 208.33 31.6247 203.199 26.3224ZM199.642 38.0632C199.176 38.5051 193.753 43.6812 188.681 49.236C184.599 54.0333 181.742 58.6413 178.477 64.4486C168.39 63.6911 159.411 63.1862 151.364 62.8074C149.44 62.7443 147.516 62.618 145.708 62.5549C144.834 62.5549 143.901 62.4918 143.026 62.4918C141.219 62.4287 139.47 62.3656 137.72 62.3656C137.312 62.3656 136.846 62.3656 136.438 62.3656C130.957 62.2393 125.943 62.1762 121.336 62.1762C120.812 62.1762 120.287 62.1762 119.762 62.1762C116.03 62.1762 112.59 62.1762 109.325 62.1762H109.267C105.535 62.1762 101.512 62.1762 97.1973 62.1762C96.6725 62.1762 96.1478 62.1762 95.6813 62.1762C91.5415 62.1762 87.0519 62.2393 82.2125 62.3656C81.8043 62.3656 81.3962 62.3656 80.9297 62.3656C79.2388 62.4287 77.4313 62.4287 75.6238 62.4918C74.7492 62.4918 73.8746 62.5549 72.9417 62.5549C71.1342 62.618 69.2101 62.6812 67.2859 62.8074C59.1813 63.123 50.2021 63.6911 40.1733 64.4486C36.9665 58.6413 34.0511 54.0333 29.9697 49.236C27.3458 46.2061 20.2324 39.0732 19.2412 38.1264C19.1829 38.0632 19.1246 38.0001 19.1246 38.0001L19.1829 37.937C19.9409 37.1795 26.5879 30.741 30.0863 26.8274C34.1677 21.9669 37.0248 17.422 40.2899 11.6147C72.242 14.0765 93.349 13.9503 109.442 13.9503C125.534 13.9503 146.641 14.0765 178.593 11.6147C181.8 17.422 184.716 22.03 188.797 26.8274C193.462 32.0666 199.292 37.6845 199.642 38.0632C199.7 38.0632 199.7 38.0001 199.642 38.0632C199.7 38.0632 199.7 38.0632 199.642 38.0632Z" fill="url(#paint0_linear_40_109)"/>
<path d="M13.6438 38.0632H0C13.2356 43.4287 30.9609 66.2161 32.3019 76.0001C32.3019 76.0001 36.0919 71.5184 38.6574 68.3622C33.9928 54.9171 16.3842 39.3257 13.6438 38.0632Z" fill="url(#paint1_linear_40_109)"/>
<path d="M180.285 68.3622C180.285 68.3622 153.988 65.3323 112.124 65.3323C70.2597 65.3323 38.7158 68.3622 38.7158 68.3622C38.7158 68.3622 35.1008 72.9701 32.3604 76C41.3396 73.2858 69.6766 70.824 97.0225 70.2559H112.94H121.978C149.382 70.824 177.661 73.2858 186.64 76C183.9 72.907 180.285 68.3622 180.285 68.3622Z" fill="url(#paint2_radial_40_109)"/>
<path d="M205.356 38.0632H219C205.765 43.4287 188.039 66.2161 186.698 76.0001C186.698 76.0001 182.908 71.5184 180.343 68.3622C185.066 54.9171 202.616 39.3257 205.356 38.0632Z" fill="url(#paint3_linear_40_109)"/>
<path d="M202.499 35.5384C198.884 32.1929 195.852 29.2261 193.287 26.4487L192.937 26.0699C192.529 25.565 192.062 25.1231 191.654 24.6181C191.538 24.555 191.479 24.4287 191.421 24.3025C188.797 21.2726 186.581 18.3058 184.599 15.2128C184.541 15.1497 184.482 15.0866 184.482 15.0234C184.424 14.8972 184.366 14.8341 184.308 14.7078C183.258 13.0035 182.208 11.2992 181.159 9.40549L180.226 7.70117L178.36 7.82742C150.431 9.9736 131.248 10.6048 113.931 10.6048H104.894C87.635 10.6048 68.4521 9.9736 40.4648 7.82742L38.599 7.70117L37.6661 9.40549C36.6166 11.2361 35.6254 13.0035 34.5176 14.7078C34.4593 14.8341 34.4009 14.8972 34.3426 15.0234C32.3019 18.2427 30.0862 21.2095 27.4041 24.3025C27.3458 24.4287 27.2292 24.4919 27.1709 24.6181C26.7628 25.1231 26.3546 25.565 25.8882 26.0699C25.7716 26.1962 25.6549 26.3224 25.5383 26.4487C22.9728 29.2892 19.9409 32.256 16.3259 35.5384L13.5854 38.0002L16.3259 40.5251C27.1709 50.4985 32.4768 57.1895 37.6661 66.5949L38.599 68.2992H38.7156L40.4648 68.1729C50.6685 67.4155 59.6478 66.7842 67.869 66.4055C68.2188 66.4055 68.627 66.3424 68.9768 66.3424C79.0056 65.8374 87.8682 65.5849 96.0311 65.4586H96.5559C102.212 65.4586 114.223 65.4586 122.794 65.4586C137.837 65.648 155.038 66.4055 178.302 68.1729L180.168 68.2992L180.692 67.3523L181.101 66.5949C186.348 57.1264 191.596 50.4354 202.441 40.5251L204.89 38.3158L205.181 38.0633L202.499 35.5384ZM178.535 64.5118C168.448 63.7543 159.469 63.2493 151.423 62.8706C149.498 62.8075 147.574 62.6812 145.767 62.6181C144.892 62.6181 143.959 62.555 143.085 62.555C141.277 62.4919 139.528 62.4287 137.779 62.4287C137.371 62.4287 136.904 62.4287 136.496 62.4287C131.015 62.3025 126.001 62.2394 121.395 62.2394C120.87 62.2394 120.345 62.2394 119.82 62.2394C116.089 62.2394 112.649 62.2394 109.383 62.2394H109.325C105.593 62.2394 101.57 62.2394 97.2556 62.2394C96.7308 62.2394 96.2061 62.2394 95.7396 62.2394C91.5998 62.2394 87.1102 62.3025 82.2708 62.4287C81.8626 62.4287 81.4545 62.4287 80.988 62.4287C79.2971 62.4919 77.4896 62.4919 75.6821 62.555C74.8075 62.555 73.9329 62.6181 73 62.6181C71.1925 62.6812 69.2684 62.7444 67.3442 62.8706C59.2396 63.1862 50.2604 63.7543 40.2316 64.5118C37.0247 58.7045 34.1094 54.0965 30.0279 49.2992C26.2963 44.7543 20.1741 39.0101 19.2412 38.1264C19.1829 38.0633 19.1246 38.0002 19.1246 38.0002L19.1829 37.9371C19.2412 37.9371 19.2412 37.8739 19.2995 37.8739C20.1158 37.1165 23.7891 33.7709 27.1126 30.2361C27.2875 30.0467 27.4041 29.9204 27.5791 29.7311C28.4537 28.7842 29.3283 27.7743 30.1446 26.8274C34.226 21.967 37.0831 17.4221 40.3482 11.6148C72.3003 14.0766 93.4073 13.9503 109.5 13.9503C125.593 13.9503 146.7 14.0766 178.652 11.6148C181.859 17.4221 184.774 22.0301 188.855 26.8274C193.462 32.1297 198.709 37.0533 199.642 37.8739C199.7 37.9371 199.7 37.9371 199.759 38.0002H199.817C199.409 38.3158 195.153 41.9138 188.855 49.1729C184.657 54.0965 181.8 58.6414 178.535 64.5118Z" fill="url(#paint4_linear_40_109)"/>
<path d="M199.7 38.0632C199.292 38.3789 194.978 41.9769 188.739 49.2991C184.657 54.0965 181.8 58.7044 178.535 64.5118C168.448 63.7543 159.469 63.2493 151.422 62.8706C149.498 62.8074 147.574 62.6812 145.767 62.6181C144.892 62.6181 143.959 62.5549 143.085 62.5549C141.277 62.4918 139.528 62.4287 137.779 62.4287C137.371 62.4287 136.904 62.4287 136.496 62.4287C131.015 62.3025 126.001 62.2393 121.394 62.2393C120.87 62.2393 120.345 62.2393 119.82 62.2393C116.089 62.2393 112.648 62.2393 109.383 62.2393H109.325C105.593 62.2393 101.57 62.2393 97.2555 62.2393C96.7308 62.2393 96.206 62.2393 95.7395 62.2393C91.5998 62.2393 87.1101 62.3025 82.2707 62.4287C81.8625 62.4287 81.4544 62.4287 80.9879 62.4287C79.297 62.4918 77.4895 62.4918 75.682 62.5549C74.8074 62.5549 73.9328 62.6181 72.9999 62.6181C71.1924 62.6812 69.2683 62.7443 67.3442 62.8706C59.2395 63.1862 50.2603 63.7543 40.2315 64.5118C37.0247 58.7044 34.1093 54.0965 30.0279 49.2991C26.2962 44.7543 20.174 39.0101 19.2411 38.1264C19.1828 38.0632 19.1245 38.0001 19.1245 38.0001L19.1828 37.937C19.2411 37.937 19.2411 37.8739 19.2994 37.8739C21.8066 35.6646 24.547 32.9503 27.1125 30.236C27.2875 30.0466 27.4041 29.9204 27.579 29.731C28.4536 28.7842 29.3282 27.7742 30.1445 26.8274C34.226 21.9669 37.083 17.4221 40.3482 11.6147C72.3002 14.0765 93.4073 13.9503 109.5 13.9503C125.593 13.9503 146.7 14.0765 178.652 11.6147C181.859 17.4221 184.774 22.03 188.855 26.8274C192.062 30.6779 196.085 34.7809 199.642 37.8739C199.584 37.937 199.584 37.937 199.7 38.0632C199.642 38.0001 199.642 38.0001 199.7 38.0632Z" fill="url(#paint5_radial_40_109)"/>
<path d="M109.442 10.6678V13.9502C93.3492 13.9502 72.3004 14.0765 40.2901 11.6147L38.6575 7.76416L40.5233 7.89041C68.4522 10.0366 87.6351 10.6678 104.952 10.6678H109.442Z" fill="url(#paint6_linear_40_109)"/>
<path d="M186.523 0.126343C182.15 4.16621 174.22 7.76422 161.918 3.72435C172.121 2.65126 177.835 2.33564 186.523 0.126343Z" fill="white"/>
<path d="M180.168 7.76416L178.535 11.6147C146.583 14.0765 125.476 13.9502 109.383 13.9502V10.6678H113.931C131.19 10.6678 150.373 10.0366 178.36 7.89041L180.168 7.76416Z" fill="url(#paint7_linear_40_109)"/>
<path d="M151.422 62.8705C150.956 62.8705 116.438 64.5117 109.442 64.5117V62.1761C112.707 62.1761 116.147 62.1761 119.879 62.1761C120.403 62.1761 120.928 62.1761 121.453 62.1761C126.059 62.1761 131.073 62.2393 136.554 62.3655C136.962 62.3655 137.371 62.3655 137.837 62.3655C139.528 62.4286 141.335 62.4286 143.143 62.4918C144.018 62.4918 144.892 62.5549 145.825 62.5549C147.633 62.6811 149.498 62.7443 151.422 62.8705Z" fill="white"/>
<path d="M109.442 64.5118C102.853 64.5118 68.1023 62.9337 67.4026 62.8706C69.3267 62.8075 71.1925 62.6812 73.0583 62.6181C73.9329 62.6181 74.8658 62.555 75.7404 62.555C77.548 62.4919 79.2972 62.4287 81.0464 62.4287C81.4545 62.4287 81.921 62.4287 82.3291 62.4287C87.1686 62.3025 91.6582 62.2394 95.798 62.2394C96.3227 62.2394 96.8475 62.2394 97.3139 62.2394C101.629 62.2394 105.652 62.2394 109.383 62.2394L109.442 64.5118Z" fill="white"/>
<path opacity="0.5" d="M184.249 14.771C192.179 20.7045 196.785 21.5883 190.955 10.5417C194.278 16.2228 198.185 20.8308 203.316 26.4487C192.879 20.0733 185.59 17.8009 193.287 26.4487C189.497 22.4089 185.066 15.9703 184.249 14.771Z" fill="white"/>
<path d="M205.181 38.0633H199.642C199.642 38.0633 199.642 38.0633 199.584 38.0633C199.526 38.0001 199.526 38.0002 199.467 37.937C195.911 34.844 191.887 30.6779 188.68 26.8905C184.599 22.0301 181.742 17.4852 178.477 11.6779L180.109 7.82739L181.042 9.53171C182.092 11.3623 183.083 13.1297 184.191 14.834C184.249 14.9603 184.307 15.0234 184.366 15.1497C184.424 15.2128 184.424 15.2759 184.482 15.339C186.523 18.4952 188.68 21.3988 191.304 24.4287C191.363 24.555 191.479 24.6181 191.538 24.7443C191.946 25.2493 192.354 25.6912 192.82 26.1962L193.17 26.5749C195.736 29.4154 198.768 32.3822 202.383 35.6646L205.181 38.0633Z" fill="url(#paint8_linear_40_109)"/>
<path d="M32.302 0.126343C36.675 4.16621 44.6047 7.76422 56.9074 3.72435C46.7038 2.65126 41.048 2.33564 32.302 0.126343Z" fill="white"/>
<path opacity="0.5" d="M34.5759 14.7709C26.6461 20.7044 22.0982 21.5882 27.9289 10.4785C24.6054 16.1596 20.6989 20.7676 15.5679 26.3855C25.9465 20.0732 33.2348 17.8008 25.5966 26.4486C29.3283 22.4087 33.8179 15.9702 34.5759 14.7709Z" fill="white"/>
<path d="M40.29 11.6147C37.0831 17.422 34.1678 22.0299 30.0863 26.8273C29.27 27.7741 28.4537 28.7841 27.5208 29.7309C27.3459 29.9203 27.2293 30.0466 27.0543 30.2359C24.5472 33.0133 21.8067 35.6645 19.2412 37.8738C19.2996 37.9369 19.2412 37.9369 19.2412 38L19.1829 38.0632H13.6438L16.3842 35.6014C19.9992 32.2559 23.0312 29.2891 25.5967 26.5117C25.7133 26.3854 25.8299 26.2592 25.9465 26.1329C26.3547 25.6279 26.8211 25.1861 27.2293 24.6811C27.2876 24.618 27.4042 24.4917 27.4625 24.3655C30.1446 21.2725 32.3603 18.2426 34.401 15.0864C34.4593 14.9602 34.5176 14.8971 34.5759 14.7708C35.6254 13.0665 36.6749 11.3622 37.7245 9.46848L38.6574 7.76416L40.29 11.6147Z" fill="url(#paint9_linear_40_109)"/>
<path d="M179.41 2.46188C180.401 2.27251 181.217 1.89378 181.159 1.57816C181.159 1.51504 181.101 1.45192 180.984 1.38879C179.818 1.57816 178.71 1.83065 177.602 1.9569C177.544 2.02002 177.486 2.14627 177.486 2.20939C177.544 2.52501 178.419 2.65125 179.41 2.46188Z" fill="white"/>
<path d="M39.4155 2.46188C38.4243 2.27251 37.608 1.89378 37.6663 1.57816C37.6663 1.51504 37.7246 1.45192 37.8412 1.38879C39.0073 1.57816 40.1152 1.76753 41.223 1.9569C41.2813 2.02002 41.3396 2.14627 41.3396 2.20939C41.2813 2.52501 40.4067 2.65125 39.4155 2.46188Z" fill="white"/>
<path d="M54.2801 32.7429C54.0457 32.1765 53.9285 31.5076 53.9285 30.7361C53.9285 29.9646 53.9578 29.3347 54.0164 28.8464C54.075 28.3484 54.1531 27.8992 54.2508 27.4988C54.4852 26.6003 54.7732 26.1511 55.115 26.1511H68.0203C68.5867 26.1511 68.9676 26.991 69.1629 28.6707C69.2117 29.1394 69.2361 29.6228 69.2361 30.1208C69.2361 31.2927 69.1092 32.1667 68.8553 32.7429C68.0154 30.1355 66.9266 28.4656 65.5887 27.7332C65.2859 27.5574 64.9881 27.4695 64.6951 27.4695C64.4021 27.4695 64.1727 27.5476 64.0066 27.7039C63.8406 27.8503 63.7039 28.0896 63.5965 28.4216C63.4207 29.0076 63.3328 29.7107 63.3328 30.531V36.0242L63.3475 40.5066V44.7546C63.3475 45.7117 63.4695 46.4197 63.7137 46.8787C63.9676 47.3279 64.2215 47.6697 64.4754 47.9041C64.7391 48.1384 65.0467 48.3582 65.3982 48.5632H57.9129C58.616 47.9871 59.0652 47.5134 59.2605 47.1423C59.6219 46.4685 59.8025 45.6726 59.8025 44.7546V31.5564C59.8025 30.0232 59.7439 29.0369 59.6268 28.5974C59.5096 28.1482 59.368 27.8503 59.202 27.7039C59.0359 27.5476 58.8064 27.4695 58.5135 27.4695C58.2205 27.4695 57.9227 27.5574 57.6199 27.7332C57.3172 27.8992 57.0193 28.1238 56.7264 28.407C56.4432 28.6804 56.1697 29.0027 55.9061 29.3738C55.6521 29.7351 55.4178 30.1111 55.2029 30.5017C54.783 31.2732 54.4754 32.0203 54.2801 32.7429ZM82.2949 40.741L82.251 43.5535C82.251 45.3015 82.4121 46.4929 82.7344 47.1277C82.9297 47.5085 83.1592 47.8015 83.4229 48.0066L84.1113 48.5632H79.8633L79.4092 46.864C78.3057 48.1921 76.7334 48.8562 74.6924 48.8562C73.5303 48.8562 72.5928 48.4656 71.8799 47.6843C71.2549 46.9812 70.9424 46.1511 70.9424 45.1941C70.9424 44.2371 71.167 43.4021 71.6162 42.6892C72.0752 41.9763 72.6758 41.3855 73.418 40.9167C74.8828 40.0085 76.7236 39.5349 78.9404 39.4958V39.3347C78.9404 36.9617 78.5742 35.5701 77.8418 35.1599C77.5781 35.0134 77.2363 34.9402 76.8164 34.9402C76.4062 34.9402 75.9961 35.0769 75.5859 35.3503C75.1758 35.6238 74.8047 35.9753 74.4727 36.405C73.8086 37.2742 73.335 38.2996 73.0518 39.4812C72.1826 38.9636 71.748 37.9724 71.748 36.5076C71.748 35.9119 71.8262 35.2429 71.9824 34.5007C72.3535 34.5007 72.7051 34.447 73.0371 34.3396L74.165 33.988C75.2686 33.6462 76.3477 33.4753 77.4023 33.4753C78.457 33.4753 79.2969 33.6316 79.9219 33.9441C80.5566 34.2566 81.0498 34.7205 81.4014 35.3357C81.9971 36.3806 82.2949 38.1824 82.2949 40.741ZM74.1064 45.4871C74.1064 46.0925 74.2432 46.5613 74.5166 46.8933C74.7998 47.2253 75.1514 47.3914 75.5713 47.3914C75.9912 47.3914 76.3965 47.2839 76.7871 47.0691C77.1777 46.8445 77.5293 46.5417 77.8418 46.1609C78.5742 45.2917 78.9404 44.2712 78.9404 43.0994V40.9314C77.5732 41.0583 76.4453 41.5125 75.5566 42.2937C74.5898 43.1335 74.1064 44.198 74.1064 45.4871ZM91.2375 29.8279C91.0422 30.1501 90.8029 30.4236 90.5197 30.6482C90.2365 30.863 89.9143 30.9705 89.5529 30.9705C89.1916 30.9705 88.8693 30.863 88.5861 30.6482C88.3029 30.4236 88.0637 30.1501 87.8684 29.8279C87.468 29.1638 87.2678 28.4607 87.2678 27.7185C87.2678 26.8201 87.6779 26.2195 88.4982 25.9167C88.7912 25.8093 89.1477 25.7556 89.5676 25.7556C90.7297 25.7556 91.4523 26.1658 91.7355 26.9861C91.8234 27.2205 91.8674 27.4841 91.8674 27.7771C91.8674 28.0603 91.8137 28.3923 91.7063 28.7732C91.5988 29.1541 91.4426 29.5056 91.2375 29.8279ZM87.2678 48.5632C87.717 47.0203 87.9416 44.3689 87.9416 40.6091C87.9416 37.9626 87.7072 36.1414 87.2385 35.1453C87.1213 34.8914 86.9895 34.657 86.843 34.4421L86.3596 33.7683H91.5598C91.1301 35.3796 90.9152 37.865 90.9152 41.2244C90.9152 44.574 91.1398 47.0203 91.5891 48.5632H87.2678ZM99.6967 41.8542C99.6967 45.0183 99.8871 47.2546 100.268 48.5632H95.9467C96.2201 47.616 96.391 46.4978 96.4594 45.2087C96.6059 42.0935 96.6791 39.6765 96.6791 37.9578C96.6791 36.239 96.6742 35.0867 96.6645 34.5007C96.6547 33.905 96.6449 33.3093 96.6352 32.7136C96.5766 30.5945 96.474 29.2615 96.3275 28.7146C96.1908 28.158 96.059 27.7576 95.932 27.5134C95.8148 27.2595 95.6781 27.03 95.5219 26.825L95.0385 26.1511H100.385C100.112 27.1375 99.9506 28.0847 99.9018 28.9929C99.8627 29.8914 99.8285 30.6873 99.7992 31.3806C99.7797 32.074 99.7602 32.7966 99.7406 33.5486C99.7211 34.7986 99.7113 36.2878 99.7113 38.0164L99.6967 41.8542ZM116.154 33.7683C115.744 34.4421 115.539 35.4529 115.539 36.8005C115.539 37.1228 115.636 37.6306 115.832 38.324C116.3 39.8962 116.637 40.9949 116.842 41.6199L117.941 44.8132C118.4 43.4558 118.732 42.4402 118.937 41.7664C119.904 38.5437 120.387 36.7322 120.387 36.3318C120.387 35.9314 120.368 35.6287 120.329 35.4236C120.29 35.2087 120.236 35.0085 120.168 34.823C120.05 34.5593 119.821 34.2078 119.479 33.7683H124.386C123.781 34.4226 123.361 35.0427 123.127 35.6287C122.892 36.2048 122.716 36.6443 122.599 36.947L120.783 42.0447C120.334 43.4119 120.011 44.4275 119.816 45.0916C119.699 45.6189 119.64 46.1804 119.64 46.7761C119.64 47.3718 119.767 47.9724 120.021 48.5779L114.601 48.5632C114.836 48.1921 114.972 47.8455 115.011 47.5232C115.06 47.1912 115.085 46.8689 115.085 46.5564C115.085 46.2439 115.036 45.8582 114.938 45.3992C114.84 44.9402 114.709 44.4128 114.543 43.8171C114.211 42.5769 113.791 41.2537 113.283 39.8474C112.336 42.2693 111.764 43.8757 111.569 44.6667C111.374 45.448 111.276 46.1414 111.276 46.7468C111.276 47.3425 111.408 47.9529 111.671 48.5779L106.252 48.5632C106.486 48.1921 106.623 47.8455 106.662 47.5232C106.711 47.1912 106.735 46.8542 106.735 46.5125C106.735 46.1609 106.662 45.658 106.515 45.0037C106.379 44.3494 106.193 43.6072 105.959 42.7771C105.724 41.947 105.456 41.073 105.153 40.155C104.85 39.2273 104.533 38.3435 104.201 37.5037C103.449 35.5994 102.814 34.3542 102.296 33.7683H107.702C107.526 34.198 107.438 34.6716 107.438 35.1892C107.438 35.7068 107.472 36.1609 107.541 36.5515C107.619 36.9324 107.716 37.3767 107.834 37.8845C107.961 38.3923 108.107 38.9392 108.273 39.5251L109.738 44.6667C111.134 41.1316 111.911 39.0271 112.067 38.3533C112.223 37.6697 112.301 37.2302 112.301 37.0349C112.301 35.7751 111.979 34.6863 111.335 33.7683H116.154ZM130.809 29.8279C130.614 30.1501 130.375 30.4236 130.092 30.6482C129.808 30.863 129.486 30.9705 129.125 30.9705C128.763 30.9705 128.441 30.863 128.158 30.6482C127.875 30.4236 127.636 30.1501 127.44 29.8279C127.04 29.1638 126.84 28.4607 126.84 27.7185C126.84 26.8201 127.25 26.2195 128.07 25.9167C128.363 25.8093 128.72 25.7556 129.139 25.7556C130.302 25.7556 131.024 26.1658 131.307 26.9861C131.395 27.2205 131.439 27.4841 131.439 27.7771C131.439 28.0603 131.386 28.3923 131.278 28.7732C131.171 29.1541 131.014 29.5056 130.809 29.8279ZM126.84 48.5632C127.289 47.0203 127.513 44.3689 127.513 40.6091C127.513 37.9626 127.279 36.1414 126.81 35.1453C126.693 34.8914 126.561 34.657 126.415 34.4421L125.931 33.7683H131.132C130.702 35.3796 130.487 37.865 130.487 41.2244C130.487 44.574 130.712 47.0203 131.161 48.5632H126.84ZM135.357 48.5632C135.807 47.0203 136.031 44.3689 136.031 40.6091C136.031 37.9333 135.797 36.1072 135.328 35.1306C135.211 34.8865 135.079 34.657 134.933 34.4421L134.449 33.7683H139.532C139.386 34.2566 139.288 34.7156 139.239 35.1453L139.122 36.2C140.304 34.3835 141.808 33.4753 143.634 33.4753C144.815 33.4753 145.738 33.9343 146.402 34.8523C147.047 35.7507 147.369 36.9666 147.369 38.4998V40.0671C147.369 42.7527 147.394 44.3933 147.442 44.989C147.491 45.5847 147.53 46.0388 147.56 46.3513C147.589 46.6638 147.623 46.9421 147.662 47.1863C147.73 47.6453 147.833 48.1042 147.97 48.5632H143.678C144.127 47.0203 144.352 44.3689 144.352 40.6091C144.352 39.1052 144.254 38.075 144.059 37.5183C143.873 36.9617 143.648 36.5662 143.385 36.3318C143.121 36.0876 142.774 35.9656 142.345 35.9656C141.554 35.9656 140.836 36.2781 140.191 36.9031C139.635 37.4402 139.21 38.1238 138.917 38.9539C138.897 39.2175 138.888 39.491 138.888 39.7742V40.6091C138.888 44.3689 139.112 47.0203 139.562 48.5632H135.357ZM160.428 47.406C159.363 48.3728 158.011 48.8562 156.37 48.8562C154.866 48.8562 153.68 48.4216 152.811 47.5525C151.912 46.6541 151.463 45.3894 151.463 43.7585C151.463 42.1179 151.702 40.6873 152.181 39.4666C152.659 38.2361 153.289 37.2058 154.071 36.3757C155.613 34.7351 157.508 33.8708 159.754 33.783C159.676 30.7751 159.573 29.0515 159.446 28.6121C159.329 28.1628 159.207 27.8113 159.08 27.5574C158.963 27.2937 158.826 27.0544 158.67 26.8396L158.172 26.1511H163.519C163.245 27.1375 163.084 28.0945 163.035 29.0222C162.996 29.95 162.967 30.7654 162.947 31.4685C162.928 32.1716 162.913 32.9089 162.904 33.6804C162.874 34.9695 162.86 36.2537 162.86 37.533C162.86 38.8025 162.86 39.7644 162.86 40.4187C162.869 41.073 162.884 41.6931 162.904 42.2791C162.952 44.4763 163.035 45.7849 163.153 46.2048C163.27 46.615 163.387 46.947 163.504 47.2009C163.631 47.4451 163.773 47.6746 163.929 47.8894L164.427 48.5632H160.633L160.428 47.406ZM159.769 43.1873C159.818 41.6833 159.842 40.2771 159.842 38.9685C159.842 37.6501 159.827 36.3953 159.798 35.2039C158.382 35.4187 157.249 36.2537 156.4 37.7087C155.55 39.1541 155.125 40.9753 155.125 43.1726C155.125 44.4714 155.223 45.3796 155.418 45.8972C155.623 46.4148 155.863 46.7957 156.136 47.0398C156.419 47.2742 156.756 47.3914 157.147 47.3914C157.547 47.3914 157.894 47.3132 158.187 47.157C158.489 46.991 158.753 46.7517 158.978 46.4392C159.466 45.7751 159.73 44.6912 159.769 43.1873Z" fill="#CCA2A2"/>
<defs>
<linearGradient id="paint0_linear_40_109" x1="109.424" y1="75.9496" x2="109.424" y2="0.12636" gradientUnits="userSpaceOnUse">
<stop offset="0.0139665" stop-color="#737FBA"/>
<stop offset="1" stop-color="#C4E1F5"/>
</linearGradient>
<linearGradient id="paint1_linear_40_109" x1="14.451" y1="44.8884" x2="30.815" y2="65.7373" gradientUnits="userSpaceOnUse">
<stop stop-color="#404F7E"/>
<stop offset="0.9358" stop-color="#7C97C8"/>
</linearGradient>
<radialGradient id="paint2_radial_40_109" cx="0" cy="0" r="1" gradientUnits="userSpaceOnUse" gradientTransform="translate(109.461 70.639) scale(54.6718 59.1878)">
<stop offset="0.0642458" stop-color="#7C97C8"/>
<stop offset="1" stop-color="#2B3554"/>
</radialGradient>
<linearGradient id="paint3_linear_40_109" x1="204.569" y1="44.8884" x2="188.205" y2="65.7373" gradientUnits="userSpaceOnUse">
<stop stop-color="#404F7E"/>
<stop offset="0.9358" stop-color="#7C97C8"/>
</linearGradient>
<linearGradient id="paint4_linear_40_109" x1="109.421" y1="68.3307" x2="109.421" y2="7.74536" gradientUnits="userSpaceOnUse">
<stop stop-color="#C4E1F5"/>
<stop offset="0.986" stop-color="#737FBA"/>
</linearGradient>
<radialGradient id="paint5_radial_40_109" cx="0" cy="0" r="1" gradientUnits="userSpaceOnUse" gradientTransform="translate(109.421 38.038) scale(77.575 83.9828)">
<stop stop-color="#D50C10"/>
<stop offset="1" stop-color="#3F0005"/>
</radialGradient>
<linearGradient id="paint6_linear_40_109" x1="38.6597" y1="10.8388" x2="109.421" y2="10.8388" gradientUnits="userSpaceOnUse">
<stop stop-color="#2B3554"/>
<stop offset="0.9358" stop-color="#7C97C8"/>
</linearGradient>
<linearGradient id="paint7_linear_40_109" x1="109.421" y1="10.8388" x2="180.182" y2="10.8388" gradientUnits="userSpaceOnUse">
<stop stop-color="#2B3554"/>
<stop offset="0.9358" stop-color="#7C97C8"/>
</linearGradient>
<linearGradient id="paint8_linear_40_109" x1="182.716" y1="15.0454" x2="200.68" y2="33.7493" gradientUnits="userSpaceOnUse">
<stop stop-color="#404F7E"/>
<stop offset="0.9358" stop-color="#7C97C8"/>
</linearGradient>
<linearGradient id="paint9_linear_40_109" x1="25.6733" y1="22.3137" x2="29.5406" y2="26.34" gradientUnits="userSpaceOnUse">
<stop stop-color="#404F7E"/>
<stop offset="0.9358" stop-color="#7C97C8"/>
</linearGradient>
</defs>
</svg>
