<svg width="188" height="77" viewBox="0 0 188 77" fill="none" xmlns="http://www.w3.org/2000/svg">
<path d="M174.436 26.3224C172.183 23.6081 170.081 20.7676 168.229 17.8639C168.179 17.8008 168.179 17.7376 168.129 17.6745C166.677 15.4021 165.326 13.1297 164.175 10.9204C164.125 10.8573 164.125 10.7941 164.075 10.731C164.024 10.6679 163.974 10.6048 163.974 10.4785C163.974 10.4785 163.974 10.4785 163.974 10.4154C161.922 6.37552 160.521 2.7144 160.22 0.0632324C159.019 0.505093 157.417 0.88383 155.465 1.32569C155.165 1.38881 154.865 1.45194 154.514 1.51506C154.414 1.51506 154.314 1.57818 154.214 1.57818C154.164 1.57818 154.164 1.57818 154.114 1.57818C152.112 1.95692 149.759 2.33566 147.207 2.7144C147.157 2.7144 147.056 2.7144 147.006 2.7144C144.554 3.03001 141.901 3.34562 139.098 3.66124C125.934 5.04994 109.216 5.93366 94 5.93366C78.7838 5.93366 62.066 4.98682 48.902 3.66124C46.099 3.34562 43.4462 3.03001 40.9936 2.7144C40.9436 2.7144 40.8435 2.7144 40.7934 2.7144C38.0905 2.39878 35.688 2.02004 33.5857 1.57818C33.5357 1.57818 33.4856 1.57818 33.3855 1.51506C33.0852 1.45194 32.7348 1.38881 32.4345 1.32569C30.4824 0.946953 28.8807 0.505093 27.6794 0.0632324C27.3791 2.77752 25.9776 6.43865 23.9255 10.4154V10.4785C23.8754 10.5416 23.8253 10.6048 23.8253 10.731C23.7753 10.7941 23.7753 10.8573 23.7252 10.9204C22.574 13.1297 21.2226 15.4021 19.771 17.6745C19.721 17.7376 19.721 17.8008 19.6709 17.8639C17.7689 20.7676 15.7167 23.6081 13.5144 26.2592C13.5144 26.2592 13.5144 26.2592 13.4643 26.3224C9.05964 31.6247 4.25453 36.0433 0 38.0632C11.3621 43.4287 26.5783 66.216 27.7295 76.0001C35.4377 73.2858 59.7636 70.824 83.2386 70.2559L93.95 70.319H96.7529H97.6539H104.661C106.513 70.3822 108.315 70.4453 110.167 70.5084C110.918 70.5084 111.619 70.5715 112.37 70.5715C113.12 70.5715 113.821 70.6347 114.572 70.6347C115.273 70.6978 116.023 70.6978 116.724 70.7609C117.075 70.7609 117.475 70.824 117.825 70.824C118.526 70.8872 119.277 70.8871 119.978 70.9503C120.328 70.9503 120.728 71.0134 121.079 71.0134C125.033 71.2659 128.837 71.5184 132.491 71.834C132.491 71.834 132.491 71.834 132.541 71.834C145.154 72.9071 155.566 74.422 160.12 76.0632C160.12 76.0632 160.12 76.0632 160.12 76.0001C160.12 76.0001 160.12 75.937 160.12 75.8739C161.422 66.0267 176.488 43.4287 187.8 38.1264C183.595 36.0433 178.84 31.6247 174.436 26.3224ZM171.382 38.0632C170.982 38.5051 166.327 43.6812 161.972 49.236C158.469 54.0333 156.016 58.6413 153.213 64.4486C144.554 63.6911 136.846 63.1862 129.938 62.8074C128.286 62.7443 126.635 62.618 125.083 62.5549C124.332 62.5549 123.531 62.4918 122.781 62.4918C121.229 62.4287 119.727 62.3656 118.226 62.3656C117.875 62.3656 117.475 62.3656 117.125 62.3656C112.42 62.2393 108.115 62.1762 104.161 62.1762C103.71 62.1762 103.26 62.1762 102.809 62.1762C99.606 62.1762 96.6528 62.1762 93.8498 62.1762H93.7998C90.5964 62.1762 87.1427 62.1762 83.4388 62.1762C82.9883 62.1762 82.5378 62.1762 82.1374 62.1762C78.5836 62.1762 74.7295 62.2393 70.5751 62.3656C70.2247 62.3656 69.8743 62.3656 69.4739 62.3656C68.0224 62.4287 66.4707 62.4287 64.9191 62.4918C64.1683 62.4918 63.4175 62.5549 62.6166 62.5549C61.065 62.618 59.4132 62.6812 57.7615 62.8074C50.8041 63.123 43.0959 63.6911 34.4867 64.4486C31.7338 58.6413 29.2311 54.0333 25.7274 49.236C23.475 46.2061 17.3685 39.0732 16.5176 38.1264C16.4675 38.0632 16.4175 38.0001 16.4175 38.0001L16.4675 37.937C17.1182 37.1795 22.8243 30.741 25.8275 26.8274C29.3312 21.9669 31.7838 17.422 34.5868 11.6147C62.016 14.0765 80.1353 13.9503 93.95 13.9503C107.765 13.9503 125.884 14.0765 153.313 11.6147C156.066 17.422 158.569 22.03 162.072 26.8274C166.077 32.0666 171.082 37.6845 171.382 38.0632C171.432 38.0632 171.432 38.0001 171.382 38.0632C171.432 38.0632 171.432 38.0632 171.382 38.0632Z" fill="url(#paint0_linear_40_172)"/>
<path d="M11.7125 38.0632H0C11.3621 43.4287 26.5783 66.2161 27.7295 76.0001C27.7295 76.0001 30.983 71.5184 33.1853 68.3622C29.181 54.9171 14.065 39.3257 11.7125 38.0632Z" fill="url(#paint1_linear_40_172)"/>
<path d="M154.765 68.3622C154.765 68.3622 132.191 65.3323 96.2524 65.3323C60.3142 65.3323 33.2353 68.3622 33.2353 68.3622C33.2353 68.3622 30.132 72.9701 27.7795 76C35.4877 73.2858 59.8136 70.824 83.2886 70.2559H96.9531H104.711C128.236 70.824 152.512 73.2858 160.22 76C157.868 72.907 154.765 68.3622 154.765 68.3622Z" fill="url(#paint2_radial_40_172)"/>
<path d="M176.288 38.0632H188C176.638 43.4287 161.422 66.2161 160.271 76.0001C160.271 76.0001 157.017 71.5184 154.815 68.3622C158.869 54.9171 173.935 39.3257 176.288 38.0632Z" fill="url(#paint3_linear_40_172)"/>
<path d="M173.835 35.5384C170.732 32.1929 168.129 29.2261 165.926 26.4487L165.626 26.0699C165.276 25.565 164.875 25.1231 164.525 24.6181C164.425 24.555 164.375 24.4287 164.325 24.3025C162.072 21.2726 160.17 18.3058 158.469 15.2128C158.418 15.1497 158.368 15.0866 158.368 15.0234C158.318 14.8972 158.268 14.8341 158.218 14.7078C157.317 13.0035 156.416 11.2992 155.515 9.40549L154.715 7.70117L153.113 7.82742C129.137 9.9736 112.67 10.6048 97.804 10.6048H90.0457C75.23 10.6048 58.7625 9.9736 34.7369 7.82742L33.1352 7.70117L32.3343 9.40549C31.4334 11.2361 30.5825 13.0035 29.6315 14.7078C29.5814 14.8341 29.5314 14.8972 29.4813 15.0234C27.7294 18.2427 25.8274 21.2095 23.525 24.3025C23.4749 24.4287 23.3748 24.4919 23.3248 24.6181C22.9744 25.1231 22.624 25.565 22.2236 26.0699C22.1235 26.1962 22.0234 26.3224 21.9233 26.4487C19.7209 29.2892 17.1182 32.256 14.0149 35.5384L11.6624 38.0002L14.0149 40.5251C23.3248 50.4985 27.8796 57.1895 32.3343 66.5949L33.1352 68.2992H33.2353L34.7369 68.1729C43.4962 67.4155 51.2044 66.7842 58.2619 66.4055C58.5623 66.4055 58.9126 66.3424 59.2129 66.3424C67.8221 65.8374 75.4302 65.5849 82.4376 65.4586H82.8881C87.7433 65.4586 98.0543 65.4586 105.412 65.4586C118.326 65.648 133.092 66.4055 153.063 68.1729L154.664 68.2992L155.115 67.3523L155.465 66.5949C159.97 57.1264 164.475 50.4354 173.785 40.5251L175.887 38.3158L176.137 38.0633L173.835 35.5384ZM153.263 64.5118C144.604 63.7543 136.896 63.2493 129.988 62.8706C128.336 62.8075 126.685 62.6812 125.133 62.6181C124.382 62.6181 123.581 62.555 122.831 62.555C121.279 62.4919 119.777 62.4287 118.276 62.4287C117.925 62.4287 117.525 62.4287 117.175 62.4287C112.47 62.3025 108.165 62.2394 104.211 62.2394C103.76 62.2394 103.31 62.2394 102.859 62.2394C99.656 62.2394 96.7028 62.2394 93.8998 62.2394H93.8498C90.6464 62.2394 87.1927 62.2394 83.4888 62.2394C83.0383 62.2394 82.5878 62.2394 82.1874 62.2394C78.6336 62.2394 74.7795 62.3025 70.6251 62.4287C70.2747 62.4287 69.9243 62.4287 69.5239 62.4287C68.0724 62.4919 66.5207 62.4919 64.9691 62.555C64.2183 62.555 63.4675 62.6181 62.6666 62.6181C61.115 62.6812 59.4632 62.7444 57.8115 62.8706C50.854 63.1862 43.1458 63.7543 34.5367 64.5118C31.7838 58.7045 29.2811 54.0965 25.7774 49.2992C22.574 44.7543 17.3184 39.0101 16.5175 38.1264C16.4675 38.0633 16.4174 38.0002 16.4174 38.0002L16.4675 37.9371C16.5175 37.9371 16.5175 37.8739 16.5676 37.8739C17.2683 37.1165 20.4217 33.7709 23.2747 30.2361C23.4249 30.0467 23.525 29.9204 23.6751 29.7311C24.4259 28.7842 25.1767 27.7743 25.8775 26.8274C29.3812 21.967 31.8338 17.4221 34.6368 11.6148C62.066 14.0766 80.1853 13.9503 94 13.9503C107.815 13.9503 125.934 14.0766 153.363 11.6148C156.116 17.4221 158.619 22.0301 162.122 26.8274C166.077 32.1297 170.581 37.0533 171.382 37.8739C171.432 37.9371 171.432 37.9371 171.482 38.0002H171.532C171.182 38.3158 167.528 41.9138 162.122 49.1729C158.519 54.0965 156.066 58.6414 153.263 64.5118Z" fill="url(#paint4_linear_40_172)"/>
<path d="M171.432 38.0632C171.082 38.3789 167.378 41.9769 162.022 49.2991C158.519 54.0965 156.066 58.7044 153.263 64.5118C144.604 63.7543 136.896 63.2493 129.988 62.8706C128.337 62.8074 126.685 62.6812 125.133 62.6181C124.382 62.6181 123.581 62.5549 122.831 62.5549C121.279 62.4918 119.777 62.4287 118.276 62.4287C117.925 62.4287 117.525 62.4287 117.175 62.4287C112.47 62.3025 108.165 62.2393 104.211 62.2393C103.76 62.2393 103.31 62.2393 102.859 62.2393C99.656 62.2393 96.7029 62.2393 93.8999 62.2393H93.8499C90.6465 62.2393 87.1928 62.2393 83.4888 62.2393C83.0384 62.2393 82.5879 62.2393 82.1875 62.2393C78.6337 62.2393 74.7796 62.3025 70.6252 62.4287C70.2748 62.4287 69.9244 62.4287 69.524 62.4287C68.0724 62.4918 66.5208 62.4918 64.9691 62.5549C64.2183 62.5549 63.4675 62.6181 62.6667 62.6181C61.115 62.6812 59.4633 62.7443 57.8115 62.8706C50.8541 63.1862 43.1459 63.7543 34.5368 64.5118C31.7838 58.7044 29.2812 54.0965 25.7774 49.2991C22.574 44.7543 17.3184 39.0101 16.5176 38.1264C16.4675 38.0632 16.4175 38.0001 16.4175 38.0001L16.4675 37.937C16.5176 37.937 16.5176 37.8739 16.5676 37.8739C18.7199 35.6646 21.0724 32.9503 23.2748 30.236C23.4249 30.0466 23.525 29.9204 23.6752 29.731C24.426 28.7842 25.1768 27.7742 25.8775 26.8274C29.3813 21.9669 31.8339 17.4221 34.6369 11.6147C62.066 14.0765 80.1853 13.9503 94 13.9503C107.815 13.9503 125.934 14.0765 153.363 11.6147C156.116 17.4221 158.619 22.03 162.123 26.8274C164.875 30.6779 168.329 34.7809 171.382 37.8739C171.332 37.937 171.332 37.937 171.432 38.0632C171.382 38.0001 171.382 38.0001 171.432 38.0632Z" fill="url(#paint5_radial_40_172)"/>
<path d="M93.9499 10.6678V13.9502C80.1353 13.9502 62.066 14.0765 34.5868 11.6147L33.1853 7.76416L34.787 7.89041C58.7625 10.0366 75.23 10.6678 90.0958 10.6678H93.9499Z" fill="url(#paint6_linear_40_172)"/>
<path d="M160.12 0.126343C156.366 4.16621 149.559 7.76422 138.998 3.72435C147.757 2.65126 152.662 2.33564 160.12 0.126343Z" fill="white"/>
<path d="M154.665 7.76416L153.263 11.6147C125.834 14.0765 107.715 13.9502 93.8999 13.9502V10.6678H97.804C112.62 10.6678 129.087 10.0366 153.113 7.89041L154.665 7.76416Z" fill="url(#paint7_linear_40_172)"/>
<path d="M129.988 62.8705C129.588 62.8705 99.9563 64.5117 93.95 64.5117V62.1761C96.7529 62.1761 99.7061 62.1761 102.909 62.1761C103.36 62.1761 103.81 62.1761 104.261 62.1761C108.215 62.1761 112.52 62.2393 117.225 62.3655C117.575 62.3655 117.925 62.3655 118.326 62.3655C119.777 62.4286 121.329 62.4286 122.881 62.4918C123.632 62.4918 124.382 62.5549 125.183 62.5549C126.735 62.6811 128.337 62.7443 129.988 62.8705Z" fill="white"/>
<path d="M93.95 64.5118C88.2939 64.5118 58.4622 62.9337 57.8616 62.8706C59.5133 62.8075 61.115 62.6812 62.7167 62.6181C63.4675 62.6181 64.2684 62.555 65.0192 62.555C66.5708 62.4919 68.0724 62.4287 69.574 62.4287C69.9244 62.4287 70.3248 62.4287 70.6752 62.4287C74.8296 62.3025 78.6837 62.2394 82.2375 62.2394C82.688 62.2394 83.1385 62.2394 83.5389 62.2394C87.2428 62.2394 90.6965 62.2394 93.8999 62.2394L93.95 64.5118Z" fill="white"/>
<path opacity="0.5" d="M158.168 14.771C164.975 20.7045 168.93 21.5883 163.924 10.5417C166.777 16.2228 170.131 20.8308 174.536 26.4487C165.576 20.0733 159.319 17.8009 165.926 26.4487C162.673 22.4089 158.869 15.9703 158.168 14.771Z" fill="white"/>
<path d="M176.137 38.0633H171.382C171.382 38.0633 171.382 38.0633 171.332 38.0633C171.282 38.0001 171.282 38.0002 171.232 37.937C168.179 34.844 164.725 30.6779 161.972 26.8905C158.468 22.0301 156.016 17.4852 153.213 11.6779L154.614 7.82739L155.415 9.53171C156.316 11.3623 157.167 13.1297 158.118 14.834C158.168 14.9603 158.218 15.0234 158.268 15.1497C158.318 15.2128 158.318 15.2759 158.368 15.339C160.12 18.4952 161.972 21.3988 164.225 24.4287C164.275 24.555 164.375 24.6181 164.425 24.7443C164.775 25.2493 165.126 25.6912 165.526 26.1962L165.826 26.5749C168.029 29.4154 170.631 32.3822 173.735 35.6646L176.137 38.0633Z" fill="url(#paint8_linear_40_172)"/>
<path d="M27.7295 0.126343C31.4835 4.16621 38.2907 7.76422 48.852 3.72435C40.0926 2.65126 35.2375 2.33564 27.7295 0.126343Z" fill="white"/>
<path opacity="0.5" d="M29.6816 14.7709C22.8744 20.7044 18.9702 21.5882 23.9755 10.4785C21.1225 16.1596 17.7689 20.7676 13.3643 26.3855C22.2737 20.0732 28.5304 17.8008 21.9734 26.4486C25.1768 22.4087 29.0309 15.9702 29.6816 14.7709Z" fill="white"/>
<path d="M34.5867 11.6147C31.8338 17.422 29.3311 22.0299 25.8274 26.8273C25.1267 27.7741 24.4259 28.7841 23.6251 29.7309C23.4749 29.9203 23.3748 30.0466 23.2247 30.2359C21.0724 33.0133 18.7199 35.6645 16.5175 37.8738C16.5676 37.9369 16.5175 37.9369 16.5175 38L16.4675 38.0632H11.7124L14.0649 35.6014C17.1682 32.2559 19.771 29.2891 21.9733 26.5117C22.0734 26.3854 22.1735 26.2592 22.2736 26.1329C22.624 25.6279 23.0244 25.1861 23.3748 24.6811C23.4249 24.618 23.525 24.4917 23.575 24.3655C25.8775 21.2725 27.7795 18.2426 29.5314 15.0864C29.5814 14.9602 29.6315 14.8971 29.6815 14.7708C30.5825 13.0665 31.4834 11.3622 32.3844 9.46848L33.1852 7.76416L34.5867 11.6147Z" fill="url(#paint9_linear_40_172)"/>
<path d="M154.014 2.46188C154.865 2.27251 155.565 1.89378 155.515 1.57816C155.515 1.51504 155.465 1.45192 155.365 1.38879C154.364 1.57816 153.413 1.83065 152.462 1.9569C152.412 2.02002 152.362 2.14627 152.362 2.20939C152.412 2.52501 153.163 2.65125 154.014 2.46188Z" fill="white"/>
<path d="M33.8362 2.46188C32.9852 2.27251 32.2845 1.89378 32.3346 1.57816C32.3346 1.51504 32.3846 1.45192 32.4847 1.38879C33.4858 1.57816 34.4368 1.76753 35.3878 1.9569C35.4379 2.02002 35.4879 2.14627 35.4879 2.20939C35.4379 2.52501 34.6871 2.65125 33.8362 2.46188Z" fill="white"/>
<path d="M73.068 25.1257C73.3512 25.5261 73.4928 26.1414 73.4928 26.9714C73.4928 27.7917 73.4635 28.4607 73.4049 28.9783C73.3561 29.4861 73.2779 29.9792 73.1705 30.4578C72.9361 31.532 72.609 32.3425 72.1891 32.8894C71.8277 31.0046 71.359 29.657 70.7828 28.8464C70.1773 28.0261 69.3863 27.616 68.4098 27.616C67.443 27.616 66.6861 27.8015 66.1393 28.1726C65.5924 28.5437 65.1725 29.032 64.8795 29.6375C64.3912 30.6433 64.1471 32.1277 64.1471 34.0906C64.1471 36.0437 64.3668 37.8357 64.8063 39.4666C65.2555 41.0876 65.8902 42.4841 66.7105 43.656C68.4391 46.1462 70.69 47.3914 73.4635 47.3914C73.4244 47.8308 73.1949 48.2117 72.775 48.5339C72.648 48.6316 72.5113 48.6902 72.3648 48.7097C68.8199 48.7097 65.9293 47.406 63.693 44.7986C61.3199 42.0251 60.1334 38.2458 60.1334 33.4607C60.1334 30.9607 60.8658 29.0808 62.3307 27.821C63.6295 26.7078 65.4068 26.1511 67.6627 26.1511L70.109 26.1804C71.2613 26.1804 72.0719 26.0144 72.5406 25.6824C72.7359 25.5359 72.9117 25.3503 73.068 25.1257ZM82.0838 26.1511C81.7225 27.0593 81.5125 27.9724 81.4539 28.8904C81.3953 29.7986 81.3514 30.5798 81.3221 31.2341C81.2928 31.8884 81.2684 32.5671 81.2488 33.2703C81.2195 34.9109 81.2049 36.405 81.2049 37.7527C81.2049 43.28 81.41 46.6687 81.8201 47.9187C81.8885 48.1335 81.9764 48.3484 82.0838 48.5632H77.0301C77.3328 47.8992 77.5135 47.2986 77.5721 46.7615C77.6307 46.2244 77.6844 45.5847 77.7332 44.8425C77.8504 43.3093 77.909 41.5417 77.909 39.5398C77.909 37.5378 77.9041 36.1707 77.8943 35.4382C77.8846 34.696 77.8699 33.9734 77.8504 33.2703C77.782 29.8425 77.577 27.6648 77.2352 26.7371L77.0301 26.1511H82.0838ZM88.9023 47.0691C88.7363 47.8992 88.6533 48.5437 88.6533 49.0027C88.6533 49.4617 88.7168 49.9011 88.8438 50.321H85.4014L85.6504 49.7205C86.0117 48.8806 86.2705 48.1189 86.4268 47.4353L90.7627 26.7664C90.9385 25.907 91.0264 25.2625 91.0264 24.8328C91.0264 24.4031 90.958 23.9636 90.8213 23.5144H94.2637L94.0146 24.115C93.6533 24.9548 93.3652 25.8386 93.1504 26.7664L88.9023 47.0691ZM109.593 25.1257C109.876 25.5261 110.018 26.1414 110.018 26.9714C110.018 27.7917 109.988 28.4607 109.93 28.9783C109.881 29.4861 109.803 29.9792 109.696 30.4578C109.461 31.532 109.134 32.3425 108.714 32.8894C108.353 31.0046 107.884 29.657 107.308 28.8464C106.702 28.0261 105.911 27.616 104.935 27.616C103.968 27.616 103.211 27.8015 102.664 28.1726C102.117 28.5437 101.697 29.032 101.404 29.6375C100.916 30.6433 100.672 32.1277 100.672 34.0906C100.672 36.0437 100.892 37.8357 101.331 39.4666C101.78 41.0876 102.415 42.4841 103.236 43.656C104.964 46.1462 107.215 47.3914 109.988 47.3914C109.949 47.8308 109.72 48.2117 109.3 48.5339C109.173 48.6316 109.036 48.6902 108.89 48.7097C105.345 48.7097 102.454 47.406 100.218 44.7986C97.8449 42.0251 96.6584 38.2458 96.6584 33.4607C96.6584 30.9607 97.3908 29.0808 98.8557 27.821C100.154 26.7078 101.932 26.1511 104.188 26.1511L106.634 26.1804C107.786 26.1804 108.597 26.0144 109.066 25.6824C109.261 25.5359 109.437 25.3503 109.593 25.1257ZM116.968 30.0916L116.983 44.6814C116.993 45.238 117.056 45.658 117.173 45.9412C117.29 46.2244 117.535 46.366 117.906 46.366C119.644 46.366 120.996 45.2625 121.963 43.0554C122.901 40.907 123.37 37.9285 123.37 34.1199C123.37 32.1179 123.135 30.5994 122.666 29.5642C122.032 28.1677 120.928 27.4695 119.356 27.4695C118.35 27.4695 117.73 27.5867 117.496 27.821C117.271 28.0554 117.124 28.3484 117.056 28.7C116.997 29.0417 116.968 29.5056 116.968 30.0916ZM112.896 48.5632C113.208 47.821 113.389 47.2009 113.438 46.7029C113.496 46.2048 113.545 45.6726 113.584 45.1062C113.663 43.9539 113.702 42.406 113.702 40.4626C113.702 38.1091 113.663 35.9607 113.584 34.0173L113.423 29.989C113.384 28.9734 113.296 28.2654 113.16 27.865C112.945 27.2302 112.593 26.6589 112.105 26.1511H120.147C123.487 26.1511 125.669 27.4646 126.695 30.0916C127.056 31.0193 127.237 32.1423 127.237 33.4607C127.237 40.8337 124.737 45.531 119.737 47.5525C118.047 48.2361 116.06 48.5779 113.775 48.5779C113.628 48.5779 113.482 48.5779 113.335 48.5779C113.189 48.5779 113.042 48.573 112.896 48.5632Z" fill="#CCA2A2"/>
<defs>
<linearGradient id="paint0_linear_40_172" x1="93.9343" y1="75.9496" x2="93.9343" y2="0.12636" gradientUnits="userSpaceOnUse">
<stop offset="0.0139665" stop-color="#737FBA"/>
<stop offset="1" stop-color="#C4E1F5"/>
</linearGradient>
<linearGradient id="paint1_linear_40_172" x1="12.4054" y1="44.8884" x2="29.1844" y2="63.24" gradientUnits="userSpaceOnUse">
<stop stop-color="#404F7E"/>
<stop offset="0.9358" stop-color="#7C97C8"/>
</linearGradient>
<radialGradient id="paint2_radial_40_172" cx="0" cy="0" r="1" gradientUnits="userSpaceOnUse" gradientTransform="translate(93.9667 70.639) scale(46.9329 59.1878)">
<stop offset="0.0642458" stop-color="#7C97C8"/>
<stop offset="1" stop-color="#2B3554"/>
</radialGradient>
<linearGradient id="paint3_linear_40_172" x1="175.612" y1="44.8884" x2="158.833" y2="63.24" gradientUnits="userSpaceOnUse">
<stop stop-color="#404F7E"/>
<stop offset="0.9358" stop-color="#7C97C8"/>
</linearGradient>
<linearGradient id="paint4_linear_40_172" x1="93.9318" y1="68.3307" x2="93.9318" y2="7.74536" gradientUnits="userSpaceOnUse">
<stop stop-color="#C4E1F5"/>
<stop offset="0.986" stop-color="#737FBA"/>
</linearGradient>
<radialGradient id="paint5_radial_40_172" cx="0" cy="0" r="1" gradientUnits="userSpaceOnUse" gradientTransform="translate(93.9319 38.038) scale(66.5941 83.9828)">
<stop stop-color="#D50C10"/>
<stop offset="1" stop-color="#3F0005"/>
</radialGradient>
<linearGradient id="paint6_linear_40_172" x1="33.1872" y1="10.8388" x2="93.9318" y2="10.8388" gradientUnits="userSpaceOnUse">
<stop stop-color="#2B3554"/>
<stop offset="0.9358" stop-color="#7C97C8"/>
</linearGradient>
<linearGradient id="paint7_linear_40_172" x1="93.9318" y1="10.8388" x2="154.676" y2="10.8388" gradientUnits="userSpaceOnUse">
<stop stop-color="#2B3554"/>
<stop offset="0.9358" stop-color="#7C97C8"/>
</linearGradient>
<linearGradient id="paint8_linear_40_172" x1="156.852" y1="15.0454" x2="174.718" y2="31.014" gradientUnits="userSpaceOnUse">
<stop stop-color="#404F7E"/>
<stop offset="0.9358" stop-color="#7C97C8"/>
</linearGradient>
<linearGradient id="paint9_linear_40_172" x1="22.0391" y1="22.3137" x2="25.8853" y2="25.7512" gradientUnits="userSpaceOnUse">
<stop stop-color="#404F7E"/>
<stop offset="0.9358" stop-color="#7C97C8"/>
</linearGradient>
</defs>
</svg>
