<svg width="184" height="77" viewBox="0 0 184 77" fill="none" xmlns="http://www.w3.org/2000/svg">
<path d="M170.724 26.3224C168.52 23.6081 166.462 20.7676 164.65 17.8639C164.601 17.8008 164.601 17.7376 164.552 17.6745C163.131 15.4021 161.808 13.1297 160.682 10.9204C160.633 10.8573 160.633 10.7941 160.584 10.731C160.535 10.6679 160.486 10.6048 160.486 10.4785C160.486 10.4785 160.486 10.4785 160.486 10.4154C158.477 6.37552 157.105 2.7144 156.812 0.0632324C155.636 0.505093 154.068 0.88383 152.158 1.32569C151.864 1.38881 151.57 1.45194 151.227 1.51506C151.129 1.51506 151.031 1.57818 150.933 1.57818C150.884 1.57818 150.884 1.57818 150.835 1.57818C148.875 1.95692 146.573 2.33566 144.075 2.7144C144.026 2.7144 143.928 2.7144 143.879 2.7144C141.478 3.03001 138.882 3.34562 136.138 3.66124C123.255 5.04994 106.892 5.93366 92 5.93366C77.1076 5.93366 60.7455 4.98682 47.8616 3.66124C45.1182 3.34562 42.5218 3.03001 40.1214 2.7144C40.0724 2.7144 39.9744 2.7144 39.9255 2.7144C37.2801 2.39878 34.9286 2.02004 32.8711 1.57818C32.8222 1.57818 32.7732 1.57818 32.6752 1.51506C32.3813 1.45194 32.0383 1.38881 31.7444 1.32569C29.8339 0.946953 28.2662 0.505093 27.0905 0.0632324C26.7966 2.77752 25.4249 6.43865 23.4164 10.4154V10.4785C23.3674 10.5416 23.3184 10.6048 23.3184 10.731C23.2694 10.7941 23.2694 10.8573 23.2204 10.9204C22.0937 13.1297 20.771 15.4021 19.3504 17.6745C19.3014 17.7376 19.3014 17.8008 19.2524 17.8639C17.3908 20.7676 15.3823 23.6081 13.2268 26.2592C13.2268 26.2592 13.2268 26.2592 13.1778 26.3224C8.86688 31.6247 4.164 36.0433 0 38.0632C11.1203 43.4287 26.0128 66.216 27.1395 76.0001C34.6837 73.2858 58.492 70.824 81.4675 70.2559L91.951 70.319H94.6944H95.5762H102.435C104.247 70.3822 106.011 70.4453 107.823 70.5084C108.558 70.5084 109.244 70.5715 109.979 70.5715C110.714 70.5715 111.399 70.6347 112.134 70.6347C112.82 70.6978 113.555 70.6978 114.241 70.7609C114.584 70.7609 114.976 70.824 115.318 70.824C116.004 70.8872 116.739 70.8871 117.425 70.9503C117.768 70.9503 118.16 71.0134 118.503 71.0134C122.373 71.2659 126.096 71.5184 129.672 71.834C129.672 71.834 129.672 71.834 129.721 71.834C142.066 72.9071 152.256 74.422 156.714 76.0632C156.714 76.0632 156.714 76.0632 156.714 76.0001C156.714 76.0001 156.714 75.937 156.714 75.8739C157.987 66.0267 172.733 43.4287 183.804 38.1264C179.689 36.0433 175.035 31.6247 170.724 26.3224ZM167.736 38.0632C167.344 38.5051 162.788 43.6812 158.526 49.236C155.097 54.0333 152.697 58.6413 149.953 64.4486C141.478 63.6911 133.934 63.1862 127.174 62.8074C125.557 62.7443 123.94 62.618 122.422 62.5549C121.687 62.5549 120.903 62.4918 120.168 62.4918C118.65 62.4287 117.18 62.3656 115.71 62.3656C115.367 62.3656 114.976 62.3656 114.633 62.3656C110.028 62.2393 105.815 62.1762 101.945 62.1762C101.504 62.1762 101.063 62.1762 100.622 62.1762C97.4867 62.1762 94.5964 62.1762 91.853 62.1762H91.804C88.6688 62.1762 85.2886 62.1762 81.6635 62.1762C81.2226 62.1762 80.7817 62.1762 80.3898 62.1762C76.9116 62.1762 73.1395 62.2393 69.0735 62.3656C68.7306 62.3656 68.3876 62.3656 67.9957 62.3656C66.5751 62.4287 65.0564 62.4287 63.5378 62.4918C62.803 62.4918 62.0682 62.5549 61.2843 62.5549C59.7657 62.618 58.1491 62.6812 56.5325 62.8074C49.7231 63.123 42.1789 63.6911 33.7529 64.4486C31.0586 58.6413 28.6092 54.0333 25.18 49.236C22.9755 46.2061 16.9989 39.0732 16.1661 38.1264C16.1171 38.0632 16.0682 38.0001 16.0682 38.0001L16.1171 37.937C16.754 37.1795 22.3387 30.741 25.278 26.8274C28.7071 21.9669 31.1076 17.422 33.8509 11.6147C60.6965 14.0765 78.4303 13.9503 91.951 13.9503C105.472 13.9503 123.206 14.0765 150.051 11.6147C152.745 17.422 155.195 22.03 158.624 26.8274C162.543 32.0666 167.442 37.6845 167.736 38.0632C167.785 38.0632 167.785 38.0001 167.736 38.0632C167.785 38.0632 167.785 38.0632 167.736 38.0632Z" fill="url(#paint0_linear_40_88)"/>
<path d="M11.4633 38.0632H0C11.1203 43.4287 26.0128 66.2161 27.1395 76.0001C27.1395 76.0001 30.3238 71.5184 32.4792 68.3622C28.5602 54.9171 13.7657 39.3257 11.4633 38.0632Z" fill="url(#paint1_linear_40_88)"/>
<path d="M151.472 68.3622C151.472 68.3622 129.378 65.3323 94.2045 65.3323C59.0309 65.3323 32.5282 68.3622 32.5282 68.3622C32.5282 68.3622 29.4909 72.9701 27.1885 76C34.7327 73.2858 58.541 70.824 81.5165 70.2559H94.8903H102.483C125.508 70.824 149.267 73.2858 156.812 76C154.509 72.907 151.472 68.3622 151.472 68.3622Z" fill="url(#paint2_radial_40_88)"/>
<path d="M172.537 38.0632H184C172.88 43.4287 157.987 66.2161 156.86 76.0001C156.86 76.0001 153.676 71.5184 151.521 68.3622C155.489 54.9171 170.234 39.3257 172.537 38.0632Z" fill="url(#paint3_linear_40_88)"/>
<path d="M170.136 35.5384C167.099 32.1929 164.552 29.2261 162.396 26.4487L162.102 26.0699C161.759 25.565 161.367 25.1231 161.025 24.6181C160.927 24.555 160.878 24.4287 160.829 24.3025C158.624 21.2726 156.763 18.3058 155.097 15.2128C155.048 15.1497 154.999 15.0866 154.999 15.0234C154.95 14.8972 154.901 14.8341 154.852 14.7078C153.97 13.0035 153.088 11.2992 152.207 9.40549L151.423 7.70117L149.855 7.82742C126.39 9.9736 110.273 10.6048 95.7231 10.6048H88.13C73.6294 10.6048 57.5123 9.9736 33.9979 7.82742L32.4303 7.70117L31.6465 9.40549C30.7647 11.2361 29.9319 13.0035 29.0011 14.7078C28.9521 14.8341 28.9031 14.8972 28.8541 15.0234C27.1395 18.2427 25.278 21.2095 23.0245 24.3025C22.9755 24.4287 22.8776 24.4919 22.8286 24.6181C22.4857 25.1231 22.1427 25.565 21.7508 26.0699C21.6529 26.1962 21.5549 26.3224 21.4569 26.4487C19.3014 29.2892 16.754 32.256 13.7168 35.5384L11.4143 38.0002L13.7168 40.5251C22.8286 50.4985 27.2865 57.1895 31.6465 66.5949L32.4303 68.2992H32.5283L33.9979 68.1729C42.5709 67.4155 50.1151 66.7842 57.0224 66.4055C57.3163 66.4055 57.6592 66.3424 57.9532 66.3424C66.3792 65.8374 73.8254 65.5849 80.6837 65.4586H81.1246C85.8765 65.4586 95.9681 65.4586 103.169 65.4586C115.808 65.648 130.26 66.4055 149.806 68.1729L151.374 68.2992L151.815 67.3523L152.158 66.5949C156.567 57.1264 160.976 50.4354 170.087 40.5251L172.145 38.3158L172.39 38.0633L170.136 35.5384ZM150.002 64.5118C141.527 63.7543 133.983 63.2493 127.223 62.8706C125.606 62.8075 123.989 62.6812 122.471 62.6181C121.736 62.6181 120.952 62.555 120.217 62.555C118.699 62.4919 117.229 62.4287 115.759 62.4287C115.416 62.4287 115.025 62.4287 114.682 62.4287C110.077 62.3025 105.864 62.2394 101.994 62.2394C101.553 62.2394 101.112 62.2394 100.671 62.2394C97.5357 62.2394 94.6454 62.2394 91.9021 62.2394H91.8531C88.7178 62.2394 85.3376 62.2394 81.7125 62.2394C81.2716 62.2394 80.8307 62.2394 80.4388 62.2394C76.9606 62.2394 73.1885 62.3025 69.1225 62.4287C68.7796 62.4287 68.4367 62.4287 68.0448 62.4287C66.6241 62.4919 65.1055 62.4919 63.5868 62.555C62.852 62.555 62.1172 62.6181 61.3334 62.6181C59.8147 62.6812 58.1981 62.7444 56.5815 62.8706C49.7721 63.1862 42.2279 63.7543 33.802 64.5118C31.1076 58.7045 28.6582 54.0965 25.229 49.2992C22.0938 44.7543 16.95 39.0101 16.1662 38.1264C16.1172 38.0633 16.0682 38.0002 16.0682 38.0002L16.1172 37.9371C16.1662 37.9371 16.1662 37.8739 16.2152 37.8739C16.901 37.1165 19.9873 33.7709 22.7796 30.2361C22.9266 30.0467 23.0245 29.9204 23.1715 29.7311C23.9063 28.7842 24.6411 27.7743 25.327 26.8274C28.7562 21.967 31.1566 17.4221 33.8999 11.6148C60.7455 14.0766 78.4793 13.9503 92 13.9503C105.521 13.9503 123.255 14.0766 150.1 11.6148C152.794 17.4221 155.244 22.0301 158.673 26.8274C162.543 32.1297 166.952 37.0533 167.736 37.8739C167.785 37.9371 167.785 37.9371 167.834 38.0002H167.883C167.54 38.3158 163.964 41.9138 158.673 49.1729C155.146 54.0965 152.746 58.6414 150.002 64.5118Z" fill="url(#paint4_linear_40_88)"/>
<path d="M167.785 38.0632C167.442 38.3789 163.817 41.9769 158.575 49.2991C155.146 54.0965 152.745 58.7044 150.002 64.5118C141.527 63.7543 133.983 63.2493 127.223 62.8706C125.606 62.8074 123.989 62.6812 122.471 62.6181C121.736 62.6181 120.952 62.5549 120.217 62.5549C118.699 62.4918 117.229 62.4287 115.759 62.4287C115.416 62.4287 115.024 62.4287 114.682 62.4287C110.077 62.3025 105.864 62.2393 101.994 62.2393C101.553 62.2393 101.112 62.2393 100.671 62.2393C97.5356 62.2393 94.6453 62.2393 91.902 62.2393H91.853C88.7178 62.2393 85.3376 62.2393 81.7124 62.2393C81.2715 62.2393 80.8306 62.2393 80.4387 62.2393C76.9606 62.2393 73.1885 62.3025 69.1224 62.4287C68.7795 62.4287 68.4366 62.4287 68.0447 62.4287C66.624 62.4918 65.1054 62.4918 63.5868 62.5549C62.8519 62.5549 62.1171 62.6181 61.3333 62.6181C59.8147 62.6812 58.198 62.7443 56.5814 62.8706C49.7721 63.1862 42.2279 63.7543 33.8019 64.5118C31.1075 58.7044 28.6581 54.0965 25.2289 49.2991C22.0937 44.7543 16.9499 39.0101 16.1661 38.1264C16.1171 38.0632 16.0681 38.0001 16.0681 38.0001L16.1171 37.937C16.1661 37.937 16.1661 37.8739 16.2151 37.8739C18.3216 35.6646 20.624 32.9503 22.7795 30.236C22.9265 30.0466 23.0245 29.9204 23.1714 29.731C23.9062 28.7842 24.6411 27.7742 25.3269 26.8274C28.7561 21.9669 31.1565 17.4221 33.8999 11.6147C60.7454 14.0765 78.4792 13.9503 92 13.9503C105.521 13.9503 123.255 14.0765 150.1 11.6147C152.794 17.4221 155.244 22.03 158.673 26.8274C161.367 30.6779 164.748 34.7809 167.736 37.8739C167.687 37.937 167.687 37.937 167.785 38.0632C167.736 38.0001 167.736 38.0001 167.785 38.0632Z" fill="url(#paint5_radial_40_88)"/>
<path d="M91.951 10.6678V13.9502C78.4303 13.9502 60.7455 14.0765 33.8509 11.6147L32.4792 7.76416L34.0469 7.89041C57.5123 10.0366 73.6294 10.6678 88.1789 10.6678H91.951Z" fill="url(#paint6_linear_40_88)"/>
<path d="M156.714 0.126343C153.039 4.16621 146.377 7.76422 136.041 3.72435C144.613 2.65126 149.414 2.33564 156.714 0.126343Z" fill="white"/>
<path d="M151.374 7.76416L150.002 11.6147C123.156 14.0765 105.423 13.9502 91.9019 13.9502V10.6678H95.7229C110.223 10.6678 126.341 10.0366 149.855 7.89041L151.374 7.76416Z" fill="url(#paint7_linear_40_88)"/>
<path d="M127.223 62.8705C126.831 62.8705 97.8295 64.5117 91.9509 64.5117V62.1761C94.6943 62.1761 97.5846 62.1761 100.72 62.1761C101.161 62.1761 101.602 62.1761 102.043 62.1761C105.913 62.1761 110.126 62.2393 114.73 62.3655C115.073 62.3655 115.416 62.3655 115.808 62.3655C117.229 62.4286 118.748 62.4286 120.266 62.4918C121.001 62.4918 121.736 62.5549 122.52 62.5549C124.038 62.6811 125.606 62.7443 127.223 62.8705Z" fill="white"/>
<path d="M91.9509 64.5118C86.4152 64.5118 57.2182 62.9337 56.6304 62.8706C58.247 62.8075 59.8146 62.6812 61.3822 62.6181C62.1171 62.6181 62.9009 62.555 63.6357 62.555C65.1543 62.4919 66.624 62.4287 68.0936 62.4287C68.4365 62.4287 68.8285 62.4287 69.1714 62.4287C73.2374 62.3025 77.0095 62.2394 80.4877 62.2394C80.9286 62.2394 81.3695 62.2394 81.7614 62.2394C85.3865 62.2394 88.7667 62.2394 91.9019 62.2394L91.9509 64.5118Z" fill="white"/>
<path opacity="0.5" d="M154.803 14.771C161.465 20.7045 165.335 21.5883 160.437 10.5417C163.229 16.2228 166.511 20.8308 170.822 26.4487C162.053 20.0733 155.93 17.8009 162.396 26.4487C159.212 22.4089 155.489 15.9703 154.803 14.771Z" fill="white"/>
<path d="M172.39 38.0633H167.736C167.736 38.0633 167.736 38.0633 167.687 38.0633C167.638 38.0001 167.638 38.0002 167.589 37.937C164.601 34.844 161.22 30.6779 158.526 26.8905C155.097 22.0301 152.696 17.4852 149.953 11.6779L151.325 7.82739L152.109 9.53171C152.99 11.3623 153.823 13.1297 154.754 14.834C154.803 14.9603 154.852 15.0234 154.901 15.1497C154.95 15.2128 154.95 15.2759 154.999 15.339C156.714 18.4952 158.526 21.3988 160.731 24.4287C160.78 24.555 160.878 24.6181 160.926 24.7443C161.269 25.2493 161.612 25.6912 162.004 26.1962L162.298 26.5749C164.454 29.4154 167.001 32.3822 170.038 35.6646L172.39 38.0633Z" fill="url(#paint8_linear_40_88)"/>
<path d="M27.1396 0.126343C30.8138 4.16621 37.4762 7.76422 47.8127 3.72435C39.2398 2.65126 34.4879 2.33564 27.1396 0.126343Z" fill="white"/>
<path opacity="0.5" d="M29.05 14.7709C22.3876 20.7044 18.5665 21.5882 23.4654 10.4785C20.673 16.1596 17.3908 20.7676 13.0798 26.3855C21.7997 20.0732 27.9233 17.8008 21.5058 26.4486C24.6411 22.4087 28.4132 15.9702 29.05 14.7709Z" fill="white"/>
<path d="M33.851 11.6147C31.1567 17.422 28.7073 22.0299 25.2781 26.8273C24.5922 27.7741 23.9064 28.7841 23.1226 29.7309C22.9756 29.9203 22.8777 30.0466 22.7307 30.2359C20.6242 33.0133 18.3217 35.6645 16.1663 37.8738C16.2152 37.9369 16.1663 37.9369 16.1663 38L16.1173 38.0632H11.4634L13.7658 35.6014C16.8031 32.2559 19.3505 29.2891 21.506 26.5117C21.604 26.3854 21.7019 26.2592 21.7999 26.1329C22.1428 25.6279 22.5347 25.1861 22.8777 24.6811C22.9266 24.618 23.0246 24.4917 23.0736 24.3655C25.3271 21.2725 27.1886 18.2426 28.9032 15.0864C28.9522 14.9602 29.0012 14.8971 29.0502 14.7708C29.932 13.0665 30.8137 11.3622 31.6955 9.46848L32.4794 7.76416L33.851 11.6147Z" fill="url(#paint9_linear_40_88)"/>
<path d="M150.737 2.46188C151.57 2.27251 152.256 1.89378 152.207 1.57816C152.207 1.51504 152.158 1.45192 152.06 1.38879C151.08 1.57816 150.149 1.83065 149.218 1.9569C149.169 2.02002 149.12 2.14627 149.12 2.20939C149.169 2.52501 149.904 2.65125 150.737 2.46188Z" fill="white"/>
<path d="M33.1162 2.46188C32.2834 2.27251 31.5975 1.89378 31.6465 1.57816C31.6465 1.51504 31.6955 1.45192 31.7935 1.38879C32.7732 1.57816 33.704 1.76753 34.6348 1.9569C34.6838 2.02002 34.7328 2.14627 34.7328 2.20939C34.6838 2.52501 33.949 2.65125 33.1162 2.46188Z" fill="white"/>
<path d="M53.5742 32.6111C53.5547 33.6267 53.5449 34.7839 53.5449 36.0828C53.5449 37.9285 53.5791 40.0427 53.6475 42.4255C53.7158 44.7986 53.7695 46.1511 53.8086 46.4832C53.8477 46.8054 53.8965 47.0886 53.9551 47.3328C54.0527 47.7332 54.2041 48.1433 54.4092 48.5632H50.4834C50.7764 47.9675 50.9521 47.3865 51.0107 46.8201C51.0791 46.2439 51.1328 45.6726 51.1719 45.1062C51.25 43.9539 51.2891 42.406 51.2891 40.4626C51.2891 38.1091 51.25 35.9607 51.1719 34.0173L51.0107 29.989C50.9521 28.5046 50.7178 27.45 50.3076 26.825C50.1416 26.5906 49.9365 26.366 49.6924 26.1511H54.248C54.8242 27.4792 55.4346 28.7976 56.0791 30.1062L58.0713 34.0027L62.3486 41.8689C62.3584 41.2537 62.3633 40.5945 62.3633 39.8914V37.6062C62.3633 32.7234 62.0654 29.198 61.4697 27.03C61.3525 26.6296 61.2256 26.3367 61.0889 26.1511L65.498 26.1365C65.0098 27.113 64.7021 29.8621 64.5752 34.3835C64.5557 35.0867 64.5459 35.7605 64.5459 36.405L64.5605 37.6355V43.6121C64.5605 46.1414 64.5801 47.7917 64.6191 48.5632H62.2461L57.998 40.6531L53.5742 32.6111ZM79.0256 43.5828C79.3771 43.8171 79.5529 44.2273 79.5529 44.8132C79.5529 45.3894 79.4748 45.8972 79.3186 46.3367C79.1623 46.7761 78.8889 47.1863 78.4982 47.5671C77.6193 48.4265 76.2814 48.8562 74.4846 48.8562C72.3947 48.8562 70.8029 48.0847 69.7092 46.5417C68.7424 45.1648 68.259 43.3044 68.259 40.9607C68.259 38.5974 68.9133 36.7419 70.2219 35.3943C71.4621 34.115 73.1418 33.4753 75.2609 33.4753C76.7355 33.4753 77.8879 33.905 78.718 34.7644C79.3723 35.448 79.6994 36.239 79.6994 37.1375C79.6994 38.0261 79.5236 38.8318 79.1721 39.5544C78.8303 40.2673 78.3225 40.8826 77.6486 41.4001C76.2619 42.4744 74.3234 43.0408 71.8332 43.0994C72.0383 45.0623 72.6535 46.3757 73.6789 47.0398C74.05 47.2742 74.5432 47.3914 75.1584 47.3914C75.7736 47.3914 76.4279 47.0691 77.1213 46.4246C77.8146 45.78 78.4494 44.8328 79.0256 43.5828ZM71.7453 41.7078C74.8312 41.5027 76.3742 40.0085 76.3742 37.2253C76.3742 36.1804 76.0617 35.4773 75.4367 35.116C75.2219 34.9988 74.9387 34.9402 74.5871 34.9402C74.2355 34.9402 73.8791 35.0476 73.5178 35.2625C73.1662 35.4773 72.8586 35.8289 72.5949 36.3171C72.0285 37.3816 71.7453 39.0271 71.7453 41.2537V41.7078ZM90.81 36.3171C90.8979 35.9265 90.9418 35.5505 90.9418 35.1892C90.9418 34.8181 90.849 34.3445 90.6635 33.7683H94.9848C94.5746 34.3542 94.3158 34.7253 94.2084 34.8816L90.81 40.155L90.268 41.0779C91.6449 43.197 92.5873 44.6179 93.0951 45.3406L94.1205 46.8054C94.2865 47.0593 94.4281 47.2839 94.5453 47.4792L94.8822 48.0066C94.9896 48.1628 95.1215 48.3484 95.2777 48.5632H89.1986C89.3061 48.2605 89.4135 47.9675 89.5209 47.6843C89.6381 47.4011 89.6967 47.1033 89.6967 46.7908C89.6967 46.4685 89.6332 46.1267 89.5062 45.7654C89.3793 45.4041 89.2182 45.033 89.0229 44.6521C88.8275 44.2712 88.6176 43.8953 88.393 43.5242L87.7631 42.4841C86.5619 44.1833 85.9613 45.6335 85.9613 46.8347C85.9613 47.2253 86.0883 47.8015 86.3422 48.5632H81.8744L85.434 42.6306C85.9223 41.8396 86.308 41.1511 86.5912 40.5652C85.4193 38.6609 84.6332 37.4109 84.2328 36.8152C83.266 35.3503 82.724 34.5398 82.6068 34.3835L82.1967 33.7683H88.2758C88.0219 34.53 87.8949 35.1794 87.8949 35.7166C87.8949 36.5955 88.3393 37.8113 89.2279 39.364C89.9994 38.5046 90.5268 37.489 90.81 36.3171ZM102.243 27.9089C102.038 28.6609 101.935 29.5642 101.935 30.6189C101.935 31.6638 101.955 32.3328 101.994 32.6257C102.043 32.9187 102.116 33.1531 102.213 33.3289C102.399 33.6218 102.76 33.7683 103.297 33.7683H107.223C107.223 34.3152 107.091 34.7351 106.828 35.0281C106.349 35.5554 105.763 35.8191 105.07 35.8191C104.728 35.8191 104.425 35.7703 104.162 35.6726C103.683 35.4773 103.312 35.3796 103.048 35.3796C102.785 35.3796 102.57 35.4333 102.404 35.5408C102.238 35.6384 102.106 35.7849 102.008 35.9802C101.833 36.3318 101.745 37.0984 101.745 38.28C101.745 39.4617 101.779 40.6726 101.847 41.9128C101.925 43.1531 102.111 44.1931 102.404 45.033C102.697 45.863 103.141 46.488 103.737 46.908C104.333 47.3279 105.153 47.5378 106.198 47.5378C106.198 47.8406 105.993 48.2019 105.583 48.6218C105.475 48.739 105.382 48.8171 105.304 48.8562C103.576 48.8562 102.282 48.6511 101.422 48.241C100.436 47.7527 99.733 46.8835 99.3131 45.6335C98.8932 44.364 98.6832 42.4841 98.6832 39.9939C98.6832 37.8162 98.6246 36.532 98.5074 36.1414C98.3902 35.741 98.2828 35.4773 98.1852 35.3503C98.068 35.2039 97.7848 35.0232 97.3355 34.8083C97.941 34.3494 98.5416 33.4949 99.1373 32.2449L99.8697 30.7068C100.387 29.5349 100.827 28.7781 101.188 28.4363C101.559 28.0847 101.911 27.9089 102.243 27.9089ZM118.246 36.7273L118.261 42.2644C118.261 44.032 117.816 45.5261 116.928 46.7468C115.883 48.1531 114.428 48.8562 112.562 48.8562C111.097 48.8562 109.926 48.3679 109.047 47.3914C108.246 46.5027 107.846 45.4285 107.846 44.1687C108.285 43.1531 108.754 42.3767 109.252 41.8396C110.072 40.9509 110.756 40.4578 111.303 40.3601C111.146 41.2488 111.068 42.0642 111.068 42.8064C111.068 43.5486 111.097 44.1785 111.156 44.696C111.224 45.2039 111.332 45.658 111.478 46.0583C111.801 46.947 112.308 47.3914 113.002 47.3914C113.607 47.3914 114.066 47.0007 114.379 46.2195C114.642 45.575 114.774 44.7107 114.774 43.6267V40.1111C114.774 35.8728 114.745 32.3035 114.686 29.4031C114.667 28.6316 114.55 27.9968 114.335 27.4988C114.13 26.991 113.778 26.5417 113.28 26.1511H119.066C118.773 26.6785 118.593 27.2449 118.524 27.8503C118.466 28.4558 118.412 29.1199 118.363 29.8425C118.285 31.2195 118.246 33.5144 118.246 36.7273ZM125.606 40.7996C125.479 41.8152 125.416 42.6257 125.416 43.2312C125.416 43.8269 125.489 44.3787 125.636 44.8865C125.782 45.3943 125.992 45.8337 126.266 46.2048C126.852 46.9958 127.594 47.3914 128.492 47.3914C130.211 47.3914 131.07 46.4441 131.07 44.5496C131.07 43.0261 130.187 41.4099 128.419 39.7009L126.896 38.2214C125.558 36.9324 124.645 35.8972 124.156 35.116C123.189 33.573 122.706 32.0398 122.706 30.5164C122.706 29.2761 123.106 28.2361 123.907 27.3962C124.874 26.3708 126.266 25.8582 128.082 25.8582C128.795 25.8582 129.332 25.8923 129.693 25.9607C130.367 26.0876 130.816 26.1511 131.041 26.1511C131.607 26.1511 132.047 25.9753 132.359 25.6238C132.477 25.4968 132.604 25.3308 132.74 25.1257C133.453 25.5261 133.81 26.9958 133.81 29.5349C133.81 31.156 133.648 32.3523 133.326 33.1238C133.219 33.3875 133.097 33.5535 132.96 33.6218C132.804 32.1472 132.325 30.8289 131.524 29.6667C130.587 28.2996 129.503 27.616 128.272 27.616C127.218 27.616 126.568 28.0994 126.324 29.0662C126.256 29.3396 126.222 29.6814 126.222 30.0916C126.222 30.4919 126.344 30.9509 126.588 31.4685C126.832 31.9861 127.149 32.5037 127.54 33.0212C127.94 33.5291 128.399 34.0417 128.917 34.5593C130.479 36.1609 131.515 37.2449 132.022 37.8113C132.54 38.3777 132.999 38.9636 133.399 39.5691C134.278 40.9265 134.718 42.24 134.718 43.5095C134.718 45.0427 134.122 46.3123 132.931 47.3181C131.7 48.3435 130.118 48.8562 128.185 48.8562C126.583 48.8562 125.206 48.4558 124.054 47.655C122.784 46.7761 122.149 45.614 122.149 44.1687C122.53 42.8113 123.36 41.8152 124.64 41.1804C124.981 41.0046 125.304 40.8777 125.606 40.7996Z" fill="#CCA2A2"/>
<defs>
<linearGradient id="paint0_linear_40_88" x1="91.9357" y1="75.9496" x2="91.9357" y2="0.12636" gradientUnits="userSpaceOnUse">
<stop offset="0.0139665" stop-color="#737FBA"/>
<stop offset="1" stop-color="#C4E1F5"/>
</linearGradient>
<linearGradient id="paint1_linear_40_88" x1="12.1415" y1="44.8884" x2="28.9489" y2="62.8799" gradientUnits="userSpaceOnUse">
<stop stop-color="#404F7E"/>
<stop offset="0.9358" stop-color="#7C97C8"/>
</linearGradient>
<radialGradient id="paint2_radial_40_88" cx="0" cy="0" r="1" gradientUnits="userSpaceOnUse" gradientTransform="translate(91.9674 70.639) scale(45.9343 59.1878)">
<stop offset="0.0642458" stop-color="#7C97C8"/>
<stop offset="1" stop-color="#2B3554"/>
</radialGradient>
<linearGradient id="paint3_linear_40_88" x1="171.875" y1="44.8884" x2="155.068" y2="62.8799" gradientUnits="userSpaceOnUse">
<stop stop-color="#404F7E"/>
<stop offset="0.9358" stop-color="#7C97C8"/>
</linearGradient>
<linearGradient id="paint4_linear_40_88" x1="91.9333" y1="68.3307" x2="91.9333" y2="7.74536" gradientUnits="userSpaceOnUse">
<stop stop-color="#C4E1F5"/>
<stop offset="0.986" stop-color="#737FBA"/>
</linearGradient>
<radialGradient id="paint5_radial_40_88" cx="0" cy="0" r="1" gradientUnits="userSpaceOnUse" gradientTransform="translate(91.9333 38.038) scale(65.1772 83.9828)">
<stop stop-color="#D50C10"/>
<stop offset="1" stop-color="#3F0005"/>
</radialGradient>
<linearGradient id="paint6_linear_40_88" x1="32.4811" y1="10.8388" x2="91.9333" y2="10.8388" gradientUnits="userSpaceOnUse">
<stop stop-color="#2B3554"/>
<stop offset="0.9358" stop-color="#7C97C8"/>
</linearGradient>
<linearGradient id="paint7_linear_40_88" x1="91.9331" y1="10.8388" x2="151.385" y2="10.8388" gradientUnits="userSpaceOnUse">
<stop stop-color="#2B3554"/>
<stop offset="0.9358" stop-color="#7C97C8"/>
</linearGradient>
<linearGradient id="paint8_linear_40_88" x1="153.514" y1="15.0454" x2="171.334" y2="30.6331" gradientUnits="userSpaceOnUse">
<stop stop-color="#404F7E"/>
<stop offset="0.9358" stop-color="#7C97C8"/>
</linearGradient>
<linearGradient id="paint9_linear_40_88" x1="21.5704" y1="22.3137" x2="25.4064" y2="25.6692" gradientUnits="userSpaceOnUse">
<stop stop-color="#404F7E"/>
<stop offset="0.9358" stop-color="#7C97C8"/>
</linearGradient>
</defs>
</svg>
