<svg width="184" height="77" viewBox="0 0 184 77" fill="none" xmlns="http://www.w3.org/2000/svg">
<path d="M170.724 26.3224C168.52 23.6081 166.462 20.7676 164.65 17.8639C164.601 17.8008 164.601 17.7376 164.552 17.6745C163.131 15.4021 161.808 13.1297 160.682 10.9204C160.633 10.8573 160.633 10.7941 160.584 10.731C160.535 10.6679 160.486 10.6048 160.486 10.4785C160.486 10.4785 160.486 10.4785 160.486 10.4154C158.477 6.37552 157.105 2.7144 156.812 0.0632324C155.636 0.505093 154.068 0.88383 152.158 1.32569C151.864 1.38881 151.57 1.45194 151.227 1.51506C151.129 1.51506 151.031 1.57818 150.933 1.57818C150.884 1.57818 150.884 1.57818 150.835 1.57818C148.875 1.95692 146.573 2.33566 144.075 2.7144C144.026 2.7144 143.928 2.7144 143.879 2.7144C141.478 3.03001 138.882 3.34562 136.138 3.66124C123.255 5.04994 106.892 5.93366 92 5.93366C77.1076 5.93366 60.7455 4.98682 47.8616 3.66124C45.1182 3.34562 42.5218 3.03001 40.1214 2.7144C40.0724 2.7144 39.9744 2.7144 39.9255 2.7144C37.2801 2.39878 34.9286 2.02004 32.8711 1.57818C32.8222 1.57818 32.7732 1.57818 32.6752 1.51506C32.3813 1.45194 32.0383 1.38881 31.7444 1.32569C29.8339 0.946953 28.2662 0.505093 27.0905 0.0632324C26.7966 2.77752 25.4249 6.43865 23.4164 10.4154V10.4785C23.3674 10.5416 23.3184 10.6048 23.3184 10.731C23.2694 10.7941 23.2694 10.8573 23.2204 10.9204C22.0937 13.1297 20.771 15.4021 19.3504 17.6745C19.3014 17.7376 19.3014 17.8008 19.2524 17.8639C17.3908 20.7676 15.3823 23.6081 13.2268 26.2592C13.2268 26.2592 13.2268 26.2592 13.1778 26.3224C8.86688 31.6247 4.164 36.0433 0 38.0632C11.1203 43.4287 26.0128 66.216 27.1395 76.0001C34.6837 73.2858 58.492 70.824 81.4675 70.2559L91.951 70.319H94.6944H95.5762H102.435C104.247 70.3822 106.011 70.4453 107.823 70.5084C108.558 70.5084 109.244 70.5715 109.979 70.5715C110.714 70.5715 111.399 70.6347 112.134 70.6347C112.82 70.6978 113.555 70.6978 114.241 70.7609C114.584 70.7609 114.976 70.824 115.318 70.824C116.004 70.8872 116.739 70.8871 117.425 70.9503C117.768 70.9503 118.16 71.0134 118.503 71.0134C122.373 71.2659 126.096 71.5184 129.672 71.834C129.672 71.834 129.672 71.834 129.721 71.834C142.066 72.9071 152.256 74.422 156.714 76.0632C156.714 76.0632 156.714 76.0632 156.714 76.0001C156.714 76.0001 156.714 75.937 156.714 75.8739C157.987 66.0267 172.733 43.4287 183.804 38.1264C179.689 36.0433 175.035 31.6247 170.724 26.3224ZM167.736 38.0632C167.344 38.5051 162.788 43.6812 158.526 49.236C155.097 54.0333 152.697 58.6413 149.953 64.4486C141.478 63.6911 133.934 63.1862 127.174 62.8074C125.557 62.7443 123.94 62.618 122.422 62.5549C121.687 62.5549 120.903 62.4918 120.168 62.4918C118.65 62.4287 117.18 62.3656 115.71 62.3656C115.367 62.3656 114.976 62.3656 114.633 62.3656C110.028 62.2393 105.815 62.1762 101.945 62.1762C101.504 62.1762 101.063 62.1762 100.622 62.1762C97.4867 62.1762 94.5964 62.1762 91.853 62.1762H91.804C88.6688 62.1762 85.2886 62.1762 81.6635 62.1762C81.2226 62.1762 80.7817 62.1762 80.3898 62.1762C76.9116 62.1762 73.1395 62.2393 69.0735 62.3656C68.7306 62.3656 68.3876 62.3656 67.9957 62.3656C66.5751 62.4287 65.0564 62.4287 63.5378 62.4918C62.803 62.4918 62.0682 62.5549 61.2843 62.5549C59.7657 62.618 58.1491 62.6812 56.5325 62.8074C49.7231 63.123 42.1789 63.6911 33.7529 64.4486C31.0586 58.6413 28.6092 54.0333 25.18 49.236C22.9755 46.2061 16.9989 39.0732 16.1661 38.1264C16.1171 38.0632 16.0682 38.0001 16.0682 38.0001L16.1171 37.937C16.754 37.1795 22.3387 30.741 25.278 26.8274C28.7071 21.9669 31.1076 17.422 33.8509 11.6147C60.6965 14.0765 78.4303 13.9503 91.951 13.9503C105.472 13.9503 123.206 14.0765 150.051 11.6147C152.745 17.422 155.195 22.03 158.624 26.8274C162.543 32.0666 167.442 37.6845 167.736 38.0632C167.785 38.0632 167.785 38.0001 167.736 38.0632C167.785 38.0632 167.785 38.0632 167.736 38.0632Z" fill="url(#paint0_linear_40_235)"/>
<path d="M11.4633 38.0632H0C11.1203 43.4287 26.0128 66.2161 27.1395 76.0001C27.1395 76.0001 30.3238 71.5184 32.4792 68.3622C28.5602 54.9171 13.7657 39.3257 11.4633 38.0632Z" fill="url(#paint1_linear_40_235)"/>
<path d="M151.472 68.3622C151.472 68.3622 129.378 65.3323 94.2045 65.3323C59.0309 65.3323 32.5282 68.3622 32.5282 68.3622C32.5282 68.3622 29.4909 72.9701 27.1885 76C34.7327 73.2858 58.541 70.824 81.5165 70.2559H94.8903H102.483C125.508 70.824 149.267 73.2858 156.812 76C154.509 72.907 151.472 68.3622 151.472 68.3622Z" fill="url(#paint2_radial_40_235)"/>
<path d="M172.537 38.0632H184C172.88 43.4287 157.987 66.2161 156.86 76.0001C156.86 76.0001 153.676 71.5184 151.521 68.3622C155.489 54.9171 170.234 39.3257 172.537 38.0632Z" fill="url(#paint3_linear_40_235)"/>
<path d="M170.136 35.5384C167.099 32.1929 164.552 29.2261 162.396 26.4487L162.102 26.0699C161.759 25.565 161.367 25.1231 161.025 24.6181C160.927 24.555 160.878 24.4287 160.829 24.3025C158.624 21.2726 156.763 18.3058 155.097 15.2128C155.048 15.1497 154.999 15.0866 154.999 15.0234C154.95 14.8972 154.901 14.8341 154.852 14.7078C153.97 13.0035 153.088 11.2992 152.207 9.40549L151.423 7.70117L149.855 7.82742C126.39 9.9736 110.273 10.6048 95.7231 10.6048H88.13C73.6294 10.6048 57.5123 9.9736 33.9979 7.82742L32.4303 7.70117L31.6465 9.40549C30.7647 11.2361 29.9319 13.0035 29.0011 14.7078C28.9521 14.8341 28.9031 14.8972 28.8541 15.0234C27.1395 18.2427 25.278 21.2095 23.0245 24.3025C22.9755 24.4287 22.8776 24.4919 22.8286 24.6181C22.4857 25.1231 22.1427 25.565 21.7508 26.0699C21.6529 26.1962 21.5549 26.3224 21.4569 26.4487C19.3014 29.2892 16.754 32.256 13.7168 35.5384L11.4143 38.0002L13.7168 40.5251C22.8286 50.4985 27.2865 57.1895 31.6465 66.5949L32.4303 68.2992H32.5283L33.9979 68.1729C42.5709 67.4155 50.1151 66.7842 57.0224 66.4055C57.3163 66.4055 57.6592 66.3424 57.9532 66.3424C66.3792 65.8374 73.8254 65.5849 80.6837 65.4586H81.1246C85.8765 65.4586 95.9681 65.4586 103.169 65.4586C115.808 65.648 130.26 66.4055 149.806 68.1729L151.374 68.2992L151.815 67.3523L152.158 66.5949C156.567 57.1264 160.976 50.4354 170.087 40.5251L172.145 38.3158L172.39 38.0633L170.136 35.5384ZM150.002 64.5118C141.527 63.7543 133.983 63.2493 127.223 62.8706C125.606 62.8075 123.989 62.6812 122.471 62.6181C121.736 62.6181 120.952 62.555 120.217 62.555C118.699 62.4919 117.229 62.4287 115.759 62.4287C115.416 62.4287 115.025 62.4287 114.682 62.4287C110.077 62.3025 105.864 62.2394 101.994 62.2394C101.553 62.2394 101.112 62.2394 100.671 62.2394C97.5357 62.2394 94.6454 62.2394 91.9021 62.2394H91.8531C88.7178 62.2394 85.3376 62.2394 81.7125 62.2394C81.2716 62.2394 80.8307 62.2394 80.4388 62.2394C76.9606 62.2394 73.1885 62.3025 69.1225 62.4287C68.7796 62.4287 68.4367 62.4287 68.0448 62.4287C66.6241 62.4919 65.1055 62.4919 63.5868 62.555C62.852 62.555 62.1172 62.6181 61.3334 62.6181C59.8147 62.6812 58.1981 62.7444 56.5815 62.8706C49.7721 63.1862 42.2279 63.7543 33.802 64.5118C31.1076 58.7045 28.6582 54.0965 25.229 49.2992C22.0938 44.7543 16.95 39.0101 16.1662 38.1264C16.1172 38.0633 16.0682 38.0002 16.0682 38.0002L16.1172 37.9371C16.1662 37.9371 16.1662 37.8739 16.2152 37.8739C16.901 37.1165 19.9873 33.7709 22.7796 30.2361C22.9266 30.0467 23.0245 29.9204 23.1715 29.7311C23.9063 28.7842 24.6411 27.7743 25.327 26.8274C28.7562 21.967 31.1566 17.4221 33.8999 11.6148C60.7455 14.0766 78.4793 13.9503 92 13.9503C105.521 13.9503 123.255 14.0766 150.1 11.6148C152.794 17.4221 155.244 22.0301 158.673 26.8274C162.543 32.1297 166.952 37.0533 167.736 37.8739C167.785 37.9371 167.785 37.9371 167.834 38.0002H167.883C167.54 38.3158 163.964 41.9138 158.673 49.1729C155.146 54.0965 152.746 58.6414 150.002 64.5118Z" fill="url(#paint4_linear_40_235)"/>
<path d="M167.785 38.0632C167.442 38.3789 163.817 41.9769 158.575 49.2991C155.146 54.0965 152.745 58.7044 150.002 64.5118C141.527 63.7543 133.983 63.2493 127.223 62.8706C125.606 62.8074 123.989 62.6812 122.471 62.6181C121.736 62.6181 120.952 62.5549 120.217 62.5549C118.699 62.4918 117.229 62.4287 115.759 62.4287C115.416 62.4287 115.024 62.4287 114.682 62.4287C110.077 62.3025 105.864 62.2393 101.994 62.2393C101.553 62.2393 101.112 62.2393 100.671 62.2393C97.5356 62.2393 94.6453 62.2393 91.902 62.2393H91.853C88.7178 62.2393 85.3376 62.2393 81.7124 62.2393C81.2715 62.2393 80.8306 62.2393 80.4387 62.2393C76.9606 62.2393 73.1885 62.3025 69.1224 62.4287C68.7795 62.4287 68.4366 62.4287 68.0447 62.4287C66.624 62.4918 65.1054 62.4918 63.5868 62.5549C62.8519 62.5549 62.1171 62.6181 61.3333 62.6181C59.8147 62.6812 58.198 62.7443 56.5814 62.8706C49.7721 63.1862 42.2279 63.7543 33.8019 64.5118C31.1075 58.7044 28.6581 54.0965 25.2289 49.2991C22.0937 44.7543 16.9499 39.0101 16.1661 38.1264C16.1171 38.0632 16.0681 38.0001 16.0681 38.0001L16.1171 37.937C16.1661 37.937 16.1661 37.8739 16.2151 37.8739C18.3216 35.6646 20.624 32.9503 22.7795 30.236C22.9265 30.0466 23.0245 29.9204 23.1714 29.731C23.9062 28.7842 24.6411 27.7742 25.3269 26.8274C28.7561 21.9669 31.1565 17.4221 33.8999 11.6147C60.7454 14.0765 78.4792 13.9503 92 13.9503C105.521 13.9503 123.255 14.0765 150.1 11.6147C152.794 17.4221 155.244 22.03 158.673 26.8274C161.367 30.6779 164.748 34.7809 167.736 37.8739C167.687 37.937 167.687 37.937 167.785 38.0632C167.736 38.0001 167.736 38.0001 167.785 38.0632Z" fill="url(#paint5_radial_40_235)"/>
<path d="M91.951 10.6678V13.9502C78.4303 13.9502 60.7455 14.0765 33.8509 11.6147L32.4792 7.76416L34.0469 7.89041C57.5123 10.0366 73.6294 10.6678 88.1789 10.6678H91.951Z" fill="url(#paint6_linear_40_235)"/>
<path d="M156.714 0.126343C153.039 4.16621 146.377 7.76422 136.041 3.72435C144.613 2.65126 149.414 2.33564 156.714 0.126343Z" fill="white"/>
<path d="M151.374 7.76416L150.002 11.6147C123.156 14.0765 105.423 13.9502 91.9019 13.9502V10.6678H95.7229C110.223 10.6678 126.341 10.0366 149.855 7.89041L151.374 7.76416Z" fill="url(#paint7_linear_40_235)"/>
<path d="M127.223 62.8705C126.831 62.8705 97.8295 64.5117 91.9509 64.5117V62.1761C94.6943 62.1761 97.5846 62.1761 100.72 62.1761C101.161 62.1761 101.602 62.1761 102.043 62.1761C105.913 62.1761 110.126 62.2393 114.73 62.3655C115.073 62.3655 115.416 62.3655 115.808 62.3655C117.229 62.4286 118.748 62.4286 120.266 62.4918C121.001 62.4918 121.736 62.5549 122.52 62.5549C124.038 62.6811 125.606 62.7443 127.223 62.8705Z" fill="white"/>
<path d="M91.9509 64.5118C86.4152 64.5118 57.2182 62.9337 56.6304 62.8706C58.247 62.8075 59.8146 62.6812 61.3822 62.6181C62.1171 62.6181 62.9009 62.555 63.6357 62.555C65.1543 62.4919 66.624 62.4287 68.0936 62.4287C68.4365 62.4287 68.8285 62.4287 69.1714 62.4287C73.2374 62.3025 77.0095 62.2394 80.4877 62.2394C80.9286 62.2394 81.3695 62.2394 81.7614 62.2394C85.3865 62.2394 88.7667 62.2394 91.9019 62.2394L91.9509 64.5118Z" fill="white"/>
<path opacity="0.5" d="M154.803 14.771C161.465 20.7045 165.335 21.5883 160.437 10.5417C163.229 16.2228 166.511 20.8308 170.822 26.4487C162.053 20.0733 155.93 17.8009 162.396 26.4487C159.212 22.4089 155.489 15.9703 154.803 14.771Z" fill="white"/>
<path d="M172.39 38.0633H167.736C167.736 38.0633 167.736 38.0633 167.687 38.0633C167.638 38.0001 167.638 38.0002 167.589 37.937C164.601 34.844 161.22 30.6779 158.526 26.8905C155.097 22.0301 152.696 17.4852 149.953 11.6779L151.325 7.82739L152.109 9.53171C152.99 11.3623 153.823 13.1297 154.754 14.834C154.803 14.9603 154.852 15.0234 154.901 15.1497C154.95 15.2128 154.95 15.2759 154.999 15.339C156.714 18.4952 158.526 21.3988 160.731 24.4287C160.78 24.555 160.878 24.6181 160.926 24.7443C161.269 25.2493 161.612 25.6912 162.004 26.1962L162.298 26.5749C164.454 29.4154 167.001 32.3822 170.038 35.6646L172.39 38.0633Z" fill="url(#paint8_linear_40_235)"/>
<path d="M27.1396 0.126343C30.8138 4.16621 37.4762 7.76422 47.8127 3.72435C39.2398 2.65126 34.4879 2.33564 27.1396 0.126343Z" fill="white"/>
<path opacity="0.5" d="M29.05 14.7709C22.3876 20.7044 18.5665 21.5882 23.4654 10.4785C20.673 16.1596 17.3908 20.7676 13.0798 26.3855C21.7997 20.0732 27.9233 17.8008 21.5058 26.4486C24.6411 22.4087 28.4132 15.9702 29.05 14.7709Z" fill="white"/>
<path d="M33.851 11.6147C31.1567 17.422 28.7073 22.0299 25.2781 26.8273C24.5922 27.7741 23.9064 28.7841 23.1226 29.7309C22.9756 29.9203 22.8777 30.0466 22.7307 30.2359C20.6242 33.0133 18.3217 35.6645 16.1663 37.8738C16.2152 37.9369 16.1663 37.9369 16.1663 38L16.1173 38.0632H11.4634L13.7658 35.6014C16.8031 32.2559 19.3505 29.2891 21.506 26.5117C21.604 26.3854 21.7019 26.2592 21.7999 26.1329C22.1428 25.6279 22.5347 25.1861 22.8777 24.6811C22.9266 24.618 23.0246 24.4917 23.0736 24.3655C25.3271 21.2725 27.1886 18.2426 28.9032 15.0864C28.9522 14.9602 29.0012 14.8971 29.0502 14.7708C29.932 13.0665 30.8137 11.3622 31.6955 9.46848L32.4794 7.76416L33.851 11.6147Z" fill="url(#paint9_linear_40_235)"/>
<path d="M150.737 2.46188C151.57 2.27251 152.256 1.89378 152.207 1.57816C152.207 1.51504 152.158 1.45192 152.06 1.38879C151.08 1.57816 150.149 1.83065 149.218 1.9569C149.169 2.02002 149.12 2.14627 149.12 2.20939C149.169 2.52501 149.904 2.65125 150.737 2.46188Z" fill="white"/>
<path d="M33.1162 2.46188C32.2834 2.27251 31.5975 1.89378 31.6465 1.57816C31.6465 1.51504 31.6955 1.45192 31.7935 1.38879C32.7732 1.57816 33.704 1.76753 34.6348 1.9569C34.6838 2.02002 34.7328 2.14627 34.7328 2.20939C34.6838 2.52501 33.949 2.65125 33.1162 2.46188Z" fill="white"/>
<path d="M64.4176 34.6472C63.2848 34.6472 62.7184 35.3162 62.7184 36.6541C62.7184 42.2009 62.8111 45.4675 62.9967 46.4539C63.1041 47.0496 63.2408 47.4939 63.4068 47.7869L63.8463 48.5632H58.6461C58.9586 47.821 59.1393 47.2009 59.1881 46.7029C59.2467 46.2048 59.2955 45.6726 59.3346 45.1062C59.4127 43.9539 59.4518 42.406 59.4518 40.4626C59.4518 38.1091 59.4127 35.9607 59.3346 34.0173L59.1734 29.989C59.1344 28.9734 59.0465 28.2654 58.9098 27.865C58.6949 27.2302 58.3434 26.6589 57.8551 26.1511H65.6041C67.9674 26.1511 69.6764 26.3855 70.7311 26.8542C71.8443 27.3425 72.401 28.1775 72.401 29.3591C72.401 30.3943 72.0152 31.366 71.2438 32.2742C70.5211 33.114 69.5738 33.783 68.402 34.281C68.5484 38.031 69.7252 41.6296 71.9322 45.0769C72.8795 46.571 73.8463 47.7332 74.8326 48.5632H69.3395C68.3824 47.2546 67.4986 44.6033 66.6881 40.6091C66.4146 39.2224 66.234 38.0701 66.1461 37.1521C66.068 36.2341 65.9996 35.6824 65.941 35.4968C65.8922 35.3015 65.8092 35.1453 65.692 35.0281C65.4576 34.7742 65.0328 34.6472 64.4176 34.6472ZM67.7867 32.0398C68.0602 31.7468 68.2506 31.4343 68.358 31.1023C68.4752 30.7703 68.5338 30.4529 68.5338 30.1501C68.5338 29.8376 68.4898 29.53 68.402 29.2273C68.3238 28.9148 68.1627 28.6414 67.9186 28.407C67.3814 27.8796 66.4439 27.616 65.1061 27.616C64.608 27.616 64.2027 27.6355 63.8902 27.6746C63.5875 27.7136 63.3482 27.821 63.1725 27.9968C62.8697 28.2898 62.7184 29.0369 62.7184 30.238C62.7184 31.2927 62.8307 31.9666 63.0553 32.2595C63.4557 32.7771 64.0611 33.0359 64.8717 33.0359C65.6822 33.0359 66.3023 32.9431 66.732 32.7576C67.1715 32.5623 67.523 32.323 67.7867 32.0398ZM85.9432 43.5828C86.2947 43.8171 86.4705 44.2273 86.4705 44.8132C86.4705 45.3894 86.3924 45.8972 86.2361 46.3367C86.0799 46.7761 85.8064 47.1863 85.4158 47.5671C84.5369 48.4265 83.199 48.8562 81.4021 48.8562C79.3123 48.8562 77.7205 48.0847 76.6268 46.5417C75.66 45.1648 75.1766 43.3044 75.1766 40.9607C75.1766 38.5974 75.8309 36.7419 77.1395 35.3943C78.3797 34.115 80.0594 33.4753 82.1785 33.4753C83.6531 33.4753 84.8055 33.905 85.6355 34.7644C86.2898 35.448 86.617 36.239 86.617 37.1375C86.617 38.0261 86.4412 38.8318 86.0896 39.5544C85.7479 40.2673 85.24 40.8826 84.5662 41.4001C83.1795 42.4744 81.241 43.0408 78.7508 43.0994C78.9559 45.0623 79.5711 46.3757 80.5965 47.0398C80.9676 47.2742 81.4607 47.3914 82.076 47.3914C82.6912 47.3914 83.3455 47.0691 84.0389 46.4246C84.7322 45.78 85.367 44.8328 85.9432 43.5828ZM78.6629 41.7078C81.7488 41.5027 83.2918 40.0085 83.2918 37.2253C83.2918 36.1804 82.9793 35.4773 82.3543 35.116C82.1395 34.9988 81.8563 34.9402 81.5047 34.9402C81.1531 34.9402 80.7967 35.0476 80.4354 35.2625C80.0838 35.4773 79.7762 35.8289 79.5125 36.3171C78.9461 37.3816 78.6629 39.0271 78.6629 41.2537V41.7078ZM100.892 40.741L100.848 43.5535C100.848 45.3015 101.009 46.4929 101.331 47.1277C101.526 47.5085 101.756 47.8015 102.02 48.0066L102.708 48.5632H98.46L98.0059 46.864C96.9023 48.1921 95.3301 48.8562 93.2891 48.8562C92.127 48.8562 91.1895 48.4656 90.4766 47.6843C89.8516 46.9812 89.5391 46.1511 89.5391 45.1941C89.5391 44.2371 89.7637 43.4021 90.2129 42.6892C90.6719 41.9763 91.2725 41.3855 92.0146 40.9167C93.4795 40.0085 95.3203 39.5349 97.5371 39.4958V39.3347C97.5371 36.9617 97.1709 35.5701 96.4385 35.1599C96.1748 35.0134 95.833 34.9402 95.4131 34.9402C95.0029 34.9402 94.5928 35.0769 94.1826 35.3503C93.7725 35.6238 93.4014 35.9753 93.0693 36.405C92.4053 37.2742 91.9316 38.2996 91.6484 39.4812C90.7793 38.9636 90.3447 37.9724 90.3447 36.5076C90.3447 35.9119 90.4229 35.2429 90.5791 34.5007C90.9502 34.5007 91.3018 34.447 91.6338 34.3396L92.7617 33.988C93.8652 33.6462 94.9443 33.4753 95.999 33.4753C97.0537 33.4753 97.8936 33.6316 98.5186 33.9441C99.1533 34.2566 99.6465 34.7205 99.998 35.3357C100.594 36.3806 100.892 38.1824 100.892 40.741ZM92.7031 45.4871C92.7031 46.0925 92.8398 46.5613 93.1133 46.8933C93.3965 47.2253 93.748 47.3914 94.168 47.3914C94.5879 47.3914 94.9932 47.2839 95.3838 47.0691C95.7744 46.8445 96.126 46.5417 96.4385 46.1609C97.1709 45.2917 97.5371 44.2712 97.5371 43.0994V40.9314C96.1699 41.0583 95.042 41.5125 94.1533 42.2937C93.1865 43.1335 92.7031 44.198 92.7031 45.4871ZM114.741 32.8894C114.986 33.4753 115.108 34.1199 115.108 34.823C115.108 35.5164 115.083 36.0925 115.034 36.5515C114.986 37.0105 114.912 37.4548 114.815 37.8845C114.61 38.7927 114.292 39.5203 113.863 40.0671C113.433 37.4109 112.735 35.7996 111.768 35.2332C111.426 35.0378 111.055 34.9402 110.654 34.9402C110.264 34.9402 109.922 35.033 109.629 35.2185C109.336 35.4041 109.087 35.6726 108.882 36.0242C108.462 36.7273 108.252 37.6404 108.252 38.7634C108.252 39.8767 108.364 40.8386 108.589 41.6492C108.814 42.45 109.107 43.1726 109.468 43.8171C109.839 44.4519 110.254 45.0037 110.713 45.4724C111.182 45.9314 111.651 46.3171 112.119 46.6296C113.067 47.2351 113.906 47.5378 114.639 47.5378C114.6 47.7917 114.473 48.0408 114.258 48.2849C114.043 48.5291 113.809 48.7195 113.555 48.8562C112.52 48.8562 111.333 48.5046 109.995 47.8015C107.505 46.4832 105.825 44.5593 104.956 42.03C104.634 41.1023 104.473 40.155 104.473 39.1882C104.473 38.2117 104.585 37.3914 104.81 36.7273C105.034 36.0535 105.362 35.4773 105.791 34.9988C106.67 33.9832 107.891 33.4753 109.453 33.4753C109.981 33.4753 110.493 33.5095 110.991 33.5779C111.929 33.7048 112.583 33.7683 112.954 33.7683C113.335 33.7683 113.672 33.7195 113.965 33.6218C114.258 33.5144 114.517 33.2703 114.741 32.8894ZM122.585 27.9089C122.38 28.6609 122.278 29.5642 122.278 30.6189C122.278 31.6638 122.297 32.3328 122.336 32.6257C122.385 32.9187 122.458 33.1531 122.556 33.3289C122.742 33.6218 123.103 33.7683 123.64 33.7683H127.566C127.566 34.3152 127.434 34.7351 127.17 35.0281C126.692 35.5554 126.106 35.8191 125.413 35.8191C125.071 35.8191 124.768 35.7703 124.504 35.6726C124.026 35.4773 123.655 35.3796 123.391 35.3796C123.127 35.3796 122.913 35.4333 122.746 35.5408C122.58 35.6384 122.449 35.7849 122.351 35.9802C122.175 36.3318 122.087 37.0984 122.087 38.28C122.087 39.4617 122.121 40.6726 122.19 41.9128C122.268 43.1531 122.454 44.1931 122.746 45.033C123.039 45.863 123.484 46.488 124.079 46.908C124.675 47.3279 125.496 47.5378 126.54 47.5378C126.54 47.8406 126.335 48.2019 125.925 48.6218C125.818 48.739 125.725 48.8171 125.647 48.8562C123.918 48.8562 122.624 48.6511 121.765 48.241C120.779 47.7527 120.076 46.8835 119.656 45.6335C119.236 44.364 119.026 42.4841 119.026 39.9939C119.026 37.8162 118.967 36.532 118.85 36.1414C118.733 35.741 118.625 35.4773 118.528 35.3503C118.411 35.2039 118.127 35.0232 117.678 34.8083C118.284 34.3494 118.884 33.4949 119.48 32.2449L120.212 30.7068C120.73 29.5349 121.169 28.7781 121.531 28.4363C121.902 28.0847 122.253 27.9089 122.585 27.9089Z" fill="#CCA2A2"/>
<defs>
<linearGradient id="paint0_linear_40_235" x1="91.9357" y1="75.9496" x2="91.9357" y2="0.12636" gradientUnits="userSpaceOnUse">
<stop offset="0.0139665" stop-color="#737FBA"/>
<stop offset="1" stop-color="#C4E1F5"/>
</linearGradient>
<linearGradient id="paint1_linear_40_235" x1="12.1415" y1="44.8884" x2="28.9489" y2="62.8799" gradientUnits="userSpaceOnUse">
<stop stop-color="#404F7E"/>
<stop offset="0.9358" stop-color="#7C97C8"/>
</linearGradient>
<radialGradient id="paint2_radial_40_235" cx="0" cy="0" r="1" gradientUnits="userSpaceOnUse" gradientTransform="translate(91.9674 70.639) scale(45.9343 59.1878)">
<stop offset="0.0642458" stop-color="#7C97C8"/>
<stop offset="1" stop-color="#2B3554"/>
</radialGradient>
<linearGradient id="paint3_linear_40_235" x1="171.875" y1="44.8884" x2="155.068" y2="62.8799" gradientUnits="userSpaceOnUse">
<stop stop-color="#404F7E"/>
<stop offset="0.9358" stop-color="#7C97C8"/>
</linearGradient>
<linearGradient id="paint4_linear_40_235" x1="91.9333" y1="68.3307" x2="91.9333" y2="7.74536" gradientUnits="userSpaceOnUse">
<stop stop-color="#C4E1F5"/>
<stop offset="0.986" stop-color="#737FBA"/>
</linearGradient>
<radialGradient id="paint5_radial_40_235" cx="0" cy="0" r="1" gradientUnits="userSpaceOnUse" gradientTransform="translate(91.9333 38.038) scale(65.1772 83.9828)">
<stop stop-color="#D50C10"/>
<stop offset="1" stop-color="#3F0005"/>
</radialGradient>
<linearGradient id="paint6_linear_40_235" x1="32.4811" y1="10.8388" x2="91.9333" y2="10.8388" gradientUnits="userSpaceOnUse">
<stop stop-color="#2B3554"/>
<stop offset="0.9358" stop-color="#7C97C8"/>
</linearGradient>
<linearGradient id="paint7_linear_40_235" x1="91.9331" y1="10.8388" x2="151.385" y2="10.8388" gradientUnits="userSpaceOnUse">
<stop stop-color="#2B3554"/>
<stop offset="0.9358" stop-color="#7C97C8"/>
</linearGradient>
<linearGradient id="paint8_linear_40_235" x1="153.514" y1="15.0454" x2="171.334" y2="30.6331" gradientUnits="userSpaceOnUse">
<stop stop-color="#404F7E"/>
<stop offset="0.9358" stop-color="#7C97C8"/>
</linearGradient>
<linearGradient id="paint9_linear_40_235" x1="21.5704" y1="22.3137" x2="25.4064" y2="25.6692" gradientUnits="userSpaceOnUse">
<stop stop-color="#404F7E"/>
<stop offset="0.9358" stop-color="#7C97C8"/>
</linearGradient>
</defs>
</svg>
