<svg width="254" height="77" viewBox="0 0 254 77" fill="none" xmlns="http://www.w3.org/2000/svg">
<path d="M235.674 26.3224C232.63 23.6081 229.79 20.7676 227.288 17.8639C227.22 17.8008 227.22 17.7376 227.153 17.6745C225.192 15.4021 223.366 13.1297 221.81 10.9204C221.743 10.8573 221.743 10.7941 221.675 10.731C221.608 10.6679 221.54 10.6048 221.54 10.4785C221.54 10.4785 221.54 10.4785 221.54 10.4154C218.767 6.37552 216.874 2.7144 216.468 0.0632324C214.845 0.505093 212.681 0.88383 210.044 1.32569C209.638 1.38881 209.232 1.45194 208.759 1.51506C208.624 1.51506 208.488 1.57818 208.353 1.57818C208.285 1.57818 208.285 1.57818 208.218 1.57818C205.513 1.95692 202.334 2.33566 198.886 2.7144C198.818 2.7144 198.683 2.7144 198.615 2.7144C195.301 3.03001 191.717 3.34562 187.93 3.66124C170.145 5.04994 147.558 5.93366 127 5.93366C106.442 5.93366 83.8552 4.98682 66.0698 3.66124C62.2827 3.34562 58.6986 3.03001 55.385 2.7144C55.3174 2.7144 55.1821 2.7144 55.1145 2.7144C51.4627 2.39878 48.2167 2.02004 45.3765 1.57818C45.3088 1.57818 45.2412 1.57818 45.106 1.51506C44.7002 1.45194 44.2268 1.38881 43.8211 1.32569C41.1837 0.946953 39.0197 0.505093 37.3967 0.0632324C36.9909 2.77752 35.0974 6.43865 32.3248 10.4154V10.4785C32.2572 10.5416 32.1896 10.6048 32.1896 10.731C32.1219 10.7941 32.1219 10.8573 32.0543 10.9204C30.4989 13.1297 28.6731 15.4021 26.7119 17.6745C26.6443 17.7376 26.6443 17.8008 26.5767 17.8639C24.0069 20.7676 21.2343 23.6081 18.2588 26.2592C18.2588 26.2592 18.2588 26.2592 18.1912 26.3224C12.2401 31.6247 5.74814 36.0433 0 38.0632C15.3509 43.4287 35.9089 66.216 37.4643 76.0001C47.8786 73.2858 80.7444 70.824 112.461 70.2559L126.932 70.319H130.719H131.937H141.404C143.906 70.3822 146.341 70.4453 148.843 70.5084C149.857 70.5084 150.804 70.5715 151.818 70.5715C152.833 70.5715 153.78 70.6347 154.794 70.6347C155.741 70.6978 156.755 70.6978 157.702 70.7609C158.175 70.7609 158.716 70.824 159.19 70.824C160.136 70.8872 161.151 70.8871 162.097 70.9503C162.571 70.9503 163.112 71.0134 163.585 71.0134C168.928 71.2659 174.067 71.5184 179.004 71.834C179.004 71.834 179.004 71.834 179.071 71.834C196.113 72.9071 210.179 74.422 216.333 76.0632C216.333 76.0632 216.333 76.0632 216.333 76.0001C216.333 76.0001 216.333 75.937 216.333 75.8739C218.091 66.0267 238.446 43.4287 253.73 38.1264C248.049 36.0433 241.625 31.6247 235.674 26.3224ZM231.548 38.0632C231.007 38.5051 224.718 43.6812 218.835 49.236C214.101 54.0333 210.788 58.6413 207.001 64.4486C195.301 63.6911 184.887 63.1862 175.555 62.8074C173.323 62.7443 171.092 62.618 168.995 62.5549C167.981 62.5549 166.899 62.4918 165.884 62.4918C163.788 62.4287 161.759 62.3656 159.731 62.3656C159.257 62.3656 158.716 62.3656 158.243 62.3656C151.886 62.2393 146.07 62.1762 140.728 62.1762C140.119 62.1762 139.511 62.1762 138.902 62.1762C134.574 62.1762 130.584 62.1762 126.797 62.1762H126.729C122.401 62.1762 117.735 62.1762 112.731 62.1762C112.122 62.1762 111.514 62.1762 110.973 62.1762C106.171 62.1762 100.964 62.2393 95.3514 62.3656C94.8781 62.3656 94.4047 62.3656 93.8637 62.3656C91.9026 62.4287 89.8062 62.4287 87.7098 62.4918C86.6954 62.4918 85.681 62.5549 84.599 62.5549C82.5027 62.618 80.271 62.6812 78.0394 62.8074C68.6395 63.123 58.2252 63.6911 46.5937 64.4486C42.8743 58.6413 39.4931 54.0333 34.7593 49.236C31.7162 46.2061 23.4659 39.0732 22.3163 38.1264C22.2487 38.0632 22.181 38.0001 22.181 38.0001L22.2487 37.937C23.1278 37.1795 30.8371 30.741 34.8946 26.8274C39.6283 21.9669 42.942 17.422 46.729 11.6147C83.7875 14.0765 108.268 13.9503 126.932 13.9503C145.597 13.9503 170.077 14.0765 207.136 11.6147C210.855 17.422 214.236 22.03 218.97 26.8274C224.38 32.0666 231.143 37.6845 231.548 38.0632C231.616 38.0632 231.616 38.0001 231.548 38.0632C231.616 38.0632 231.616 38.0632 231.548 38.0632Z" fill="url(#paint0_linear_40_130)"/>
<path d="M15.8243 38.0632H0C15.3509 43.4287 35.9089 66.2161 37.4643 76.0001C37.4643 76.0001 41.86 71.5184 44.8355 68.3622C39.4255 54.9171 19.0027 39.3257 15.8243 38.0632Z" fill="url(#paint1_linear_40_130)"/>
<path d="M209.097 68.3622C209.097 68.3622 178.598 65.3323 130.043 65.3323C81.4883 65.3323 44.9031 68.3622 44.9031 68.3622C44.9031 68.3622 40.7104 72.9701 37.532 76C47.9463 73.2858 80.8121 70.824 112.528 70.2559H130.99H141.472C173.256 70.824 206.054 73.2858 216.468 76C213.29 72.907 209.097 68.3622 209.097 68.3622Z" fill="url(#paint2_radial_40_130)"/>
<path d="M238.176 38.0632H254C238.649 43.4287 218.091 66.2161 216.536 76.0001C216.536 76.0001 212.14 71.5184 209.165 68.3622C214.642 54.9171 234.997 39.3257 238.176 38.0632Z" fill="url(#paint3_linear_40_130)"/>
<path d="M234.862 35.5384C230.669 32.1929 227.153 29.2261 224.177 26.4487L223.772 26.0699C223.298 25.565 222.757 25.1231 222.284 24.6181C222.149 24.555 222.081 24.4287 222.013 24.3025C218.97 21.2726 216.4 18.3058 214.101 15.2128C214.033 15.1497 213.966 15.0866 213.966 15.0234C213.898 14.8972 213.831 14.8341 213.763 14.7078C212.546 13.0035 211.329 11.2992 210.111 9.40549L209.029 7.70117L206.865 7.82742C174.473 9.9736 152.224 10.6048 132.139 10.6048H121.658C101.641 10.6048 79.3918 9.9736 46.9318 7.82742L44.7678 7.70117L43.6858 9.40549C42.4685 11.2361 41.3189 13.0035 40.034 14.7078C39.9664 14.8341 39.8988 14.8972 39.8311 15.0234C37.4643 18.2427 34.8945 21.2095 31.7837 24.3025C31.7161 24.4287 31.5809 24.4919 31.5132 24.6181C31.0399 25.1231 30.5665 25.565 30.0255 26.0699C29.8902 26.1962 29.755 26.3224 29.6197 26.4487C26.6442 29.2892 23.1277 32.256 18.935 35.5384L15.7566 38.0002L18.935 40.5251C31.5132 50.4985 37.6671 57.1895 43.6858 66.5949L44.7678 68.2992H44.903L46.9318 68.1729C58.7662 67.4155 69.1805 66.7842 78.7156 66.4055C79.1213 66.4055 79.5947 66.3424 80.0005 66.3424C91.632 65.8374 101.911 65.5849 111.379 65.4586H111.987C118.547 65.4586 132.478 65.4586 142.418 65.4586C159.866 65.648 179.815 66.4055 206.798 68.1729L208.962 68.2992L209.57 67.3523L210.044 66.5949C216.13 57.1264 222.216 50.4354 234.794 40.5251L237.635 38.3158L237.973 38.0633L234.862 35.5384ZM207.068 64.5118C195.369 63.7543 184.955 63.2493 175.622 62.8706C173.391 62.8075 171.159 62.6812 169.063 62.6181C168.048 62.6181 166.966 62.555 165.952 62.555C163.856 62.4919 161.827 62.4287 159.798 62.4287C159.325 62.4287 158.784 62.4287 158.31 62.4287C151.954 62.3025 146.138 62.2394 140.795 62.2394C140.187 62.2394 139.578 62.2394 138.97 62.2394C134.642 62.2394 130.652 62.2394 126.865 62.2394H126.797C122.469 62.2394 117.803 62.2394 112.799 62.2394C112.19 62.2394 111.581 62.2394 111.04 62.2394C106.239 62.2394 101.032 62.3025 95.419 62.4287C94.9456 62.4287 94.4722 62.4287 93.9312 62.4287C91.9701 62.4919 89.8737 62.4919 87.7774 62.555C86.763 62.555 85.7486 62.6181 84.6666 62.6181C82.5702 62.6812 80.3386 62.7444 78.107 62.8706C68.7071 63.1862 58.2928 63.7543 46.6613 64.5118C42.9419 58.7045 39.5606 54.0965 34.8269 49.2992C30.4989 44.7543 23.3982 39.0101 22.3162 38.1264C22.2486 38.0633 22.181 38.0002 22.181 38.0002L22.2486 37.9371C22.3162 37.9371 22.3162 37.8739 22.3839 37.8739C23.3306 37.1165 27.591 33.7709 31.4456 30.2361C31.6485 30.0467 31.7837 29.9204 31.9866 29.7311C33.001 28.7842 34.0154 27.7743 34.9621 26.8274C39.6959 21.967 43.0095 17.4221 46.7965 11.6148C83.8551 14.0766 108.335 13.9503 127 13.9503C145.664 13.9503 170.145 14.0766 207.203 11.6148C210.923 17.4221 214.304 22.0301 219.038 26.8274C224.38 32.1297 230.466 37.0533 231.548 37.8739C231.616 37.9371 231.616 37.9371 231.684 38.0002H231.751C231.278 38.3158 226.341 41.9138 219.038 49.1729C214.169 54.0965 210.855 58.6414 207.068 64.5118Z" fill="url(#paint4_linear_40_130)"/>
<path d="M231.616 38.0632C231.143 38.3789 226.139 41.9769 218.903 49.2991C214.169 54.0965 210.855 58.7044 207.068 64.5118C195.369 63.7543 184.955 63.2493 175.623 62.8706C173.391 62.8074 171.159 62.6812 169.063 62.6181C168.049 62.6181 166.967 62.5549 165.952 62.5549C163.856 62.4918 161.827 62.4287 159.798 62.4287C159.325 62.4287 158.784 62.4287 158.311 62.4287C151.954 62.3025 146.138 62.2393 140.796 62.2393C140.187 62.2393 139.578 62.2393 138.97 62.2393C134.642 62.2393 130.652 62.2393 126.865 62.2393H126.797C122.469 62.2393 117.803 62.2393 112.799 62.2393C112.19 62.2393 111.582 62.2393 111.041 62.2393C106.239 62.2393 101.032 62.3025 95.4192 62.4287C94.9458 62.4287 94.4724 62.4287 93.9314 62.4287C91.9703 62.4918 89.8739 62.4918 87.7775 62.5549C86.7632 62.5549 85.7488 62.6181 84.6668 62.6181C82.5704 62.6812 80.3388 62.7443 78.1071 62.8706C68.7072 63.1862 58.293 63.7543 46.6615 64.5118C42.9421 58.7044 39.5608 54.0965 34.8271 49.2991C30.499 44.7543 23.3984 39.0101 22.3164 38.1264C22.2488 38.0632 22.1812 38.0001 22.1812 38.0001L22.2488 37.937C22.3164 37.937 22.3164 37.8739 22.384 37.8739C25.2919 35.6646 28.4703 32.9503 31.4458 30.236C31.6487 30.0466 31.7839 29.9204 31.9868 29.731C33.0012 28.7842 34.0156 27.7742 34.9623 26.8274C39.6961 21.9669 43.0097 17.4221 46.7967 11.6147C83.8553 14.0765 108.336 13.9503 127 13.9503C145.665 13.9503 170.145 14.0765 207.204 11.6147C210.923 17.4221 214.304 22.03 219.038 26.8274C222.757 30.6779 227.423 34.7809 231.549 37.8739C231.481 37.937 231.481 37.937 231.616 38.0632C231.549 38.0001 231.549 38.0001 231.616 38.0632Z" fill="url(#paint5_radial_40_130)"/>
<path d="M126.932 10.6678V13.9502C108.268 13.9502 83.8552 14.0765 46.729 11.6147L44.8354 7.76416L46.9995 7.89041C79.3919 10.0366 101.641 10.6678 121.725 10.6678H126.932Z" fill="url(#paint6_linear_40_130)"/>
<path d="M216.333 0.126343C211.261 4.16621 202.064 7.76422 187.795 3.72435C199.629 2.65126 206.257 2.33564 216.333 0.126343Z" fill="white"/>
<path d="M208.962 7.76416L207.068 11.6147C170.01 14.0765 145.529 13.9502 126.865 13.9502V10.6678H132.139C152.157 10.6678 174.405 10.0366 206.865 7.89041L208.962 7.76416Z" fill="url(#paint7_linear_40_130)"/>
<path d="M175.622 62.8705C175.081 62.8705 135.047 64.5117 126.932 64.5117V62.1761C130.719 62.1761 134.709 62.1761 139.037 62.1761C139.646 62.1761 140.255 62.1761 140.863 62.1761C146.206 62.1761 152.021 62.2393 158.378 62.3655C158.851 62.3655 159.325 62.3655 159.866 62.3655C161.827 62.4286 163.923 62.4286 166.02 62.4918C167.034 62.4918 168.048 62.5549 169.13 62.5549C171.227 62.6811 173.391 62.7443 175.622 62.8705Z" fill="white"/>
<path d="M126.932 64.5118C119.291 64.5118 78.9861 62.9337 78.1746 62.8706C80.4062 62.8075 82.5702 62.6812 84.7342 62.6181C85.7486 62.6181 86.8306 62.555 87.845 62.555C89.9413 62.4919 91.9701 62.4287 93.9988 62.4287C94.4722 62.4287 95.0132 62.4287 95.4866 62.4287C101.099 62.3025 106.307 62.2394 111.108 62.2394C111.717 62.2394 112.325 62.2394 112.866 62.2394C117.871 62.2394 122.537 62.2394 126.865 62.2394L126.932 64.5118Z" fill="white"/>
<path opacity="0.5" d="M213.695 14.771C222.892 20.7045 228.235 21.5883 221.472 10.5417C225.327 16.2228 229.858 20.8308 235.809 26.4487C223.704 20.0733 215.251 17.8009 224.177 26.4487C219.782 22.4089 214.642 15.9703 213.695 14.771Z" fill="white"/>
<path d="M237.973 38.0633H231.548C231.548 38.0633 231.548 38.0633 231.481 38.0633C231.413 38.0001 231.413 38.0002 231.346 37.937C227.22 34.844 222.554 30.6779 218.835 26.8905C214.101 22.0301 210.787 17.4852 207 11.6779L208.894 7.82739L209.976 9.53171C211.193 11.3623 212.343 13.1297 213.628 14.834C213.695 14.9603 213.763 15.0234 213.831 15.1497C213.898 15.2128 213.898 15.2759 213.966 15.339C216.333 18.4952 218.835 21.3988 221.878 24.4287C221.946 24.555 222.081 24.6181 222.149 24.7443C222.622 25.2493 223.095 25.6912 223.636 26.1962L224.042 26.5749C227.018 29.4154 230.534 32.3822 234.727 35.6646L237.973 38.0633Z" fill="url(#paint8_linear_40_130)"/>
<path d="M37.4644 0.126343C42.5362 4.16621 51.7333 7.76422 66.0022 3.72435C54.1678 2.65126 47.6081 2.33564 37.4644 0.126343Z" fill="white"/>
<path opacity="0.5" d="M40.1017 14.7709C30.9047 20.7044 25.6299 21.5882 32.3924 10.4785C28.5378 16.1596 24.0069 20.7676 18.0559 26.3855C30.0932 20.0732 38.5463 17.8008 29.6874 26.4486C34.0154 22.4087 39.2226 15.9702 40.1017 14.7709Z" fill="white"/>
<path d="M46.7289 11.6147C43.0095 17.422 39.6283 22.0299 34.8945 26.8273C33.9478 27.7741 33.001 28.7841 31.919 29.7309C31.7161 29.9203 31.5809 30.0466 31.378 30.2359C28.4701 33.0133 25.2917 35.6645 22.3162 37.8738C22.3839 37.9369 22.3162 37.9369 22.3162 38L22.2486 38.0632H15.8242L19.0026 35.6014C23.1954 32.2559 26.7119 29.2891 29.6874 26.5117C29.8226 26.3854 29.9579 26.2592 30.0931 26.1329C30.5665 25.6279 31.1075 25.1861 31.5809 24.6811C31.6485 24.618 31.7837 24.4917 31.8514 24.3655C34.9621 21.2725 37.5319 18.2426 39.8988 15.0864C39.9664 14.9602 40.034 14.8971 40.1016 14.7708C41.3189 13.0665 42.5361 11.3622 43.7534 9.46848L44.8354 7.76416L46.7289 11.6147Z" fill="url(#paint9_linear_40_130)"/>
<path d="M208.082 2.46188C209.232 2.27251 210.179 1.89378 210.111 1.57816C210.111 1.51504 210.044 1.45192 209.908 1.38879C208.556 1.57816 207.271 1.83065 205.986 1.9569C205.918 2.02002 205.851 2.14627 205.851 2.20939C205.918 2.52501 206.933 2.65125 208.082 2.46188Z" fill="white"/>
<path d="M45.7145 2.46188C44.5649 2.27251 43.6182 1.89378 43.6858 1.57816C43.6858 1.51504 43.7534 1.45192 43.8887 1.38879C45.2412 1.57816 46.526 1.76753 47.8109 1.9569C47.8785 2.02002 47.9462 2.14627 47.9462 2.20939C47.8785 2.52501 46.8642 2.65125 45.7145 2.46188Z" fill="white"/>
<path d="M71.5492 31.2341C71.5102 32.6599 71.4906 34.1345 71.4906 35.658C71.4906 37.738 71.5248 39.9792 71.5932 42.3816C71.6615 44.7839 71.7104 46.1511 71.7396 46.4832C71.7787 46.8054 71.8275 47.0886 71.8861 47.3328C71.9936 47.782 72.1693 48.1921 72.4135 48.5632H68.3266C68.6977 48.0359 68.9174 47.4695 68.9857 46.864C69.0639 46.2585 69.1225 45.6726 69.1615 45.1062C69.2396 43.9539 69.2787 42.406 69.2787 40.4626C69.2787 38.1091 69.2396 35.9607 69.1615 34.0173L69.0004 29.989C68.9418 28.5046 68.7025 27.45 68.2826 26.825C68.1264 26.5906 67.9262 26.366 67.682 26.1511H73.4096C73.7904 27.821 74.2641 29.5935 74.8305 31.4685L77.4965 39.9792L81.5834 26.1511H87.2963C86.8178 26.571 86.5053 27.0007 86.3588 27.4402C86.1439 28.114 86.0219 28.8953 85.9926 29.7839L85.89 32.3767C85.7631 35.4138 85.6996 38.1091 85.6996 40.4626C85.6996 44.408 85.8803 46.9128 86.2416 47.9773C86.31 48.1726 86.3979 48.3679 86.5053 48.5632H81.891C82.1547 48.0457 82.3012 47.489 82.3305 46.8933C82.3695 46.2878 82.4037 45.4578 82.433 44.4031C82.5502 40.9363 82.6088 38.4119 82.6088 36.8298C82.6088 34.2224 82.5844 32.2839 82.5355 31.0144L77.1449 48.5632L74.2885 39.5691L71.5492 31.2341ZM96.6197 34.9402C95.7408 34.9402 95.1061 35.3796 94.7154 36.2585C94.3346 37.1375 94.1441 38.6169 94.1441 40.697C94.1441 45.1599 94.9693 47.3914 96.6197 47.3914C97.4986 47.3914 98.1285 46.7957 98.5094 45.6042C98.9 44.4128 99.0953 42.7771 99.0953 40.697C99.0953 38.6169 98.9 37.1375 98.5094 36.2585C98.1285 35.3796 97.4986 34.9402 96.6197 34.9402ZM90.4527 40.1404C90.4527 35.697 92.5084 33.4753 96.6197 33.4753C100.731 33.4753 102.787 35.697 102.787 40.1404C102.787 42.8357 102.22 44.9695 101.087 46.5417C99.984 48.0847 98.4947 48.8562 96.6197 48.8562C94.7447 48.8562 93.2555 48.0847 92.152 46.5417C91.0191 44.9695 90.4527 42.8357 90.4527 40.1404ZM106.763 48.5632C107.213 47.0203 107.437 44.3689 107.437 40.6091C107.437 37.9333 107.203 36.1072 106.734 35.1306C106.617 34.8865 106.485 34.657 106.339 34.4421L105.855 33.7683H110.938C110.792 34.2566 110.694 34.7156 110.645 35.1453L110.528 36.2C111.71 34.3835 113.214 33.4753 115.04 33.4753C116.221 33.4753 117.144 33.9343 117.808 34.8523C118.453 35.7507 118.775 36.9666 118.775 38.4998V40.0671C118.775 42.7527 118.8 44.3933 118.848 44.989C118.897 45.5847 118.936 46.0388 118.966 46.3513C118.995 46.6638 119.029 46.9421 119.068 47.1863C119.137 47.6453 119.239 48.1042 119.376 48.5632H115.084C115.533 47.0203 115.758 44.3689 115.758 40.6091C115.758 39.1052 115.66 38.075 115.465 37.5183C115.279 36.9617 115.054 36.5662 114.791 36.3318C114.527 36.0876 114.18 35.9656 113.751 35.9656C112.96 35.9656 112.242 36.2781 111.597 36.9031C111.041 37.4402 110.616 38.1238 110.323 38.9539C110.304 39.2175 110.294 39.491 110.294 39.7742V40.6091C110.294 44.3689 110.518 47.0203 110.968 48.5632H106.763ZM130.882 48.2117C129.935 48.6414 129.002 48.8562 128.084 48.8562C127.166 48.8562 126.404 48.739 125.799 48.5046C125.193 48.2703 124.676 47.9285 124.246 47.4792C123.348 46.5417 122.898 45.2478 122.898 43.5974C122.898 40.4138 123.812 37.9333 125.638 36.156C127.269 34.5642 129.231 33.7683 131.526 33.7683H134.866C134.593 34.7156 134.437 35.6238 134.397 36.4929C134.358 37.3621 134.329 38.075 134.31 38.6316C134.3 39.1785 134.29 39.7351 134.28 40.3015C134.261 41.4343 134.251 42.5916 134.251 43.7732C134.251 44.9548 134.158 46.1023 133.973 47.2156C133.787 48.3191 133.538 49.2859 133.226 50.116C132.923 50.946 132.571 51.6541 132.171 52.24C131.78 52.8259 131.37 53.3191 130.94 53.7195C130.237 54.3738 129.422 54.8523 128.494 55.155C128.299 55.0769 128.108 54.9353 127.923 54.7302C127.747 54.5251 127.64 54.325 127.601 54.1296C128.714 53.6804 129.598 52.5623 130.252 50.7751C130.506 50.0818 130.716 49.2273 130.882 48.2117ZM131.204 43.6707L131.248 39.2761C131.248 37.5085 131.185 36.1707 131.058 35.2625C129.671 35.5359 128.577 36.3562 127.776 37.7234C126.966 39.1199 126.561 40.8826 126.561 43.0115C126.561 44.3298 126.658 45.2625 126.854 45.8093C127.059 46.3562 127.298 46.7566 127.571 47.0105C127.854 47.2644 128.191 47.3914 128.582 47.3914C128.982 47.3914 129.334 47.3132 129.637 47.157C129.939 47.0007 130.208 46.7664 130.442 46.4539C130.95 45.78 131.204 44.8523 131.204 43.6707ZM144.512 34.9402C143.633 34.9402 142.998 35.3796 142.608 36.2585C142.227 37.1375 142.036 38.6169 142.036 40.697C142.036 45.1599 142.862 47.3914 144.512 47.3914C145.391 47.3914 146.021 46.7957 146.402 45.6042C146.792 44.4128 146.987 42.7771 146.987 40.697C146.987 38.6169 146.792 37.1375 146.402 36.2585C146.021 35.3796 145.391 34.9402 144.512 34.9402ZM138.345 40.1404C138.345 35.697 140.401 33.4753 144.512 33.4753C148.623 33.4753 150.679 35.697 150.679 40.1404C150.679 42.8357 150.112 44.9695 148.98 46.5417C147.876 48.0847 146.387 48.8562 144.512 48.8562C142.637 48.8562 141.148 48.0847 140.044 46.5417C138.911 44.9695 138.345 42.8357 138.345 40.1404ZM158.684 30.0916L158.699 44.6814C158.708 45.238 158.772 45.658 158.889 45.9412C159.006 46.2244 159.25 46.366 159.621 46.366C161.36 46.366 162.712 45.2625 163.679 43.0554C164.617 40.907 165.085 37.9285 165.085 34.1199C165.085 32.1179 164.851 30.5994 164.382 29.5642C163.747 28.1677 162.644 27.4695 161.072 27.4695C160.066 27.4695 159.446 27.5867 159.211 27.821C158.987 28.0554 158.84 28.3484 158.772 28.7C158.713 29.0417 158.684 29.5056 158.684 30.0916ZM154.612 48.5632C154.924 47.821 155.105 47.2009 155.154 46.7029C155.212 46.2048 155.261 45.6726 155.3 45.1062C155.378 43.9539 155.417 42.406 155.417 40.4626C155.417 38.1091 155.378 35.9607 155.3 34.0173L155.139 29.989C155.1 28.9734 155.012 28.2654 154.875 27.865C154.661 27.2302 154.309 26.6589 153.821 26.1511H161.863C165.203 26.1511 167.385 27.4646 168.411 30.0916C168.772 31.0193 168.953 32.1423 168.953 33.4607C168.953 40.8337 166.453 45.531 161.453 47.5525C159.763 48.2361 157.776 48.5779 155.491 48.5779C155.344 48.5779 155.198 48.5779 155.051 48.5779C154.905 48.5779 154.758 48.573 154.612 48.5632ZM186.098 29.3591C186.098 30.9998 184.897 32.3474 182.495 33.4021C184.487 33.7732 185.786 34.6765 186.391 36.1121C186.587 36.5906 186.684 37.2253 186.684 38.0164C186.684 38.7976 186.567 39.6472 186.333 40.5652C186.108 41.4734 185.747 42.3328 185.249 43.1433C184.76 43.9441 184.135 44.6765 183.374 45.3406C182.612 46.0046 181.699 46.5759 180.634 47.0544C178.398 48.0603 175.634 48.5632 172.343 48.5632C172.656 47.821 172.837 47.2009 172.885 46.7029C172.944 46.2048 172.993 45.6726 173.032 45.1062C173.11 43.9539 173.149 42.406 173.149 40.4626C173.149 38.1091 173.11 35.9607 173.032 34.0173L172.871 29.989C172.832 28.9734 172.744 28.2654 172.607 27.865C172.392 27.2302 172.041 26.6589 171.552 26.1511H179.301C181.665 26.1511 183.374 26.3855 184.428 26.8542C185.542 27.3425 186.098 28.1775 186.098 29.3591ZM176.562 36.947L176.577 44.3884C176.577 44.9451 176.635 45.365 176.753 45.6482C176.879 45.9314 177.129 46.073 177.5 46.073C179.004 46.073 180.258 45.3601 181.264 43.9343C182.299 42.4695 182.817 40.5652 182.817 38.2214C182.817 37.0593 182.558 36.1951 182.041 35.6287C181.357 34.8767 180.131 34.5007 178.364 34.5007C177.963 34.5007 177.646 34.5203 177.412 34.5593C177.177 34.5886 176.997 34.6814 176.87 34.8376C176.665 35.0916 176.562 35.7947 176.562 36.947ZM181.396 31.864C181.699 31.571 181.914 31.2585 182.041 30.9265C182.168 30.5945 182.231 30.2869 182.231 30.0037C182.231 29.7107 182.187 29.4177 182.099 29.1248C182.021 28.8318 181.86 28.573 181.616 28.3484C181.069 27.8601 180.131 27.616 178.803 27.616C177.797 27.616 177.197 27.7185 177.002 27.9236C176.806 28.1189 176.684 28.3826 176.635 28.7146C176.587 29.0466 176.562 29.4763 176.562 30.0037C176.562 30.5212 176.577 30.9558 176.606 31.3074C176.635 31.6492 176.713 31.9373 176.84 32.1716C177.085 32.6501 177.583 32.8894 178.335 32.8894C179.096 32.8894 179.721 32.7917 180.21 32.5964C180.708 32.4011 181.103 32.157 181.396 31.864Z" fill="#CCA2A2"/>
<defs>
<linearGradient id="paint0_linear_40_130" x1="126.911" y1="75.9496" x2="126.911" y2="0.12636" gradientUnits="userSpaceOnUse">
<stop offset="0.0139665" stop-color="#737FBA"/>
<stop offset="1" stop-color="#C4E1F5"/>
</linearGradient>
<linearGradient id="paint1_linear_40_130" x1="16.7605" y1="44.8884" x2="32.3994" y2="67.9978" gradientUnits="userSpaceOnUse">
<stop stop-color="#404F7E"/>
<stop offset="0.9358" stop-color="#7C97C8"/>
</linearGradient>
<radialGradient id="paint2_radial_40_130" cx="0" cy="0" r="1" gradientUnits="userSpaceOnUse" gradientTransform="translate(126.955 70.639) scale(63.4093 59.1878)">
<stop offset="0.0642458" stop-color="#7C97C8"/>
<stop offset="1" stop-color="#2B3554"/>
</radialGradient>
<linearGradient id="paint3_linear_40_130" x1="237.262" y1="44.8884" x2="221.623" y2="67.9978" gradientUnits="userSpaceOnUse">
<stop stop-color="#404F7E"/>
<stop offset="0.9358" stop-color="#7C97C8"/>
</linearGradient>
<linearGradient id="paint4_linear_40_130" x1="126.908" y1="68.3307" x2="126.908" y2="7.74536" gradientUnits="userSpaceOnUse">
<stop stop-color="#C4E1F5"/>
<stop offset="0.986" stop-color="#737FBA"/>
</linearGradient>
<radialGradient id="paint5_radial_40_130" cx="0" cy="0" r="1" gradientUnits="userSpaceOnUse" gradientTransform="translate(126.908 38.038) scale(89.9728 83.9828)">
<stop stop-color="#D50C10"/>
<stop offset="1" stop-color="#3F0005"/>
</radialGradient>
<linearGradient id="paint6_linear_40_130" x1="44.838" y1="10.8388" x2="126.908" y2="10.8388" gradientUnits="userSpaceOnUse">
<stop stop-color="#2B3554"/>
<stop offset="0.9358" stop-color="#7C97C8"/>
</linearGradient>
<linearGradient id="paint7_linear_40_130" x1="126.908" y1="10.8388" x2="208.978" y2="10.8388" gradientUnits="userSpaceOnUse">
<stop stop-color="#2B3554"/>
<stop offset="0.9358" stop-color="#7C97C8"/>
</linearGradient>
<linearGradient id="paint8_linear_40_130" x1="211.917" y1="15.0454" x2="229.581" y2="36.3757" gradientUnits="userSpaceOnUse">
<stop stop-color="#404F7E"/>
<stop offset="0.9358" stop-color="#7C97C8"/>
</linearGradient>
<linearGradient id="paint9_linear_40_130" x1="29.7763" y1="22.3137" x2="33.5789" y2="26.9054" gradientUnits="userSpaceOnUse">
<stop stop-color="#404F7E"/>
<stop offset="0.9358" stop-color="#7C97C8"/>
</linearGradient>
</defs>
</svg>
