<svg width="276" height="77" viewBox="0 0 276 77" fill="none" xmlns="http://www.w3.org/2000/svg">
<path d="M256.086 26.3224C252.78 23.6081 249.693 20.7676 246.974 17.8639C246.901 17.8008 246.901 17.7376 246.827 17.6745C244.696 15.4021 242.712 13.1297 241.022 10.9204C240.949 10.8573 240.949 10.7941 240.875 10.731C240.802 10.6679 240.728 10.6048 240.728 10.4785C240.728 10.4785 240.728 10.4785 240.728 10.4154C237.716 6.37552 235.658 2.7144 235.217 0.0632324C233.454 0.505093 231.102 0.88383 228.236 1.32569C227.796 1.38881 227.355 1.45194 226.84 1.51506C226.693 1.51506 226.546 1.57818 226.399 1.57818C226.326 1.57818 226.326 1.57818 226.252 1.57818C223.313 1.95692 219.859 2.33566 216.112 2.7144C216.038 2.7144 215.891 2.7144 215.818 2.7144C212.217 3.03001 208.323 3.34562 204.208 3.66124C184.882 5.04994 160.339 5.93366 138 5.93366C115.661 5.93366 91.1182 4.98682 71.7923 3.66124C67.6773 3.34562 63.7827 3.03001 60.1821 2.7144C60.1086 2.7144 59.9617 2.7144 59.8882 2.7144C55.9201 2.39878 52.393 2.02004 49.3067 1.57818C49.2332 1.57818 49.1597 1.57818 49.0128 1.51506C48.5719 1.45194 48.0575 1.38881 47.6166 1.32569C44.7508 0.946953 42.3994 0.505093 40.6358 0.0632324C40.1949 2.77752 38.1374 6.43865 35.1246 10.4154V10.4785C35.0511 10.5416 34.9776 10.6048 34.9776 10.731C34.9042 10.7941 34.9042 10.8573 34.8307 10.9204C33.1406 13.1297 31.1565 15.4021 29.0256 17.6745C28.9521 17.7376 28.9521 17.8008 28.8786 17.8639C26.0863 20.7676 23.0735 23.6081 19.8403 26.2592C19.8403 26.2592 19.8403 26.2592 19.7668 26.3224C13.3003 31.6247 6.24601 36.0433 0 38.0632C16.6805 43.4287 39.0192 66.216 40.7093 76.0001C52.0256 73.2858 87.738 70.824 122.201 70.2559L137.927 70.319H142.042H143.364H153.652C156.371 70.3822 159.016 70.4453 161.735 70.5084C162.837 70.5084 163.866 70.5715 164.968 70.5715C166.07 70.5715 167.099 70.6347 168.201 70.6347C169.23 70.6978 170.332 70.6978 171.361 70.7609C171.875 70.7609 172.463 70.824 172.978 70.824C174.006 70.8872 175.109 70.8871 176.137 70.9503C176.652 70.9503 177.24 71.0134 177.754 71.0134C183.559 71.2659 189.144 71.5184 194.508 71.834C194.508 71.834 194.508 71.834 194.581 71.834C213.099 72.9071 228.383 74.422 235.07 76.0632C235.07 76.0632 235.07 76.0632 235.07 76.0001C235.07 76.0001 235.07 75.937 235.07 75.8739C236.981 66.0267 259.099 43.4287 275.706 38.1264C269.534 36.0433 262.553 31.6247 256.086 26.3224ZM251.604 38.0632C251.016 38.5051 244.182 43.6812 237.789 49.236C232.645 54.0333 229.045 58.6413 224.93 64.4486C212.217 63.6911 200.901 63.1862 190.76 62.8074C188.335 62.7443 185.911 62.618 183.633 62.5549C182.53 62.5549 181.355 62.4918 180.252 62.4918C177.974 62.4287 175.77 62.3656 173.565 62.3656C173.051 62.3656 172.463 62.3656 171.949 62.3656C165.042 62.2393 158.722 62.1762 152.917 62.1762C152.256 62.1762 151.594 62.1762 150.933 62.1762C146.23 62.1762 141.895 62.1762 137.78 62.1762H137.706C133.003 62.1762 127.933 62.1762 122.495 62.1762C121.834 62.1762 121.173 62.1762 120.585 62.1762C115.367 62.1762 109.709 62.2393 103.61 62.3656C103.096 62.3656 102.581 62.3656 101.994 62.3656C99.8626 62.4287 97.5847 62.4287 95.3067 62.4918C94.2045 62.4918 93.1022 62.5549 91.9265 62.5549C89.6486 62.618 87.2236 62.6812 84.7987 62.8074C74.5847 63.123 63.2684 63.6911 50.6294 64.4486C46.5879 58.6413 42.9137 54.0333 37.77 49.236C34.4633 46.2061 25.4984 39.0732 24.2492 38.1264C24.1757 38.0632 24.1022 38.0001 24.1022 38.0001L24.1757 37.937C25.131 37.1795 33.508 30.741 37.9169 26.8274C43.0607 21.9669 46.6613 17.422 50.7764 11.6147C91.0447 14.0765 117.645 13.9503 137.927 13.9503C158.208 13.9503 184.808 14.0765 225.077 11.6147C229.118 17.422 232.792 22.03 237.936 26.8274C243.815 32.0666 251.163 37.6845 251.604 38.0632C251.677 38.0632 251.677 38.0001 251.604 38.0632C251.677 38.0632 251.677 38.0632 251.604 38.0632Z" fill="url(#paint0_linear_40_151)"/>
<path d="M17.1949 38.0632H0C16.6805 43.4287 39.0192 66.2161 40.7093 76.0001C40.7093 76.0001 45.4856 71.5184 48.7189 68.3622C42.8403 54.9171 20.6486 39.3257 17.1949 38.0632Z" fill="url(#paint1_linear_40_151)"/>
<path d="M227.208 68.3622C227.208 68.3622 194.067 65.3323 141.307 65.3323C88.5463 65.3323 48.7923 68.3622 48.7923 68.3622C48.7923 68.3622 44.2364 72.9701 40.7827 76C52.099 73.2858 87.8115 70.824 122.275 70.2559H142.335H153.725C188.262 70.824 223.901 73.2858 235.217 76C231.764 72.907 227.208 68.3622 227.208 68.3622Z" fill="url(#paint2_radial_40_151)"/>
<path d="M258.805 38.0632H276C259.32 43.4287 236.981 66.2161 235.291 76.0001C235.291 76.0001 230.514 71.5184 227.281 68.3622C233.233 54.9171 255.352 39.3257 258.805 38.0632Z" fill="url(#paint3_linear_40_151)"/>
<path d="M255.204 35.5384C250.648 32.1929 246.827 29.2261 243.594 26.4487L243.153 26.0699C242.639 25.565 242.051 25.1231 241.537 24.6181C241.39 24.555 241.316 24.4287 241.243 24.3025C237.936 21.2726 235.144 18.3058 232.645 15.2128C232.572 15.1497 232.498 15.0866 232.498 15.0234C232.425 14.8972 232.351 14.8341 232.278 14.7078C230.955 13.0035 229.633 11.2992 228.31 9.40549L227.134 7.70117L224.783 7.82742C189.585 9.9736 165.409 10.6048 143.585 10.6048H132.195C110.444 10.6048 86.2683 9.9736 50.9967 7.82742L48.6453 7.70117L47.4696 9.40549C46.1469 11.2361 44.8977 13.0035 43.5015 14.7078C43.428 14.8341 43.3546 14.8972 43.2811 15.0234C40.7092 18.2427 37.9169 21.2095 34.5367 24.3025C34.4632 24.4287 34.3162 24.4919 34.2427 24.6181C33.7284 25.1231 33.214 25.565 32.6261 26.0699C32.4792 26.1962 32.3322 26.3224 32.1852 26.4487C28.952 29.2892 25.1309 32.256 20.575 35.5384L17.1213 38.0002L20.575 40.5251C34.2427 50.4985 40.9296 57.1895 47.4696 66.5949L48.6453 68.2992H48.7923L50.9967 68.1729C63.8562 67.4155 75.1725 66.7842 85.5335 66.4055C85.9744 66.4055 86.4888 66.3424 86.9296 66.3424C99.5686 65.8374 110.738 65.5849 121.025 65.4586H121.687C128.815 65.4586 143.952 65.4586 154.754 65.4586C173.712 65.648 195.39 66.4055 224.709 68.1729L227.061 68.2992L227.722 67.3523L228.236 66.5949C234.85 57.1264 241.463 50.4354 255.131 40.5251L258.217 38.3158L258.585 38.0633L255.204 35.5384ZM225.003 64.5118C212.291 63.7543 200.974 63.2493 190.834 62.8706C188.409 62.8075 185.984 62.6812 183.706 62.6181C182.604 62.6181 181.428 62.555 180.326 62.555C178.048 62.4919 175.843 62.4287 173.639 62.4287C173.125 62.4287 172.537 62.4287 172.022 62.4287C165.115 62.3025 158.795 62.2394 152.99 62.2394C152.329 62.2394 151.668 62.2394 151.006 62.2394C146.303 62.2394 141.968 62.2394 137.853 62.2394H137.779C133.077 62.2394 128.006 62.2394 122.569 62.2394C121.907 62.2394 121.246 62.2394 120.658 62.2394C115.441 62.2394 109.783 62.3025 103.684 62.4287C103.169 62.4287 102.655 62.4287 102.067 62.4287C99.936 62.4919 97.6581 62.4919 95.3801 62.555C94.2779 62.555 93.1757 62.6181 91.9999 62.6181C89.722 62.6812 87.2971 62.7444 84.8721 62.8706C74.6581 63.1862 63.3418 63.7543 50.7028 64.5118C46.6613 58.7045 42.9872 54.0965 37.8434 49.2992C33.1405 44.7543 25.4249 39.0101 24.2491 38.1264C24.1757 38.0633 24.1022 38.0002 24.1022 38.0002L24.1757 37.9371C24.2491 37.9371 24.2491 37.8739 24.3226 37.8739C25.3514 37.1165 29.9808 33.7709 34.1693 30.2361C34.3897 30.0467 34.5367 29.9204 34.7571 29.7311C35.8594 28.7842 36.9616 27.7743 37.9903 26.8274C43.1341 21.967 46.7348 17.4221 50.8498 11.6148C91.1181 14.0766 117.719 13.9503 138 13.9503C158.281 13.9503 184.882 14.0766 225.15 11.6148C229.192 17.4221 232.866 22.0301 238.01 26.8274C243.815 32.1297 250.428 37.0533 251.604 37.8739C251.677 37.9371 251.677 37.9371 251.751 38.0002H251.824C251.31 38.3158 245.946 41.9138 238.01 49.1729C232.719 54.0965 229.118 58.6414 225.003 64.5118Z" fill="url(#paint4_linear_40_151)"/>
<path d="M251.677 38.0632C251.163 38.3789 245.725 41.9769 237.863 49.2991C232.719 54.0965 229.118 58.7044 225.003 64.5118C212.291 63.7543 200.975 63.2493 190.834 62.8706C188.409 62.8074 185.984 62.6812 183.706 62.6181C182.604 62.6181 181.428 62.5549 180.326 62.5549C178.048 62.4918 175.844 62.4287 173.639 62.4287C173.125 62.4287 172.537 62.4287 172.022 62.4287C165.115 62.3025 158.796 62.2393 152.99 62.2393C152.329 62.2393 151.668 62.2393 151.006 62.2393C146.304 62.2393 141.968 62.2393 137.853 62.2393H137.78C133.077 62.2393 128.006 62.2393 122.569 62.2393C121.907 62.2393 121.246 62.2393 120.658 62.2393C115.441 62.2393 109.783 62.3025 103.684 62.4287C103.169 62.4287 102.655 62.4287 102.067 62.4287C99.9362 62.4918 97.6582 62.4918 95.3803 62.5549C94.278 62.5549 93.1758 62.6181 92.0001 62.6181C89.7221 62.6812 87.2972 62.7443 84.8723 62.8706C74.6582 63.1862 63.3419 63.7543 50.7029 64.5118C46.6614 58.7044 42.9873 54.0965 37.8435 49.2991C33.1406 44.7543 25.425 39.0101 24.2493 38.1264C24.1758 38.0632 24.1023 38.0001 24.1023 38.0001L24.1758 37.937C24.2493 37.937 24.2493 37.8739 24.3227 37.8739C27.4825 35.6646 30.9362 32.9503 34.1694 30.236C34.3898 30.0466 34.5368 29.9204 34.7572 29.731C35.8595 28.7842 36.9617 27.7742 37.9905 26.8274C43.1342 21.9669 46.7349 17.4221 50.8499 11.6147C91.1183 14.0765 117.719 13.9503 138 13.9503C158.281 13.9503 184.882 14.0765 225.15 11.6147C229.192 17.4221 232.866 22.03 238.01 26.8274C242.051 30.6779 247.122 34.7809 251.604 37.8739C251.53 37.937 251.53 37.937 251.677 38.0632C251.604 38.0001 251.604 38.0001 251.677 38.0632Z" fill="url(#paint5_radial_40_151)"/>
<path d="M137.927 10.6678V13.9502C117.646 13.9502 91.1184 14.0765 50.7765 11.6147L48.719 7.76416L51.0704 7.89041C86.2685 10.0366 110.444 10.6678 132.269 10.6678H137.927Z" fill="url(#paint6_linear_40_151)"/>
<path d="M235.07 0.126343C229.559 4.16621 219.565 7.76422 204.061 3.72435C216.92 2.65126 224.121 2.33564 235.07 0.126343Z" fill="white"/>
<path d="M227.061 7.76416L225.003 11.6147C184.735 14.0765 158.134 13.9502 137.853 13.9502V10.6678H143.585C165.335 10.6678 189.511 10.0366 224.783 7.89041L227.061 7.76416Z" fill="url(#paint7_linear_40_151)"/>
<path d="M190.834 62.8705C190.246 62.8705 146.744 64.5117 137.927 64.5117V62.1761C142.042 62.1761 146.377 62.1761 151.08 62.1761C151.741 62.1761 152.403 62.1761 153.064 62.1761C158.869 62.1761 165.188 62.2393 172.096 62.3655C172.61 62.3655 173.125 62.3655 173.712 62.3655C175.843 62.4286 178.121 62.4286 180.399 62.4918C181.502 62.4918 182.604 62.5549 183.78 62.5549C186.058 62.6811 188.409 62.7443 190.834 62.8705Z" fill="white"/>
<path d="M137.926 64.5118C129.623 64.5118 85.8273 62.9337 84.9456 62.8706C87.3705 62.8075 89.7219 62.6812 92.0734 62.6181C93.1756 62.6181 94.3513 62.555 95.4535 62.555C97.7315 62.4919 99.936 62.4287 102.14 62.4287C102.655 62.4287 103.243 62.4287 103.757 62.4287C109.856 62.3025 115.514 62.2394 120.731 62.2394C121.393 62.2394 122.054 62.2394 122.642 62.2394C128.08 62.2394 133.15 62.2394 137.853 62.2394L137.926 64.5118Z" fill="white"/>
<path opacity="0.5" d="M232.205 14.771C242.198 20.7045 248.003 21.5883 240.655 10.5417C244.844 16.2228 249.767 20.8308 256.233 26.4487C243.08 20.0733 233.895 17.8009 243.594 26.4487C238.818 22.4089 233.233 15.9703 232.205 14.771Z" fill="white"/>
<path d="M258.585 38.0633H251.604C251.604 38.0633 251.604 38.0633 251.53 38.0633C251.457 38.0001 251.457 38.0002 251.383 37.937C246.901 34.844 241.831 30.6779 237.789 26.8905C232.645 22.0301 229.045 17.4852 224.93 11.6779L226.987 7.82739L228.163 9.53171C229.486 11.3623 230.735 13.1297 232.131 14.834C232.204 14.9603 232.278 15.0234 232.351 15.1497C232.425 15.2128 232.425 15.2759 232.498 15.339C235.07 18.4952 237.789 21.3988 241.096 24.4287C241.169 24.555 241.316 24.6181 241.39 24.7443C241.904 25.2493 242.419 25.6912 243.006 26.1962L243.447 26.5749C246.68 29.4154 250.502 32.3822 255.057 35.6646L258.585 38.0633Z" fill="url(#paint8_linear_40_151)"/>
<path d="M40.7092 0.126343C46.2204 4.16621 56.214 7.76422 71.7188 3.72435C58.8594 2.65126 51.7316 2.33564 40.7092 0.126343Z" fill="white"/>
<path opacity="0.5" d="M43.5749 14.7709C33.5813 20.7044 27.8497 21.5882 35.1979 10.4785C31.0094 16.1596 26.0861 20.7676 19.6196 26.3855C32.6995 20.0732 41.8848 17.8008 32.2586 26.4486C36.9615 22.4087 42.6196 15.9702 43.5749 14.7709Z" fill="white"/>
<path d="M50.7763 11.6147C46.7348 17.422 43.0606 22.0299 37.9169 26.8273C36.8881 27.7741 35.8594 28.7841 34.6836 29.7309C34.4632 29.9203 34.3162 30.0466 34.0958 30.2359C30.936 33.0133 27.4824 35.6645 24.2491 37.8738C24.3226 37.9369 24.2491 37.9369 24.2491 38L24.1757 38.0632H17.1948L20.6485 35.6014C25.2044 32.2559 29.0255 29.2891 32.2587 26.5117C32.4057 26.3854 32.5527 26.2592 32.6996 26.1329C33.214 25.6279 33.8019 25.1861 34.3162 24.6811C34.3897 24.618 34.5367 24.4917 34.6102 24.3655C37.9904 21.2725 40.7827 18.2426 43.3546 15.0864C43.4281 14.9602 43.5015 14.8971 43.575 14.7708C44.8977 13.0665 46.2204 11.3622 47.5431 9.46848L48.7188 7.76416L50.7763 11.6147Z" fill="url(#paint9_linear_40_151)"/>
<path d="M226.106 2.46188C227.355 2.27251 228.384 1.89378 228.31 1.57816C228.31 1.51504 228.237 1.45192 228.09 1.38879C226.62 1.57816 225.224 1.83065 223.828 1.9569C223.754 2.02002 223.681 2.14627 223.681 2.20939C223.754 2.52501 224.856 2.65125 226.106 2.46188Z" fill="white"/>
<path d="M49.6742 2.46188C48.425 2.27251 47.3963 1.89378 47.4698 1.57816C47.4698 1.51504 47.5433 1.45192 47.6902 1.38879C49.1599 1.57816 50.556 1.76753 51.9522 1.9569C52.0257 2.02002 52.0992 2.14627 52.0992 2.20939C52.0257 2.52501 50.9234 2.65125 49.6742 2.46188Z" fill="white"/>
<path d="M71.1498 41.0486L71.223 35.4236C71.223 31.488 71.0766 28.9734 70.7836 27.8796C70.6469 27.3523 70.4809 26.9666 70.2855 26.7224C70.1 26.4783 69.9486 26.2878 69.8314 26.1511H74.6361L74.3285 26.5613C73.8891 27.2058 73.6449 27.9333 73.5961 28.7439C73.5473 29.5544 73.5082 30.3748 73.4789 31.2048C73.4594 32.0349 73.4398 32.8601 73.4203 33.6804C73.4008 35.0574 73.391 36.5955 73.391 38.2947V40.0818C73.391 43.2361 72.8832 45.4968 71.8676 46.864C70.8617 48.1921 69.2211 48.8562 66.9457 48.8562C62.5414 48.8562 60.349 46.0291 60.3686 40.3748L60.3832 29.4031C60.3832 27.8601 60.1098 26.7761 59.5629 26.1511H65.1146C64.5385 26.8445 64.2504 27.8308 64.2504 29.1101C64.2504 29.8523 64.2455 30.614 64.2357 31.3953L64.1771 36.0828C64.1674 36.8542 64.1625 37.6501 64.1625 38.4705C64.1625 41.4099 64.2504 43.2751 64.4262 44.0662C64.602 44.8474 64.8168 45.4578 65.0707 45.8972C65.6566 46.8933 66.5258 47.3914 67.6781 47.3914C69.4555 47.3914 70.5492 46.0925 70.9594 43.4949C71.0863 42.7234 71.1498 41.908 71.1498 41.0486ZM77.5582 48.5632C78.0074 47.0203 78.232 44.3689 78.232 40.6091C78.232 37.9333 77.9977 36.1072 77.5289 35.1306C77.4117 34.8865 77.2799 34.657 77.1334 34.4421L76.65 33.7683H81.733C81.5865 34.2566 81.4889 34.7156 81.44 35.1453L81.3228 36.2C82.5045 34.3835 84.0084 33.4753 85.8346 33.4753C87.0162 33.4753 87.9391 33.9343 88.6031 34.8523C89.2477 35.7507 89.5699 36.9666 89.5699 38.4998V40.0671C89.5699 42.7527 89.5943 44.3933 89.6432 44.989C89.692 45.5847 89.7311 46.0388 89.7603 46.3513C89.7896 46.6638 89.8238 46.9421 89.8629 47.1863C89.9312 47.6453 90.0338 48.1042 90.1705 48.5632H85.8785C86.3277 47.0203 86.5523 44.3689 86.5523 40.6091C86.5523 39.1052 86.4547 38.075 86.2594 37.5183C86.0738 36.9617 85.8492 36.5662 85.5855 36.3318C85.3219 36.0876 84.9752 35.9656 84.5455 35.9656C83.7545 35.9656 83.0367 36.2781 82.3922 36.9031C81.8355 37.4402 81.4107 38.1238 81.1178 38.9539C81.0982 39.2175 81.0885 39.491 81.0885 39.7742V40.6091C81.0885 44.3689 81.3131 47.0203 81.7623 48.5632H77.5582ZM98.8055 29.8279C98.6102 30.1501 98.3709 30.4236 98.0877 30.6482C97.8045 30.863 97.4822 30.9705 97.1209 30.9705C96.7596 30.9705 96.4373 30.863 96.1541 30.6482C95.8709 30.4236 95.6316 30.1501 95.4363 29.8279C95.0359 29.1638 94.8357 28.4607 94.8357 27.7185C94.8357 26.8201 95.2459 26.2195 96.0662 25.9167C96.3592 25.8093 96.7156 25.7556 97.1355 25.7556C98.2977 25.7556 99.0203 26.1658 99.3035 26.9861C99.3914 27.2205 99.4353 27.4841 99.4353 27.7771C99.4353 28.0603 99.3816 28.3923 99.2742 28.7732C99.1668 29.1541 99.0105 29.5056 98.8055 29.8279ZM94.8357 48.5632C95.285 47.0203 95.5096 44.3689 95.5096 40.6091C95.5096 37.9626 95.2752 36.1414 94.8064 35.1453C94.6893 34.8914 94.5574 34.657 94.4109 34.4421L93.9275 33.7683H99.1277C98.698 35.3796 98.4832 37.865 98.4832 41.2244C98.4832 44.574 98.7078 47.0203 99.157 48.5632H94.8357ZM107.514 27.9089C107.309 28.6609 107.206 29.5642 107.206 30.6189C107.206 31.6638 107.226 32.3328 107.265 32.6257C107.313 32.9187 107.387 33.1531 107.484 33.3289C107.67 33.6218 108.031 33.7683 108.568 33.7683H112.494C112.494 34.3152 112.362 34.7351 112.099 35.0281C111.62 35.5554 111.034 35.8191 110.341 35.8191C109.999 35.8191 109.696 35.7703 109.433 35.6726C108.954 35.4773 108.583 35.3796 108.319 35.3796C108.056 35.3796 107.841 35.4333 107.675 35.5408C107.509 35.6384 107.377 35.7849 107.279 35.9802C107.104 36.3318 107.016 37.0984 107.016 38.28C107.016 39.4617 107.05 40.6726 107.118 41.9128C107.196 43.1531 107.382 44.1931 107.675 45.033C107.968 45.863 108.412 46.488 109.008 46.908C109.604 47.3279 110.424 47.5378 111.469 47.5378C111.469 47.8406 111.264 48.2019 110.854 48.6218C110.746 48.739 110.653 48.8171 110.575 48.8562C108.847 48.8562 107.553 48.6511 106.693 48.241C105.707 47.7527 105.004 46.8835 104.584 45.6335C104.164 44.364 103.954 42.4841 103.954 39.9939C103.954 37.8162 103.896 36.532 103.778 36.1414C103.661 35.741 103.554 35.4773 103.456 35.3503C103.339 35.2039 103.056 35.0232 102.606 34.8083C103.212 34.3494 103.812 33.4949 104.408 32.2449L105.141 30.7068C105.658 29.5349 106.098 28.7781 106.459 28.4363C106.83 28.0847 107.182 27.9089 107.514 27.9089ZM123.465 32.7429C123.231 32.1765 123.114 31.5076 123.114 30.7361C123.114 29.9646 123.143 29.3347 123.202 28.8464C123.26 28.3484 123.338 27.8992 123.436 27.4988C123.67 26.6003 123.958 26.1511 124.3 26.1511H137.205C137.772 26.1511 138.153 26.991 138.348 28.6707C138.397 29.1394 138.421 29.6228 138.421 30.1208C138.421 31.2927 138.294 32.1667 138.04 32.7429C137.201 30.1355 136.112 28.4656 134.774 27.7332C134.471 27.5574 134.173 27.4695 133.88 27.4695C133.587 27.4695 133.358 27.5476 133.192 27.7039C133.026 27.8503 132.889 28.0896 132.782 28.4216C132.606 29.0076 132.518 29.7107 132.518 30.531V36.0242L132.533 40.5066V44.7546C132.533 45.7117 132.655 46.4197 132.899 46.8787C133.153 47.3279 133.407 47.6697 133.661 47.9041C133.924 48.1384 134.232 48.3582 134.583 48.5632H127.098C127.801 47.9871 128.25 47.5134 128.446 47.1423C128.807 46.4685 128.988 45.6726 128.988 44.7546V31.5564C128.988 30.0232 128.929 29.0369 128.812 28.5974C128.695 28.1482 128.553 27.8503 128.387 27.7039C128.221 27.5476 127.992 27.4695 127.699 27.4695C127.406 27.4695 127.108 27.5574 126.805 27.7332C126.502 27.8992 126.204 28.1238 125.912 28.407C125.628 28.6804 125.355 29.0027 125.091 29.3738C124.837 29.7351 124.603 30.1111 124.388 30.5017C123.968 31.2732 123.661 32.0203 123.465 32.7429ZM150.836 43.5828C151.187 43.8171 151.363 44.2273 151.363 44.8132C151.363 45.3894 151.285 45.8972 151.129 46.3367C150.972 46.7761 150.699 47.1863 150.308 47.5671C149.429 48.4265 148.091 48.8562 146.295 48.8562C144.205 48.8562 142.613 48.0847 141.519 46.5417C140.552 45.1648 140.069 43.3044 140.069 40.9607C140.069 38.5974 140.723 36.7419 142.032 35.3943C143.272 34.115 144.952 33.4753 147.071 33.4753C148.546 33.4753 149.698 33.905 150.528 34.7644C151.182 35.448 151.509 36.239 151.509 37.1375C151.509 38.0261 151.334 38.8318 150.982 39.5544C150.64 40.2673 150.132 40.8826 149.459 41.4001C148.072 42.4744 146.133 43.0408 143.643 43.0994C143.848 45.0623 144.463 46.3757 145.489 47.0398C145.86 47.2742 146.353 47.3914 146.968 47.3914C147.584 47.3914 148.238 47.0691 148.931 46.4246C149.625 45.78 150.259 44.8328 150.836 43.5828ZM143.555 41.7078C146.641 41.5027 148.184 40.0085 148.184 37.2253C148.184 36.1804 147.872 35.4773 147.247 35.116C147.032 34.9988 146.749 34.9402 146.397 34.9402C146.046 34.9402 145.689 35.0476 145.328 35.2625C144.976 35.4773 144.669 35.8289 144.405 36.3171C143.838 37.3816 143.555 39.0271 143.555 41.2537V41.7078ZM164.085 32.9041C164.348 33.49 164.48 34.0808 164.48 34.6765C164.48 35.2722 164.451 35.7654 164.392 36.156C164.344 36.5466 164.265 36.9226 164.158 37.2839C163.914 38.1042 163.567 38.7341 163.118 39.1736C162.815 37.6599 162.483 36.6785 162.122 36.2292C161.77 35.78 161.414 35.4773 161.053 35.321C160.701 35.1648 160.325 35.0867 159.925 35.0867C159.524 35.0867 159.197 35.1257 158.943 35.2039C158.689 35.282 158.47 35.3943 158.284 35.5408C157.864 35.863 157.654 36.2292 157.654 36.6394C157.654 37.0496 157.757 37.406 157.962 37.7087C158.167 38.0017 158.435 38.28 158.767 38.5437C159.109 38.7976 159.495 39.0466 159.925 39.2908L161.243 40.0378C162.376 40.6726 163.152 41.2 163.572 41.6199C164.402 42.45 164.817 43.324 164.817 44.2419C164.817 45.4431 164.407 46.4539 163.587 47.2742C162.552 48.3289 160.999 48.8562 158.929 48.8562C157.044 48.8562 155.628 48.4167 154.68 47.5378C154.407 47.2839 154.212 47.03 154.095 46.7761C154.173 46.0437 154.5 45.3552 155.076 44.7107C155.633 44.0857 156.175 43.7244 156.702 43.6267C156.663 43.7537 156.643 43.9441 156.643 44.198C156.643 44.4519 156.717 44.7693 156.863 45.1501C157.01 45.5212 157.22 45.8679 157.493 46.1902C158.108 46.9324 158.802 47.3035 159.573 47.3035C160.345 47.3035 160.911 47.1277 161.272 46.7761C161.634 46.4246 161.814 46.0242 161.814 45.575C161.814 45.1257 161.712 44.7498 161.507 44.447C161.302 44.1443 161.028 43.8611 160.686 43.5974C160.354 43.3337 159.973 43.0798 159.544 42.8357L158.225 42.0886C157.102 41.4246 156.331 40.8582 155.911 40.3894C155.071 39.4519 154.651 38.4314 154.651 37.3279C154.651 36.1658 155.139 35.2234 156.116 34.5007C157.044 33.8171 158.201 33.4753 159.588 33.4753L162.166 33.6511C162.791 33.6511 163.225 33.5779 163.47 33.4314C163.714 33.2751 163.919 33.0994 164.085 32.9041ZM172.705 27.9089C172.5 28.6609 172.397 29.5642 172.397 30.6189C172.397 31.6638 172.417 32.3328 172.456 32.6257C172.505 32.9187 172.578 33.1531 172.676 33.3289C172.861 33.6218 173.223 33.7683 173.76 33.7683H177.686C177.686 34.3152 177.554 34.7351 177.29 35.0281C176.812 35.5554 176.226 35.8191 175.532 35.8191C175.19 35.8191 174.888 35.7703 174.624 35.6726C174.146 35.4773 173.774 35.3796 173.511 35.3796C173.247 35.3796 173.032 35.4333 172.866 35.5408C172.7 35.6384 172.568 35.7849 172.471 35.9802C172.295 36.3318 172.207 37.0984 172.207 38.28C172.207 39.4617 172.241 40.6726 172.31 41.9128C172.388 43.1531 172.573 44.1931 172.866 45.033C173.159 45.863 173.604 46.488 174.199 46.908C174.795 47.3279 175.615 47.5378 176.66 47.5378C176.66 47.8406 176.455 48.2019 176.045 48.6218C175.938 48.739 175.845 48.8171 175.767 48.8562C174.038 48.8562 172.744 48.6511 171.885 48.241C170.898 47.7527 170.195 46.8835 169.775 45.6335C169.355 44.364 169.146 42.4841 169.146 39.9939C169.146 37.8162 169.087 36.532 168.97 36.1414C168.853 35.741 168.745 35.4773 168.647 35.3503C168.53 35.2039 168.247 35.0232 167.798 34.8083C168.403 34.3494 169.004 33.4949 169.6 32.2449L170.332 30.7068C170.85 29.5349 171.289 28.7781 171.65 28.4363C172.021 28.0847 172.373 27.9089 172.705 27.9089ZM184.167 29.8279C183.972 30.1501 183.733 30.4236 183.449 30.6482C183.166 30.863 182.844 30.9705 182.483 30.9705C182.121 30.9705 181.799 30.863 181.516 30.6482C181.233 30.4236 180.993 30.1501 180.798 29.8279C180.398 29.1638 180.197 28.4607 180.197 27.7185C180.197 26.8201 180.608 26.2195 181.428 25.9167C181.721 25.8093 182.077 25.7556 182.497 25.7556C183.659 25.7556 184.382 26.1658 184.665 26.9861C184.753 27.2205 184.797 27.4841 184.797 27.7771C184.797 28.0603 184.743 28.3923 184.636 28.7732C184.529 29.1541 184.372 29.5056 184.167 29.8279ZM180.197 48.5632C180.647 47.0203 180.871 44.3689 180.871 40.6091C180.871 37.9626 180.637 36.1414 180.168 35.1453C180.051 34.8914 179.919 34.657 179.773 34.4421L179.289 33.7683H184.489C184.06 35.3796 183.845 37.865 183.845 41.2244C183.845 44.574 184.07 47.0203 184.519 48.5632H180.197ZM188.715 48.5632C189.164 47.0203 189.389 44.3689 189.389 40.6091C189.389 37.9333 189.155 36.1072 188.686 35.1306C188.569 34.8865 188.437 34.657 188.29 34.4421L187.807 33.7683H192.89C192.744 34.2566 192.646 34.7156 192.597 35.1453L192.48 36.2C193.662 34.3835 195.165 33.4753 196.992 33.4753C198.173 33.4753 199.096 33.9343 199.76 34.8523C200.405 35.7507 200.727 36.9666 200.727 38.4998V40.0671C200.727 42.7527 200.751 44.3933 200.8 44.989C200.849 45.5847 200.888 46.0388 200.917 46.3513C200.947 46.6638 200.981 46.9421 201.02 47.1863C201.088 47.6453 201.191 48.1042 201.328 48.5632H197.036C197.485 47.0203 197.709 44.3689 197.709 40.6091C197.709 39.1052 197.612 38.075 197.416 37.5183C197.231 36.9617 197.006 36.5662 196.743 36.3318C196.479 36.0876 196.132 35.9656 195.703 35.9656C194.912 35.9656 194.194 36.2781 193.549 36.9031C192.993 37.4402 192.568 38.1238 192.275 38.9539C192.255 39.2175 192.246 39.491 192.246 39.7742V40.6091C192.246 44.3689 192.47 47.0203 192.919 48.5632H188.715ZM212.834 48.2117C211.886 48.6414 210.954 48.8562 210.036 48.8562C209.118 48.8562 208.356 48.739 207.751 48.5046C207.145 48.2703 206.628 47.9285 206.198 47.4792C205.299 46.5417 204.85 45.2478 204.85 43.5974C204.85 40.4138 205.763 37.9333 207.589 36.156C209.22 34.5642 211.183 33.7683 213.478 33.7683H216.818C216.545 34.7156 216.388 35.6238 216.349 36.4929C216.31 37.3621 216.281 38.075 216.261 38.6316C216.252 39.1785 216.242 39.7351 216.232 40.3015C216.212 41.4343 216.203 42.5916 216.203 43.7732C216.203 44.9548 216.11 46.1023 215.924 47.2156C215.739 48.3191 215.49 49.2859 215.177 50.116C214.875 50.946 214.523 51.6541 214.123 52.24C213.732 52.8259 213.322 53.3191 212.892 53.7195C212.189 54.3738 211.374 54.8523 210.446 55.155C210.251 55.0769 210.06 54.9353 209.875 54.7302C209.699 54.5251 209.591 54.325 209.552 54.1296C210.666 53.6804 211.549 52.5623 212.204 50.7751C212.458 50.0818 212.668 49.2273 212.834 48.2117ZM213.156 43.6707L213.2 39.2761C213.2 37.5085 213.136 36.1707 213.009 35.2625C211.623 35.5359 210.529 36.3562 209.728 37.7234C208.918 39.1199 208.512 40.8826 208.512 43.0115C208.512 44.3298 208.61 45.2625 208.805 45.8093C209.01 46.3562 209.25 46.7566 209.523 47.0105C209.806 47.2644 210.143 47.3914 210.534 47.3914C210.934 47.3914 211.286 47.3132 211.588 47.157C211.891 47.0007 212.16 46.7664 212.394 46.4539C212.902 45.78 213.156 44.8523 213.156 43.6707Z" fill="#CCA2A2"/>
<defs>
<linearGradient id="paint0_linear_40_151" x1="137.904" y1="75.9496" x2="137.904" y2="0.12636" gradientUnits="userSpaceOnUse">
<stop offset="0.0139665" stop-color="#737FBA"/>
<stop offset="1" stop-color="#C4E1F5"/>
</linearGradient>
<linearGradient id="paint1_linear_40_151" x1="18.2122" y1="44.8884" x2="33.3314" y2="69.165" gradientUnits="userSpaceOnUse">
<stop stop-color="#404F7E"/>
<stop offset="0.9358" stop-color="#7C97C8"/>
</linearGradient>
<radialGradient id="paint2_radial_40_151" cx="0" cy="0" r="1" gradientUnits="userSpaceOnUse" gradientTransform="translate(137.951 70.639) scale(68.9015 59.1878)">
<stop offset="0.0642458" stop-color="#7C97C8"/>
<stop offset="1" stop-color="#2B3554"/>
</radialGradient>
<linearGradient id="paint3_linear_40_151" x1="257.813" y1="44.8884" x2="242.694" y2="69.165" gradientUnits="userSpaceOnUse">
<stop stop-color="#404F7E"/>
<stop offset="0.9358" stop-color="#7C97C8"/>
</linearGradient>
<linearGradient id="paint4_linear_40_151" x1="137.9" y1="68.3307" x2="137.9" y2="7.74536" gradientUnits="userSpaceOnUse">
<stop stop-color="#C4E1F5"/>
<stop offset="0.986" stop-color="#737FBA"/>
</linearGradient>
<radialGradient id="paint5_radial_40_151" cx="0" cy="0" r="1" gradientUnits="userSpaceOnUse" gradientTransform="translate(137.9 38.038) scale(97.7657 83.9828)">
<stop stop-color="#D50C10"/>
<stop offset="1" stop-color="#3F0005"/>
</radialGradient>
<linearGradient id="paint6_linear_40_151" x1="48.7218" y1="10.8388" x2="137.9" y2="10.8388" gradientUnits="userSpaceOnUse">
<stop stop-color="#2B3554"/>
<stop offset="0.9358" stop-color="#7C97C8"/>
</linearGradient>
<linearGradient id="paint7_linear_40_151" x1="137.9" y1="10.8388" x2="227.078" y2="10.8388" gradientUnits="userSpaceOnUse">
<stop stop-color="#2B3554"/>
<stop offset="0.9358" stop-color="#7C97C8"/>
</linearGradient>
<linearGradient id="paint8_linear_40_151" x1="230.272" y1="15.0454" x2="247.607" y2="37.7921" gradientUnits="userSpaceOnUse">
<stop stop-color="#404F7E"/>
<stop offset="0.9358" stop-color="#7C97C8"/>
</linearGradient>
<linearGradient id="paint9_linear_40_151" x1="32.3554" y1="22.3137" x2="36.0872" y2="27.2103" gradientUnits="userSpaceOnUse">
<stop stop-color="#404F7E"/>
<stop offset="0.9358" stop-color="#7C97C8"/>
</linearGradient>
</defs>
</svg>
