<svg width="125" height="77" viewBox="0 0 125 77" fill="none" xmlns="http://www.w3.org/2000/svg">
<path d="M115.981 26.3247C114.483 23.6037 113.086 20.756 111.854 17.8451C111.821 17.7818 111.821 17.7186 111.788 17.6553C110.823 15.3772 109.924 13.0991 109.159 10.8843C109.125 10.821 109.125 10.7577 109.092 10.6944C109.059 10.6311 109.026 10.5679 109.026 10.4413C109.026 10.4413 109.026 10.4413 109.026 10.378C107.661 6.32806 106.729 2.65779 106.53 0C105.731 0.442964 104.666 0.822648 103.368 1.26561C103.168 1.32889 102.969 1.39217 102.736 1.45545C102.669 1.45545 102.603 1.51873 102.536 1.51873C102.503 1.51873 102.503 1.51873 102.469 1.51873C101.138 1.89842 99.574 2.2781 97.8767 2.65779C97.8434 2.65779 97.7769 2.65779 97.7436 2.65779C96.1129 2.97419 94.349 3.29059 92.4854 3.60699C83.7327 4.99917 72.6171 5.8851 62.5 5.8851C52.3829 5.8851 41.2673 4.93589 32.5146 3.60699C30.651 3.29059 28.8871 2.97419 27.2564 2.65779C27.2231 2.65779 27.1565 2.65779 27.1233 2.65779C25.3261 2.34138 23.7287 1.9617 22.3309 1.51873C22.2977 1.51873 22.2644 1.51873 22.1978 1.45545C21.9981 1.39217 21.7652 1.32889 21.5655 1.26561C20.2676 0.885928 19.2026 0.442964 18.4039 0C18.2042 2.72107 17.2724 6.39134 15.9079 10.378V10.4413C15.8746 10.5046 15.8413 10.5679 15.8413 10.6944C15.808 10.7577 15.808 10.821 15.7748 10.8843C15.0093 13.0991 14.1108 15.3772 13.1456 17.6553C13.1124 17.7186 13.1124 17.7818 13.0791 17.8451C11.8144 20.756 10.4499 23.6037 8.98562 26.2614C8.98562 26.2614 8.98562 26.2614 8.95234 26.3247C6.02369 31.6403 2.82881 36.0699 0 38.0949C7.55458 43.4738 17.6717 66.3181 18.4372 76.1266C23.5623 73.4055 39.7364 70.9376 55.3448 70.368L62.4667 70.4313H64.3304H64.9294H69.5887C70.82 70.4946 72.0181 70.5579 73.2495 70.6211C73.7487 70.6211 74.2146 70.6844 74.7138 70.6844C75.213 70.6844 75.6789 70.7477 76.1781 70.7477C76.644 70.811 77.1432 70.811 77.6092 70.8743C77.8421 70.8743 78.1084 70.9376 78.3413 70.9376C78.8072 71.0008 79.3064 71.0008 79.7724 71.0641C80.0053 71.0641 80.2716 71.1274 80.5045 71.1274C83.1336 71.3805 85.6629 71.6336 88.0924 71.95C88.0924 71.95 88.0924 71.95 88.1257 71.95C96.5122 73.0258 103.434 74.5445 106.463 76.1898C106.463 76.1898 106.463 76.1898 106.463 76.1266C106.463 76.1266 106.463 76.0633 106.463 76C107.328 66.1282 117.346 43.4738 124.867 38.1582C122.071 36.0699 118.91 31.6403 115.981 26.3247ZM113.951 38.0949C113.685 38.5379 110.59 43.7269 107.694 49.2956C105.365 54.1049 103.734 58.7244 101.87 64.5462C96.1129 63.7868 90.9877 63.2806 86.3951 62.9009C85.2969 62.8376 84.1986 62.7111 83.1669 62.6478C82.6677 62.6478 82.1352 62.5845 81.636 62.5845C80.6044 62.5212 79.606 62.458 78.6076 62.458C78.3746 62.458 78.1084 62.458 77.8754 62.458C74.7471 62.3314 71.885 62.2681 69.2559 62.2681C68.9563 62.2681 68.6568 62.2681 68.3573 62.2681C66.2274 62.2681 64.2638 62.2681 62.4002 62.2681H62.3669C60.2369 62.2681 57.9406 62.2681 55.4779 62.2681C55.1784 62.2681 54.8789 62.2681 54.6126 62.2681C52.2497 62.2681 49.6872 62.3314 46.9249 62.458C46.692 62.458 46.459 62.458 46.1928 62.458C45.2276 62.5212 44.1959 62.5212 43.1643 62.5845C42.6651 62.5845 42.1659 62.6478 41.6334 62.6478C40.6017 62.7111 39.5035 62.7744 38.4052 62.9009C33.7793 63.2173 28.6542 63.7868 22.93 64.5462C21.0996 58.7244 19.4356 54.1049 17.106 49.2956C15.6084 46.2581 11.5482 39.1074 10.9824 38.1582C10.9491 38.0949 10.9159 38.0316 10.9159 38.0316L10.9491 37.9684C11.3818 37.209 15.1757 30.7544 17.1725 26.831C19.5021 21.9584 21.1329 17.4022 22.9965 11.5804C41.234 14.0483 53.2814 13.9217 62.4667 13.9217C71.652 13.9217 83.6994 14.0483 101.937 11.5804C103.767 17.4022 105.431 22.0216 107.761 26.831C110.423 32.0833 113.751 37.7152 113.951 38.0949C113.984 38.0949 113.984 38.0316 113.951 38.0949C113.984 38.0949 113.984 38.0949 113.951 38.0949Z" fill="url(#paint0_linear_40_45)"/>
<path d="M7.78754 38.095H0C7.55458 43.4738 17.6717 66.3181 18.4372 76.1266C18.4372 76.1266 20.6004 71.6337 22.0647 68.4697C19.4023 54.9909 9.3517 39.3606 7.78754 38.095Z" fill="url(#paint1_linear_40_45)"/>
<path d="M102.902 68.4696C102.902 68.4696 87.8927 65.4321 63.9976 65.4321C40.1025 65.4321 22.098 68.4696 22.098 68.4696C22.098 68.4696 20.0346 73.0891 18.4705 76.1265C23.5956 73.4055 39.7697 70.9375 55.3781 70.368H64.4635H69.622C85.2636 70.9375 101.404 73.4055 106.53 76.1265C104.965 73.0258 102.902 68.4696 102.902 68.4696Z" fill="url(#paint2_radial_40_45)"/>
<path d="M117.212 38.095H125C117.445 43.4738 107.328 66.3181 106.563 76.1266C106.563 76.1266 104.4 71.6337 102.935 68.4697C105.631 54.9909 115.648 39.3606 117.212 38.095Z" fill="url(#paint3_linear_40_45)"/>
<path d="M115.582 35.5637C113.518 32.2099 111.788 29.2357 110.323 26.4513L110.124 26.0716C109.891 25.5654 109.624 25.1224 109.392 24.6162C109.325 24.5529 109.292 24.4263 109.258 24.2998C107.761 21.2623 106.496 18.2881 105.365 15.1874C105.331 15.1241 105.298 15.0608 105.298 14.9975C105.265 14.871 105.232 14.8077 105.198 14.6811C104.599 12.9726 104 11.264 103.401 9.36556L102.869 7.65698L101.804 7.78354C85.8625 9.93508 74.9134 10.5679 65.0292 10.5679H59.8708C50.0199 10.5679 39.0707 9.93508 23.0963 7.78354L22.0313 7.65698L21.4988 9.36556C20.8998 11.2007 20.334 12.9726 19.7017 14.6811C19.6684 14.8077 19.6351 14.871 19.6019 14.9975C18.4371 18.2248 17.1724 21.199 15.6415 24.2998C15.6083 24.4263 15.5417 24.4896 15.5084 24.6162C15.2754 25.1224 15.0425 25.5654 14.7762 26.0716C14.7097 26.1982 14.6431 26.3248 14.5766 26.4513C13.1122 29.2989 11.3817 32.2731 9.31831 35.5637L7.75415 38.0317L9.31831 40.5629C15.5084 50.5612 18.5369 57.269 21.4988 66.6978L22.0313 68.4064H22.0979L23.0963 68.2798C28.9203 67.5204 34.0454 66.8876 38.7379 66.5079C38.9376 66.5079 39.1705 66.4447 39.3702 66.4447C45.0944 65.9384 50.153 65.6853 54.8122 65.5587H55.1117C58.3399 65.5587 65.1956 65.5587 70.0877 65.5587C78.674 65.7486 88.4916 66.5079 101.77 68.2798L102.835 68.4064L103.135 67.4571L103.368 66.6978C106.363 57.2057 109.358 50.4979 115.548 40.5629L116.946 38.3481L117.113 38.0949L115.582 35.5637ZM101.904 64.6095C96.1461 63.8502 91.0209 63.3439 86.4283 62.9642C85.33 62.9009 84.2318 62.7744 83.2001 62.7111C82.7009 62.7111 82.1684 62.6478 81.6692 62.6478C80.6375 62.5845 79.6391 62.5213 78.6407 62.5213C78.4078 62.5213 78.1415 62.5213 77.9086 62.5213C74.7802 62.3947 71.9182 62.3314 69.289 62.3314C68.9895 62.3314 68.69 62.3314 68.3905 62.3314C66.2605 62.3314 64.297 62.3314 62.4333 62.3314H62.4C60.2701 62.3314 57.9738 62.3314 55.5111 62.3314C55.2115 62.3314 54.912 62.3314 54.6458 62.3314C52.2829 62.3314 49.7203 62.3947 46.9581 62.5213C46.7251 62.5213 46.4922 62.5213 46.2259 62.5213C45.2608 62.5845 44.2291 62.5845 43.1974 62.6478C42.6982 62.6478 42.199 62.7111 41.6666 62.7111C40.6349 62.7744 39.5366 62.8377 38.4384 62.9642C33.8125 63.2806 28.6873 63.8502 22.9631 64.6095C21.1327 58.7877 19.4687 54.1682 17.1391 49.3589C15.0092 44.8027 11.5148 39.0442 10.9823 38.1582C10.949 38.095 10.9158 38.0317 10.9158 38.0317L10.949 37.9684C10.9823 37.9684 10.9823 37.9051 11.0156 37.9051C11.4815 37.1457 13.5782 33.7919 15.4751 30.2482C15.575 30.0583 15.6415 29.9318 15.7414 29.7419C16.2406 28.7927 16.7398 27.7802 17.2057 26.831C19.5353 21.9584 21.166 17.4022 23.0297 11.5804C41.2672 14.0483 53.3146 13.9218 62.4999 13.9218C71.6852 13.9218 83.7326 14.0483 101.97 11.5804C103.8 17.4022 105.464 22.0217 107.794 26.831C110.423 32.1466 113.418 37.0825 113.951 37.9051C113.984 37.9684 113.984 37.9684 114.017 38.0317H114.051C113.818 38.3481 111.388 41.9551 107.794 49.2323C105.398 54.1682 103.767 58.7244 101.904 64.6095Z" fill="url(#paint4_linear_40_45)"/>
<path d="M113.984 38.0949C113.751 38.4113 111.289 42.0183 107.728 49.3588C105.398 54.1682 103.767 58.7877 101.904 64.6095C96.1461 63.8501 91.0209 63.3439 86.4283 62.9642C85.33 62.9009 84.2318 62.7743 83.2001 62.711C82.7009 62.711 82.1684 62.6478 81.6692 62.6478C80.6376 62.5845 79.6392 62.5212 78.6407 62.5212C78.4078 62.5212 78.1415 62.5212 77.9086 62.5212C74.7803 62.3946 71.9182 62.3314 69.289 62.3314C68.9895 62.3314 68.69 62.3314 68.3905 62.3314C66.2606 62.3314 64.297 62.3314 62.4333 62.3314H62.4001C60.2701 62.3314 57.9738 62.3314 55.5111 62.3314C55.2116 62.3314 54.912 62.3314 54.6458 62.3314C52.2829 62.3314 49.7204 62.3946 46.9581 62.5212C46.7251 62.5212 46.4922 62.5212 46.2259 62.5212C45.2608 62.5845 44.2291 62.5845 43.1975 62.6478C42.6983 62.6478 42.1991 62.711 41.6666 62.711C40.6349 62.7743 39.5366 62.8376 38.4384 62.9642C33.8125 63.2806 28.6873 63.8501 22.9632 64.6095C21.1328 58.7877 19.4688 54.1682 17.1391 49.3588C15.0092 44.8026 11.5148 39.0441 10.9823 38.1582C10.9491 38.0949 10.9158 38.0316 10.9158 38.0316L10.9491 37.9683C10.9823 37.9683 10.9823 37.9051 11.0156 37.9051C12.4467 35.6902 14.0108 32.9692 15.4751 30.2481C15.575 30.0583 15.6415 29.9317 15.7414 29.7419C16.2406 28.7926 16.7398 27.7802 17.2057 26.8309C19.5353 21.9583 21.166 17.4021 23.0297 11.5803C41.2672 14.0483 53.3146 13.9217 62.4999 13.9217C71.6852 13.9217 83.7326 14.0483 101.97 11.5803C103.8 17.4021 105.465 22.0216 107.794 26.8309C109.625 30.6911 111.921 34.8043 113.951 37.9051C113.918 37.9683 113.918 37.9683 113.984 38.0949C113.951 38.0316 113.951 38.0316 113.984 38.0949Z" fill="url(#paint5_radial_40_45)"/>
<path d="M62.4667 10.6311V13.9217C53.2814 13.9217 41.2673 14.0483 22.9965 11.5803L22.0647 7.72021L23.1297 7.84678C39.0708 9.99832 50.02 10.6311 59.9042 10.6311H62.4667Z" fill="url(#paint6_linear_40_45)"/>
<path d="M106.463 0.0632324C103.967 4.11319 99.4408 7.72018 92.4187 3.67023C98.2427 2.59446 101.504 2.27805 106.463 0.0632324Z" fill="white"/>
<path d="M102.835 7.72021L101.904 11.5803C83.666 14.0483 71.6187 13.9217 62.4333 13.9217V10.6311H65.0292C74.8801 10.6311 85.8292 9.99832 101.804 7.84678L102.835 7.72021Z" fill="url(#paint7_linear_40_45)"/>
<path d="M86.4285 62.9642C86.1622 62.9642 66.4604 64.6094 62.4668 64.6094V62.2681C64.3305 62.2681 66.294 62.2681 68.4239 62.2681C68.7235 62.2681 69.023 62.2681 69.3225 62.2681C71.9516 62.2681 74.8137 62.3313 77.942 62.4579C78.175 62.4579 78.408 62.4579 78.6742 62.4579C79.6393 62.5212 80.671 62.5212 81.7027 62.5845C82.2019 62.5845 82.7011 62.6477 83.2336 62.6477C84.2653 62.7743 85.3302 62.8376 86.4285 62.9642Z" fill="white"/>
<path d="M62.4666 64.6095C58.706 64.6095 38.871 63.0275 38.4717 62.9642C39.5699 62.9009 40.6349 62.7744 41.6998 62.7111C42.1991 62.7111 42.7315 62.6478 43.2307 62.6478C44.2624 62.5845 45.2608 62.5213 46.2592 62.5213C46.4922 62.5213 46.7584 62.5213 46.9914 62.5213C49.7536 62.3947 52.3162 62.3314 54.6791 62.3314C54.9786 62.3314 55.2781 62.3314 55.5444 62.3314C58.0071 62.3314 60.3034 62.3314 62.4333 62.3314L62.4666 64.6095Z" fill="white"/>
<path opacity="0.5" d="M105.165 14.7444C109.691 20.6928 112.32 21.5787 108.992 10.5046C110.889 16.1999 113.119 20.8194 116.048 26.4514C110.09 20.06 105.93 17.7819 110.323 26.4514C108.16 22.4014 105.631 15.9468 105.165 14.7444Z" fill="white"/>
<path d="M117.113 38.095H113.951C113.951 38.095 113.951 38.095 113.918 38.095C113.884 38.0317 113.884 38.0317 113.851 37.9684C111.821 34.8677 109.525 30.6911 107.694 26.8943C105.365 22.0217 103.734 17.4655 101.87 11.6437L102.802 7.78357L103.335 9.49215C103.934 11.3273 104.499 13.0991 105.132 14.8077C105.165 14.9343 105.198 14.9976 105.232 15.1241C105.265 15.1874 105.265 15.2507 105.298 15.314C106.463 18.478 107.694 21.3889 109.192 24.4264C109.225 24.5529 109.292 24.6162 109.325 24.7428C109.558 25.249 109.791 25.692 110.057 26.1982L110.257 26.5779C111.721 29.4255 113.452 32.3997 115.515 35.6903L117.113 38.095Z" fill="url(#paint8_linear_40_45)"/>
<path d="M18.4373 0.0632324C20.9333 4.11319 25.4594 7.72018 32.4814 3.67023C26.6574 2.59446 23.4293 2.27805 18.4373 0.0632324Z" fill="white"/>
<path opacity="0.5" d="M19.735 14.7444C15.209 20.6927 12.6131 21.5787 15.9411 10.4413C14.0442 16.1365 11.8144 20.756 8.88574 26.388C14.8096 20.0599 18.9696 17.7818 14.6099 26.4513C16.7398 22.4013 19.3024 15.9467 19.735 14.7444Z" fill="white"/>
<path d="M22.9966 11.5803C21.1662 17.4021 19.5022 22.0216 17.1726 26.831C16.7067 27.7802 16.2407 28.7927 15.7083 29.7419C15.6084 29.9317 15.5419 30.0583 15.442 30.2481C14.011 33.0325 12.4468 35.6902 10.9825 37.9051C11.0158 37.9683 10.9825 37.9683 10.9825 38.0316L10.9492 38.0949H7.7876L9.35176 35.627C11.4151 32.2731 13.1457 29.2989 14.61 26.5146C14.6766 26.388 14.7431 26.2614 14.8097 26.1349C15.0427 25.6286 15.3089 25.1857 15.5419 24.6794C15.5751 24.6161 15.6417 24.4896 15.675 24.363C17.2059 21.2623 18.4705 18.2248 19.6353 15.0608C19.6686 14.9342 19.7019 14.8709 19.7351 14.7444C20.3342 13.0358 20.9332 11.3272 21.5323 9.42879L22.0648 7.72021L22.9966 11.5803Z" fill="url(#paint9_linear_40_45)"/>
<path d="M102.403 2.40463C102.969 2.21479 103.435 1.8351 103.401 1.5187C103.401 1.45542 103.368 1.39214 103.301 1.32886C102.636 1.5187 102.004 1.77182 101.371 1.89838C101.338 1.96166 101.305 2.08822 101.305 2.15151C101.338 2.46791 101.837 2.59447 102.403 2.40463Z" fill="white"/>
<path d="M22.4974 2.40463C21.9316 2.21479 21.4657 1.8351 21.499 1.5187C21.499 1.45542 21.5323 1.39214 21.5988 1.32886C22.2644 1.5187 22.8968 1.70854 23.5291 1.89838C23.5624 1.96166 23.5956 2.08822 23.5956 2.15151C23.5624 2.46791 23.0632 2.59447 22.4974 2.40463Z" fill="white"/>
<path d="M59.1713 36.759L59.1859 42.2961C59.1859 44.0637 58.7416 45.5579 57.8529 46.7786C56.808 48.1848 55.3529 48.8879 53.4877 48.8879C52.0228 48.8879 50.851 48.3997 49.9721 47.4231C49.1713 46.5344 48.7709 45.4602 48.7709 44.2004C49.2103 43.1848 49.6791 42.4084 50.1771 41.8713C50.9974 40.9827 51.681 40.4895 52.2279 40.3918C52.0717 41.2805 51.9935 42.0959 51.9935 42.8381C51.9935 43.5803 52.0228 44.2102 52.0814 44.7278C52.1498 45.2356 52.2572 45.6897 52.4037 46.0901C52.726 46.9788 53.2338 47.4231 53.9271 47.4231C54.5326 47.4231 54.9916 47.0325 55.3041 46.2512C55.5678 45.6067 55.6996 44.7424 55.6996 43.6584V40.1428C55.6996 35.9045 55.6703 32.3352 55.6117 29.4348C55.5922 28.6633 55.475 28.0286 55.2601 27.5305C55.0551 27.0227 54.7035 26.5735 54.2055 26.1829H59.9916C59.6986 26.7102 59.518 27.2766 59.4496 27.8821C59.391 28.4875 59.3373 29.1516 59.2885 29.8743C59.2103 31.2512 59.1713 33.5461 59.1713 36.759ZM66.5318 40.8313C66.4049 41.8469 66.3414 42.6575 66.3414 43.2629C66.3414 43.8586 66.4146 44.4104 66.5611 44.9182C66.7076 45.426 66.9176 45.8655 67.191 46.2366C67.7769 47.0276 68.5191 47.4231 69.4176 47.4231C71.1363 47.4231 71.9957 46.4758 71.9957 44.5813C71.9957 43.0579 71.1119 41.4417 69.3443 39.7327L67.8209 38.2532C66.483 36.9641 65.5699 35.929 65.0816 35.1477C64.1148 33.6047 63.6314 32.0715 63.6314 30.5481C63.6314 29.3079 64.0318 28.2678 64.8326 27.428C65.7994 26.4026 67.191 25.8899 69.0074 25.8899C69.7203 25.8899 70.2574 25.9241 70.6187 25.9924C71.2926 26.1194 71.7418 26.1829 71.9664 26.1829C72.5328 26.1829 72.9723 26.0071 73.2848 25.6555C73.4019 25.5286 73.5289 25.3625 73.6656 25.1575C74.3785 25.5579 74.7349 27.0276 74.7349 29.5667C74.7349 31.1877 74.5738 32.384 74.2515 33.1555C74.1441 33.4192 74.0221 33.5852 73.8853 33.6536C73.7291 32.179 73.2506 30.8606 72.4498 29.6985C71.5123 28.3313 70.4283 27.6477 69.1978 27.6477C68.1432 27.6477 67.4937 28.1311 67.2496 29.0979C67.1812 29.3713 67.1471 29.7131 67.1471 30.1233C67.1471 30.5237 67.2691 30.9827 67.5133 31.5002C67.7574 32.0178 68.0748 32.5354 68.4654 33.053C68.8658 33.5608 69.3248 34.0735 69.8424 34.5911C71.4049 36.1926 72.44 37.2766 72.9478 37.843C73.4654 38.4094 73.9244 38.9954 74.3248 39.6008C75.2037 40.9583 75.6432 42.2717 75.6432 43.5413C75.6432 45.0745 75.0474 46.344 73.856 47.3499C72.6256 48.3752 71.0435 48.8879 69.1099 48.8879C67.5084 48.8879 66.1314 48.4875 64.9791 47.6868C63.7096 46.8079 63.0748 45.6458 63.0748 44.2004C63.4557 42.843 64.2857 41.8469 65.565 41.2122C65.9068 41.0364 66.2291 40.9094 66.5318 40.8313Z" fill="#CCA2A2"/>
<defs>
<linearGradient id="paint0_linear_40_45" x1="62.4563" y1="76.0759" x2="62.4563" y2="0.0632849" gradientUnits="userSpaceOnUse">
<stop offset="0.0139665" stop-color="#737FBA"/>
<stop offset="1" stop-color="#C4E1F5"/>
</linearGradient>
<linearGradient id="paint1_linear_40_45" x1="8.24827" y1="44.9372" x2="24.3023" y2="56.5827" gradientUnits="userSpaceOnUse">
<stop stop-color="#404F7E"/>
<stop offset="0.9358" stop-color="#7C97C8"/>
</linearGradient>
<radialGradient id="paint2_radial_40_45" cx="0" cy="0" r="1" gradientUnits="userSpaceOnUse" gradientTransform="translate(62.4779 70.7521) scale(31.2054 59.3356)">
<stop offset="0.0642458" stop-color="#7C97C8"/>
<stop offset="1" stop-color="#2B3554"/>
</radialGradient>
<linearGradient id="paint3_linear_40_45" x1="116.763" y1="44.9372" x2="100.709" y2="56.5827" gradientUnits="userSpaceOnUse">
<stop stop-color="#404F7E"/>
<stop offset="0.9358" stop-color="#7C97C8"/>
</linearGradient>
<linearGradient id="paint4_linear_40_45" x1="62.4546" y1="68.438" x2="62.4546" y2="7.70128" gradientUnits="userSpaceOnUse">
<stop stop-color="#C4E1F5"/>
<stop offset="0.986" stop-color="#737FBA"/>
</linearGradient>
<radialGradient id="paint5_radial_40_45" cx="0" cy="0" r="1" gradientUnits="userSpaceOnUse" gradientTransform="translate(62.4546 38.0696) scale(44.278 84.1926)">
<stop stop-color="#D50C10"/>
<stop offset="1" stop-color="#3F0005"/>
</radialGradient>
<linearGradient id="paint6_linear_40_45" x1="22.066" y1="10.8025" x2="62.4547" y2="10.8025" gradientUnits="userSpaceOnUse">
<stop stop-color="#2B3554"/>
<stop offset="0.9358" stop-color="#7C97C8"/>
</linearGradient>
<linearGradient id="paint7_linear_40_45" x1="62.4546" y1="10.8025" x2="102.843" y2="10.8025" gradientUnits="userSpaceOnUse">
<stop stop-color="#2B3554"/>
<stop offset="0.9358" stop-color="#7C97C8"/>
</linearGradient>
<linearGradient id="paint8_linear_40_45" x1="104.29" y1="15.0196" x2="120.102" y2="24.393" gradientUnits="userSpaceOnUse">
<stop stop-color="#404F7E"/>
<stop offset="0.9358" stop-color="#7C97C8"/>
</linearGradient>
<linearGradient id="paint9_linear_40_45" x1="14.6538" y1="22.3061" x2="18.0577" y2="24.3239" gradientUnits="userSpaceOnUse">
<stop stop-color="#404F7E"/>
<stop offset="0.9358" stop-color="#7C97C8"/>
</linearGradient>
</defs>
</svg>
